<svg width="158" height="54" viewBox="0 0 158 54" fill="none" xmlns="http://www.w3.org/2000/svg">
<path fill-rule="evenodd" clip-rule="evenodd" d="M15.397 44.8166C16.922 44.8166 18.7264 45.6233 18.7264 47.2163V52.6354C18.7264 53.0291 18.7871 53.5455 19.3287 53.5455C19.7901 53.5455 20.0706 53.1517 20.3706 52.7186L20.5927 52.8829C20.2114 53.5658 19.6893 54 18.8272 54C17.8849 54 17.2025 53.442 17.0617 52.7175H17.0216C16.3404 53.649 15.4371 54 14.1135 54C12.5496 54 11.6061 53.1934 11.6061 51.786C11.6061 49.4708 14.5944 48.8903 16.661 48.8903H17.0422V46.3478C17.0422 45.3746 16.1607 45.1474 15.397 45.1474C14.8154 45.1474 13.4518 45.3746 13.4518 46.1194C13.4518 46.6166 14.1135 46.3883 14.1135 47.3186C14.1135 47.8148 13.7128 48.1882 13.1907 48.1882C12.6297 48.1882 12.3091 47.7337 12.3091 47.0295C12.3091 45.9743 13.3922 44.8166 15.397 44.8166ZM39.0558 44.8166C40.1663 44.8166 40.9289 45.54 41.135 45.54C41.2586 45.54 41.2792 45.396 41.2792 45.1058V44.9404H41.5666L41.649 47.4019H41.3823C41.238 46.2229 40.6197 45.1474 38.9939 45.1474C37.944 45.1474 37.1002 45.7256 37.1002 46.8011C37.1002 47.8778 37.9017 48.2501 39.2619 48.3334L39.9603 48.3739C41.6284 48.4774 42.3074 49.3875 42.3074 50.8151C42.3074 52.7389 41.0319 54 39.4473 54C37.8215 54 37.3258 53.1112 36.9148 53.1112C36.6468 53.1112 36.7087 53.442 36.6674 53.8763H36.3583L36.3171 50.7533H36.585C36.7499 51.8074 37.2846 53.6693 39.4473 53.6693C40.5785 53.6693 41.4441 52.9245 41.4441 51.7455C41.4441 50.112 40.2076 50.0918 39.1176 49.9669C37.778 49.8206 36.482 49.635 36.482 47.4851C36.482 45.9956 37.4494 44.8166 39.0558 44.8166ZM5.63648 39.6731C8.58352 39.6731 10.8573 40.6856 10.8573 43.5409C10.8573 46.3354 8.22745 47.4064 5.83455 47.4064C5.16248 47.4064 4.37133 47.268 3.97519 47.07V53.3149H5.99255V53.6321H0V53.3149H1.95783V39.9915H0V39.6731H5.63648ZM33.2247 45.0158V53.3126H34.8195V53.6321H29.9536V53.3126H31.5485V45.774H29.9513V45.4545H31.5473C32.1862 45.4545 32.8251 45.4151 33.2247 45.0158ZM27.7817 44.8166C28.5785 44.8166 29.2037 45.306 29.2037 46.0204C29.2037 46.5514 28.859 46.9789 28.2133 46.9789C27.5023 46.9789 27.2653 46.6324 27.2653 46.0811C27.2653 45.6322 27.5023 45.3262 27.7393 45.2036C27.6523 45.1429 27.5447 45.1429 27.437 45.1429C26.5543 45.1429 24.9606 46.4692 24.9606 49.122V53.307H26.9207V53.6333H21.3414V53.307H23.1504V45.5918H21.3414V45.2655H23.1504C23.8397 45.2655 24.5289 45.225 24.9594 44.8155V47.2241H25.0029C25.2617 46.3061 26.015 44.8166 27.7817 44.8166ZM17.0422 49.2221H16.7011C15.2367 49.2221 13.4117 49.2637 13.4117 51.4766C13.4117 52.6354 13.5926 53.5039 14.876 53.5039C16.3805 53.5039 17.0422 52.3451 17.0422 51.9322V49.2221ZM5.1808 39.9915H3.97633V46.6729C4.27401 46.8709 4.84648 47.0891 5.49909 47.0891C6.8043 47.0891 8.7232 46.3961 8.7232 43.7186C8.7232 41.121 7.53591 39.9915 5.18309 39.9915H5.1808ZM32.3866 40.4077C32.9453 40.4077 33.4033 40.8667 33.4033 41.4247C33.4033 41.9839 32.9453 42.4429 32.3866 42.4429C31.8278 42.4429 31.3687 41.9839 31.3687 41.4247C31.3687 40.8667 31.8267 40.4077 32.3866 40.4077ZM128.617 25.1775V36.5962C128.617 37.368 128.506 38.1859 127.719 38.7113C126.732 39.3727 125.054 39.3041 125.054 39.3041L125.052 39.0634C125.052 39.0634 125.999 39.0892 126.479 38.5582C126.971 38.0126 126.942 36.8393 126.937 36.702V25.9358H125.057V25.6163H126.936C127.577 25.6163 128.216 25.5769 128.617 25.1775ZM141.199 25.3463C142.722 25.3463 144.529 26.154 144.529 27.747V33.1661C144.529 33.5599 144.588 34.0751 145.13 34.0751C145.591 34.0751 145.872 33.6825 146.173 33.2483L146.394 33.4136C146.013 34.0965 145.491 34.5308 144.628 34.5308C143.686 34.5308 143.004 33.9728 142.863 33.2483H142.823C142.142 34.1798 141.238 34.5308 139.915 34.5308C138.35 34.5308 137.407 33.7241 137.407 32.3179C137.407 30.0004 140.396 29.4221 142.462 29.4221H142.843V26.8762C142.843 25.9042 141.962 25.677 141.198 25.677C140.617 25.677 139.252 25.9042 139.252 26.649C139.252 27.1462 139.915 26.9179 139.915 27.8482C139.915 28.3455 139.514 28.7179 138.992 28.7179C138.431 28.7179 138.11 28.2622 138.11 27.5591C138.11 26.5039 139.195 25.3463 141.199 25.3463ZM46.8184 25.3463C48.2667 25.3463 49.7986 25.9875 49.7986 27.27C49.7986 27.891 49.3223 28.305 48.8048 28.305C48.1637 28.305 47.8122 27.8494 47.8122 27.4163C47.8122 26.5883 48.3297 26.6287 48.3297 26.3194C48.3297 25.8638 47.3771 25.6781 46.7772 25.6781C44.7701 25.6781 44.2938 26.9809 44.2938 28.9462V30.7463C44.2938 32.5451 44.3774 34.2 46.6947 34.2C48.7842 34.2 49.6944 32.6273 49.8398 31.3661H50.1707C50.1089 32.9378 48.743 34.5308 46.6947 34.5308C44.0259 34.5308 42.3085 32.6273 42.3085 30.2906C42.3085 27.5805 44.3774 25.3474 46.8195 25.3474L46.8184 25.3463ZM24.3835 25.3463C25.9074 25.3463 27.713 26.154 27.713 27.747V33.1661C27.713 33.5599 27.7725 34.0751 28.3141 34.0751C28.7755 34.0751 29.0571 33.6825 29.3571 33.2483L29.5781 33.4136C29.1968 34.0965 28.6759 34.5308 27.8126 34.5308C26.8703 34.5308 26.1879 33.9728 26.0482 33.2483H26.0082C25.3258 34.1798 24.4236 34.5308 23.1001 34.5308C21.5349 34.5308 20.5927 33.7241 20.5927 32.3179C20.5927 30.0004 23.5809 29.4221 25.6475 29.4221H26.0276V26.8762C26.0276 25.9042 25.146 25.677 24.3835 25.677C23.8019 25.677 22.4371 25.9042 22.4371 26.649C22.4371 27.1462 23.1001 26.9179 23.1001 27.8482C23.1001 28.3455 22.6993 28.7179 22.1772 28.7179C21.6162 28.7179 21.2945 28.2622 21.2945 27.5591C21.2945 26.5039 22.3776 25.3463 24.3835 25.3463ZM91.9949 25.3463V33.9525H93.6024V34.2821H90.3084V32.4H90.2684C90.0875 32.8759 89.2437 34.5308 87.4564 34.5308C85.4482 34.5308 84.7246 33.4339 84.7246 32.2357V26.1326H83.1183V25.8019H84.7246C85.3681 25.8019 86.0104 25.7614 86.4123 25.3474V32.7521C86.4123 33.6409 86.8931 34.2 87.6568 34.2C89.0628 34.2 90.3084 32.5654 90.3084 31.0354V26.1326H88.7216V25.8019H90.3084C90.9496 25.8019 91.5931 25.7603 91.9949 25.3463ZM60.1934 25.3463C61.375 25.3463 62.1833 26.0719 62.4031 26.0719C62.5337 26.0719 62.5554 25.9256 62.5554 25.6365V25.4711H62.8622L62.9493 27.9326H62.6653C62.5119 26.7536 61.8559 25.6781 60.1282 25.6781C59.0119 25.6781 58.1154 26.2575 58.1154 27.3319C58.1154 28.4085 58.9683 28.7809 60.4121 28.8641L61.1563 28.9046C62.9275 29.0081 63.6488 29.9183 63.6488 31.3459C63.6488 33.2696 62.2932 34.5296 60.609 34.5296C58.8802 34.5296 58.3558 33.6409 57.9184 33.6409C57.6345 33.6409 57.7009 33.9728 57.6563 34.4059H57.3288L57.2842 31.2829H57.5681C57.7433 32.3381 58.3123 34.2 60.609 34.2C61.8112 34.2 62.7306 33.4552 62.7306 32.2762C62.7306 30.6416 61.4185 30.6214 60.2587 30.4976C58.8378 30.3525 57.4593 30.1669 57.4593 28.0148C57.4593 26.5264 58.4875 25.3463 60.1934 25.3463ZM153.574 25.3463C155.766 25.3463 156.381 26.4487 156.381 27.6525V33.8366H158V34.1629H153.042V33.8366H154.66V27.1631C154.66 26.0415 154.107 25.6736 153.451 25.6736C151.73 25.6736 150.85 27.3881 150.481 28.0811V33.8366H152.038V34.1629H147.143V33.8366H148.76V26.1225H147.143V25.7962H148.76C149.744 25.7962 150.113 25.7963 150.481 25.3463V27.4286H150.522C151.055 26.4499 152.08 25.3474 153.575 25.3474L153.574 25.3463ZM76.0117 19.8383V20.1645H73.9509V26.8391L77.807 23.1345C78.4401 22.5247 79.9904 20.9981 79.9904 20.5909C79.9904 20.3265 79.8072 20.1634 79.1546 20.1634H78.0108V19.8371H83.3576V20.1634H82.6638C81.4593 20.1634 80.3979 21.1815 79.7671 21.7721L75.7461 25.6174L81.6425 33.1267C82.0318 33.5947 82.1737 33.8389 82.7451 33.8389H83.8671V34.1651H77.5414V33.8389H79.4397L74.2165 27.1035L73.952 27.306V33.8389H76.0129V34.1651H70.0135V33.8389H71.8705V20.1623H70.0146V19.836H76.0117V19.8383ZM11.6886 19.8383L11.9805 23.2976H11.6256C11.542 20.916 10.1601 20.1634 7.85878 20.1634H4.03816V26.7165H5.85401C8.03052 26.7165 8.48735 25.434 8.48735 24.111H8.82167V29.5245H8.48735C8.48735 27.9776 8.03052 27.0416 5.83341 27.0416H4.03816V33.8389H6.25245V34.1651H0V33.8389H1.90401V20.1623H0V19.836H11.6886V19.8383ZM18.0475 25.3485C18.8444 25.3485 19.4695 25.8379 19.4695 26.5522C19.4695 27.0833 19.1249 27.5107 18.478 27.5107C17.7681 27.5107 17.53 27.1642 17.53 26.613C17.53 26.1641 17.767 25.8592 18.004 25.7355C17.9181 25.6747 17.8105 25.6748 17.7029 25.6748C16.819 25.6748 15.2252 27.0011 15.2252 29.6539V33.8389H17.1854V34.1651H11.6061V33.8389H13.4151V26.1225H11.6061V25.7962H13.4151C14.1055 25.7962 14.7948 25.7558 15.2252 25.3463V27.7549H15.2688C15.5275 26.8369 16.2809 25.3485 18.0475 25.3485ZM122.834 19.1036V33.6004H124.304V33.9232H121.044V32.4518H121.001C120.681 33.1369 119.679 34.164 118.21 34.164C115.546 34.164 113.82 32.0479 113.82 29.6887C113.82 27.7132 115.503 25.2124 118.06 25.2124C119.595 25.2124 120.618 26.3216 121.001 27.2689H121.044V19.9294H119.339V19.6076H121.044C121.725 19.6076 122.406 19.5671 122.834 19.1036ZM101.166 25.3463C101.963 25.3463 102.588 25.8368 102.588 26.55C102.588 27.0821 102.243 27.5096 101.596 27.5096C100.886 27.5096 100.649 27.1631 100.649 26.6119C100.649 26.163 100.885 25.8581 101.122 25.7344C101.036 25.6736 100.928 25.6736 100.821 25.6736C99.9373 25.6736 98.3435 27 98.3435 29.6528V33.8377H100.305V34.164H94.7256V33.8377H96.5346V26.1225H94.7256V25.7962H96.5346C97.2238 25.7962 97.913 25.7558 98.3435 25.3463V27.7549H98.3871C98.6458 26.8369 99.3992 25.3463 101.166 25.3463ZM36.7602 25.3463C38.9516 25.3463 39.5664 26.4487 39.5664 27.6525V33.8366H41.1853V34.1629H36.2278V33.8366H37.8456V27.1631C37.8456 26.0415 37.2926 25.6736 36.6365 25.6736C34.9157 25.6736 34.0353 27.3881 33.6666 28.0811V33.8366H35.2237V34.1629H30.3268V33.8366H31.9458V26.1225H30.3268V25.7962H31.9458C32.9293 25.7962 33.2968 25.7963 33.6666 25.3463V27.4286H33.7067C34.2402 26.4499 35.2638 25.3463 36.7602 25.3463ZM142.843 29.7529H142.502C141.038 29.7529 139.213 29.7945 139.213 32.0074C139.213 33.1661 139.394 34.0335 140.677 34.0335C142.182 34.0335 142.843 32.8759 142.843 32.463V29.7529ZM26.0276 29.7529H25.6876C24.2221 29.7529 22.3971 29.7945 22.3971 32.0074C22.3971 33.1661 22.578 34.0335 23.8626 34.0335C25.3659 34.0335 26.0276 32.8759 26.0276 32.463V29.7529ZM118.06 25.5341C116.185 25.5341 115.866 26.9246 115.866 29.6876C115.866 32.6914 116.122 33.8411 118.21 33.8411C119.659 33.8411 121.065 32.6914 121.044 31.0174V28.6594C121.044 27.1868 119.829 25.5341 118.06 25.5341ZM54.565 25.1786V33.4766H56.161V33.7961H51.2939V33.4766H52.8899V25.9369H51.2928V25.6174H52.8888C53.5265 25.6174 54.1665 25.578 54.565 25.1786ZM105.892 19.1025V30.2378L109.137 27.1586C109.583 26.739 109.847 26.379 109.847 26.2395C109.847 26.019 109.563 25.9189 108.934 25.9189H108.245V25.5994H112.523V25.9189H111.814C111.124 25.9189 110.8 26.0798 110.11 26.7188L107.86 28.818L111.043 32.7161C111.49 33.2561 111.651 33.4766 112.037 33.4766H113.071V33.7961H107.982V33.4766H109.441L106.602 30.0173L105.892 30.6776V33.4766H107.312V33.7961H102.588V33.4766H104.188V19.9215H102.586V19.602H104.188C104.838 19.602 105.486 19.5615 105.892 19.1025ZM134.314 25.1786V33.4766H135.91V33.7961H131.043V33.4766H132.639V25.9369H131.043V25.6174H132.639C133.278 25.6174 133.915 25.578 134.314 25.1786ZM133.477 20.5717C134.034 20.5717 134.493 21.0296 134.493 21.5888C134.493 22.1468 134.036 22.6057 133.477 22.6057C132.918 22.6057 132.459 22.1468 132.459 21.5888C132.459 21.0296 132.918 20.5717 133.477 20.5717ZM53.728 20.5717C54.2867 20.5717 54.7447 21.0296 54.7447 21.5888C54.7447 22.1468 54.2867 22.6057 53.728 22.6057C53.1693 22.6057 52.7102 22.1468 52.7102 21.5888C52.7102 21.0296 53.1693 20.5717 53.728 20.5717ZM127.776 20.5717C128.336 20.5717 128.795 21.0296 128.795 21.5888C128.795 22.1468 128.336 22.6057 127.776 22.6057C127.216 22.6057 126.757 22.1468 126.757 21.5888C126.757 21.0296 127.216 20.5717 127.776 20.5717ZM21.7628 5.14125C23.2867 5.14125 25.0922 5.949 25.0922 7.54087V12.96C25.0922 13.3538 25.1518 13.8713 25.6933 13.8713C26.1547 13.8713 26.4352 13.4775 26.7363 13.0433L26.9573 13.2086C26.5761 13.8915 26.0551 14.3258 25.1918 14.3258C24.2496 14.3258 23.5672 13.7677 23.4275 13.0433H23.3874C22.7051 13.9747 21.8029 14.3258 20.4793 14.3258C18.9142 14.3258 17.9719 13.5191 17.9719 12.1129C17.9719 9.79537 20.9602 9.21712 23.0256 9.21712H23.4069V6.6735C23.4069 5.7015 22.5253 5.47425 21.7628 5.47425C21.1812 5.47425 19.8164 5.7015 19.8164 6.44625C19.8164 6.94238 20.4793 6.71513 20.4793 7.6455C20.4793 8.14163 20.0786 8.51512 19.5565 8.51512C18.9955 8.51512 18.6738 8.0595 18.6738 7.35638C18.6738 6.30113 19.7569 5.14125 21.7628 5.14125ZM37.1838 5.14125C38.2944 5.14125 39.0569 5.86575 39.263 5.86575C39.3867 5.86575 39.4073 5.72175 39.4073 5.4315V5.26613H39.6958L39.7771 7.72762H39.5103C39.366 6.54862 38.7478 5.47312 37.122 5.47312C36.0721 5.47312 35.2283 6.05137 35.2283 7.12687C35.2283 8.2035 36.0297 8.57475 37.3899 8.658L38.0883 8.69963C39.7565 8.80312 40.4354 9.71212 40.4354 11.1409C40.4354 13.0646 39.16 14.3246 37.5742 14.3246C35.9484 14.3246 35.455 13.4359 35.0428 13.4359C34.7749 13.4359 34.8367 13.7677 34.7955 14.2009H34.4864L34.4451 11.0779H34.7131C34.8779 12.1331 35.4126 13.995 37.5754 13.995C38.7066 13.995 39.5721 13.2502 39.5721 12.0712C39.5721 10.4366 38.3356 10.4164 37.2456 10.2926C35.9061 10.1464 34.61 9.96075 34.61 7.80975C34.61 6.32137 35.5775 5.14125 37.1838 5.14125ZM46.4268 5.14125C49.1609 5.14125 50.9195 7.35525 50.9195 9.7335C50.9195 12.1118 49.1609 14.3258 46.4268 14.3258C43.6927 14.3258 41.9341 12.1118 41.9341 9.7335C41.9341 7.35525 43.6927 5.14125 46.4268 5.14125ZM46.4268 5.47312C44.1289 5.47312 43.9767 7.02225 43.9687 8.75362V10.5413C43.9687 12.3401 44.0522 13.995 46.4268 13.995C48.8002 13.995 48.885 12.3401 48.885 10.5413V8.928C48.885 7.128 48.8002 5.47425 46.4268 5.47425V5.47312ZM3.88932 0L8.12097 10.5491L12.2713 0H16.1V0.31725H14.3265V13.6418H16.1V13.959H10.3776V13.6418H12.2713V1.06988H12.2313L7.3138 13.6418H7.1329L2.13529 1.30838H2.09522V11.9959C2.09522 13.3054 2.27726 13.6418 3.34548 13.6418H4.15151V13.959H0V13.6418H0.524377C1.59145 13.6418 1.77235 13.3042 1.77235 11.9959V0.31725H0V0H3.88932ZM30.9783 5.34375V13.6406H32.5732V13.959H27.7072V13.6406H29.3021V6.102H27.7061V5.7825H29.3021C29.9399 5.7825 30.5787 5.74312 30.9783 5.34375ZM58.2539 5.14237C60.3697 5.14237 60.9628 6.24487 60.9628 7.44862V13.6327H62.5256V13.959H57.7398V13.6327H59.3015V6.95925C59.3015 5.8365 58.768 5.46975 58.1337 5.46975C56.4735 5.46975 55.6229 7.18313 55.2668 7.87725V13.6327H56.7701V13.959H52.0427V13.6327H53.6055V5.91863H52.0427V5.59238H53.6055C54.5558 5.59238 54.9107 5.59238 55.2668 5.14237V7.22363H55.3057C55.8209 6.24487 56.809 5.14237 58.2539 5.14237ZM23.4069 9.549H23.0657C21.6025 9.549 19.7763 9.59062 19.7763 11.8035C19.7763 12.9622 19.9572 13.8296 21.2418 13.8296C22.7451 13.8296 23.4069 12.672 23.4069 12.2591V9.549ZM30.1391 0.734625C30.6978 0.734625 31.1581 1.19363 31.1581 1.75163C31.1581 2.30963 30.6978 2.76975 30.1391 2.76975C29.5815 2.76975 29.1224 2.30963 29.1224 1.75163C29.1224 1.19363 29.5803 0.734625 30.1402 0.734625H30.1391Z" fill="#1B1B1B"/>
</svg>
