<svg width="69" height="21" viewBox="0 0 69 21" fill="none" xmlns="http://www.w3.org/2000/svg">
<path fill-rule="evenodd" clip-rule="evenodd" d="M39.4338 5.19934H36.8155V15.6665H39.4338V5.19934Z" fill="black"/>
<path fill-rule="evenodd" clip-rule="evenodd" d="M39.5012 2.04846C39.502 2.35056 39.4218 2.64611 39.2707 2.89765C39.1197 3.14919 38.9046 3.34539 38.6527 3.4614C38.4009 3.5774 38.1236 3.60797 37.856 3.54925C37.5885 3.49052 37.3427 3.34513 37.1498 3.13152C36.957 2.9179 36.8257 2.64567 36.7727 2.34934C36.7196 2.05301 36.7472 1.74592 36.852 1.46698C36.9567 1.18805 37.1339 0.949826 37.361 0.782524C37.5881 0.615222 37.8549 0.526373 38.1277 0.527228C38.4917 0.528368 38.8404 0.68901 39.0978 0.974052C39.3552 1.25909 39.5002 1.64536 39.5012 2.04846Z" fill="black"/>
<path fill-rule="evenodd" clip-rule="evenodd" d="M58.6725 5.19934H56.0542V15.6665H58.6725V5.19934Z" fill="black"/>
<path fill-rule="evenodd" clip-rule="evenodd" d="M58.7359 2.04846C58.7367 2.35056 58.6565 2.64611 58.5054 2.89765C58.3544 3.14919 58.1393 3.34539 57.8874 3.4614C57.6356 3.5774 57.3583 3.60797 57.0908 3.54925C56.8232 3.49052 56.5774 3.34513 56.3846 3.13152C56.1917 2.9179 56.0604 2.64567 56.0074 2.34934C55.9544 2.05301 55.982 1.74592 56.0867 1.46698C56.1914 1.18805 56.3686 0.949826 56.5957 0.782524C56.8228 0.615222 57.0897 0.526373 57.3624 0.527228C57.7264 0.528368 58.0752 0.68901 58.3325 0.974052C58.5899 1.25909 58.7349 1.64536 58.7359 2.04846Z" fill="black"/>
<path fill-rule="evenodd" clip-rule="evenodd" d="M13.5284 9.43455C13.5284 6.62544 11.7217 4.3479 9.49758 4.3479C8.98296 4.35443 8.47503 4.47784 8.0052 4.71051C7.53538 4.94319 7.11366 5.28017 6.76615 5.7006C6.41819 5.28077 5.99639 4.94421 5.52666 4.71158C5.05694 4.47896 4.54922 4.35519 4.03471 4.3479C1.80665 4.3479 0 6.62544 0 9.43455V15.6621H2.59486V9.46048C2.59486 8.16396 3.2387 7.29962 4.03471 7.29962C4.83073 7.29962 5.47066 8.13803 5.47066 9.46048V15.6621H8.06553V9.46048C8.06553 8.16396 8.70937 7.29962 9.50538 7.29962C10.3014 7.29962 10.9413 8.13803 10.9413 9.46048V15.6621H13.5362V9.46048V9.43455H13.5284Z" fill="black"/>
<path fill-rule="evenodd" clip-rule="evenodd" d="M54.6243 9.43455C54.6243 6.62544 52.8215 4.3479 50.5935 4.3479C50.0789 4.35443 49.5709 4.47784 49.1011 4.71051C48.6313 4.94319 48.2096 5.28017 47.862 5.7006C47.5142 5.28057 47.0925 4.94387 46.6227 4.71123C46.153 4.47859 45.6452 4.35494 45.1306 4.3479C42.9025 4.3479 41.0998 6.62544 41.0998 9.43455V15.6621H43.6908V9.46048C43.6908 8.16396 44.3346 7.29962 45.1306 7.29962C45.9266 7.29962 46.5666 8.13803 46.5666 9.46048V15.6621H49.1614V9.46048C49.1614 8.16396 49.8053 7.29962 50.6013 7.29962C51.3973 7.29962 52.0372 8.13803 52.0372 9.46048V15.6621H54.6321V9.46048V9.43455H54.6243Z" fill="black"/>
<path fill-rule="evenodd" clip-rule="evenodd" d="M19.46 4.3479C18.7682 4.3479 18.0832 4.49881 17.4441 4.79201C16.805 5.08521 16.2243 5.51496 15.7351 6.05672C15.2459 6.59849 14.8579 7.24166 14.5932 7.94951C14.3285 8.65737 14.1922 9.41604 14.1922 10.1822C14.1922 10.9484 14.3285 11.7071 14.5932 12.4149C14.8579 13.1228 15.2459 13.7659 15.7351 14.3077C16.2243 14.8494 16.805 15.2792 17.4441 15.5724C18.0832 15.8656 18.7682 16.0165 19.46 16.0165C20.0205 16.0163 20.5774 15.9186 21.1105 15.727V12.4814C20.6411 12.8955 20.0586 13.1208 19.4584 13.1204C18.8582 13.12 18.2759 12.8939 17.8069 12.4792C17.3379 12.0644 17.0099 11.4856 16.8766 10.8375C16.7434 10.1894 16.8127 9.51032 17.0734 8.91156C17.334 8.31279 17.7705 7.82978 18.3113 7.5416C18.8521 7.25341 19.4653 7.17714 20.0504 7.32526C20.6355 7.47338 21.1578 7.83712 21.5319 8.35693C21.9059 8.87674 22.1096 9.52182 22.1095 10.1865V15.6708H24.7238V10.1779C24.7238 9.41228 24.5877 8.65418 24.3232 7.94685C24.0586 7.23952 23.6709 6.59683 23.1821 6.05547C22.6933 5.5141 22.113 5.08466 21.4744 4.79168C20.8357 4.49869 20.1512 4.3479 19.46 4.3479Z" fill="black"/>
<path fill-rule="evenodd" clip-rule="evenodd" d="M68.5706 7.68845V4.93983C67.774 4.93388 66.9862 5.12476 66.2646 5.49856C65.543 5.87237 64.9058 6.41969 64.3993 7.10069C63.8928 6.41969 63.2555 5.87237 62.5339 5.49856C61.8123 5.12476 61.0246 4.93388 60.228 4.93983V7.68845C60.5666 7.67367 60.9044 7.73477 61.2211 7.86809C61.5379 8.00141 61.8271 8.20419 62.0713 8.46429C62.3156 8.72439 62.5099 9.03644 62.6427 9.38174C62.7754 9.72704 62.8439 10.0985 62.8439 10.4738C62.8439 10.8491 62.7754 11.2205 62.6427 11.5658C62.5099 11.9111 62.3156 12.2232 62.0713 12.4833C61.8271 12.7434 61.5379 12.9462 61.2211 13.0795C60.9044 13.2128 60.5666 13.2739 60.228 13.2591V16.0077C61.0246 16.0137 61.8123 15.8228 62.5339 15.449C63.2555 15.0752 63.8928 14.5279 64.3993 13.8469C64.9058 14.5279 65.543 15.0752 66.2646 15.449C66.9862 15.8228 67.774 16.0137 68.5706 16.0077V13.2591C68.232 13.2739 67.8942 13.2128 67.5774 13.0795C67.2607 12.9462 66.9715 12.7434 66.7272 12.4833C66.4829 12.2232 66.2886 11.9111 66.1558 11.5658C66.0231 11.2205 65.9547 10.8491 65.9547 10.4738C65.9547 10.0985 66.0231 9.72704 66.1558 9.38174C66.2886 9.03644 66.4829 8.72439 66.7272 8.46429C66.9715 8.20419 67.2607 8.00141 67.5774 7.86809C67.8942 7.73477 68.232 7.67367 68.5706 7.68845Z" fill="black"/>
<path fill-rule="evenodd" clip-rule="evenodd" d="M30.7176 4.3479C29.3205 4.3479 27.9807 4.96259 26.9928 6.05673C26.0049 7.15088 25.4499 8.63485 25.4499 10.1822C25.4499 11.7296 26.0049 13.2135 26.9928 14.3077C27.9807 15.4018 29.3205 16.0165 30.7176 16.0165C31.2781 16.0163 31.8351 15.9186 32.3682 15.727V12.4814C31.8986 12.8933 31.3167 13.1166 30.7177 13.1147C30.1186 13.1127 29.5379 12.8857 29.0706 12.4706C28.6032 12.0556 28.2768 11.4772 28.1448 10.8301C28.0129 10.1829 28.0831 9.50526 28.3441 8.90806C28.6051 8.31086 29.0413 7.82944 29.5815 7.54255C30.1216 7.25566 30.7337 7.18028 31.3175 7.32877C31.9014 7.47726 32.4224 7.8408 32.7955 8.35994C33.1685 8.87907 33.3714 9.52306 33.371 10.1865V14.9404C33.371 15.3261 33.3024 15.7081 33.169 16.0644C33.0356 16.4207 32.8401 16.7444 32.5936 17.0169C32.3472 17.2894 32.0546 17.5055 31.7327 17.6527C31.4108 17.7999 31.0659 17.8754 30.7176 17.8748C29.4212 17.902 28.1357 17.6067 26.9561 17.0105V19.9061C28.1359 20.5018 29.4212 20.7971 30.7176 20.7704C32.0008 20.7699 33.2398 20.2506 34.2018 19.31C35.1638 18.3695 35.7828 17.0723 35.9425 15.6621L35.9854 14.9404V10.1865C35.9854 9.42056 35.8491 8.66209 35.5843 7.95449C35.3196 7.24688 34.9315 6.604 34.4423 6.06258C33.9531 5.52116 33.3723 5.09182 32.7332 4.79909C32.0941 4.50636 31.4092 4.35597 30.7176 4.35654V4.3479Z" fill="black"/>
</svg>
