<svg width="74" height="19" viewBox="0 0 74 19" fill="none" xmlns="http://www.w3.org/2000/svg">
<path d="M58.5764 9.68985C58.5764 11.017 57.4566 12.0627 56.1294 12.0627C54.8022 12.0627 53.6824 11.017 53.6824 9.68985C53.6824 8.40286 54.8022 7.31698 56.1294 7.31698C57.4981 7.31698 58.5764 8.36265 58.5764 9.68985ZM8.80648 7.19632H7.23043V12.1834H8.80648C9.47008 12.1834 10.0922 11.741 10.2166 11.0975C10.3825 10.6551 10.4655 10.1725 10.4655 9.68985C10.4655 9.24745 10.3825 8.72461 10.2166 8.32243C10.0922 7.67894 9.47008 7.19632 8.80648 7.19632ZM28.2582 10.8562H29.6269V9.04635L28.2582 10.8562ZM73.1756 0.801636V18.4976L0.179688 18.4574V0.801636H73.1756ZM18.5116 14.3149V12.0627H15.6084V10.7757H18.2213V8.52352H15.6084V7.35719H18.5116V5.06476H12.954V8.24199C12.3733 6.51261 10.7143 5.22563 8.80648 5.06476H4.57603V14.3149H8.80648C10.6729 14.1541 12.3319 12.8671 12.9125 11.1377V14.3149H18.5116ZM32.0325 5.02454H29.3366L25.2306 10.9366C24.8158 11.5801 24.0693 11.9421 23.2812 11.9421C21.9955 11.9421 20.9586 10.9366 20.9586 9.68985C20.9586 8.44308 21.9955 7.43763 23.2812 7.43763C23.4057 7.43763 23.5716 7.39741 23.696 7.39741C24.567 7.39741 25.4794 7.75937 26.1015 8.36265L27.3043 6.55283C26.3504 5.58759 24.9402 4.98432 23.5301 4.98432C20.9172 4.98432 18.5116 7.11588 18.5116 9.64963C18.5116 12.1834 20.6683 14.2747 23.2812 14.2747C24.567 14.2747 25.8112 13.7519 26.7237 12.8671H29.544V14.2747H31.991V5.02454H32.0325ZM38.627 5.02454H32.4057V7.1561H34.3136V14.2747H36.7606V7.19632H38.6685V5.02454H38.627ZM46.7561 5.02454H44.309V8.4833H41.4058V5.02454H38.9588V14.2747H41.4058V10.6149H44.309V14.2747H46.7561V5.02454ZM68.7793 5.02454H66.3322V9.32788L62.9728 5.02454H60.7331V8.40286C60.194 6.43218 58.2446 5.02454 56.1294 5.02454C53.5165 5.02454 51.3598 7.11588 51.3598 9.64963C51.3598 10.454 51.6086 11.2986 52.0234 12.0225H49.6178V5.02454H47.1293V14.2747H52.8114V12.9877C53.7239 13.7921 54.9266 14.2747 56.1709 14.2747C58.3276 14.2747 60.194 12.8671 60.7746 10.8964V14.2747H63.2216V9.8105L66.5811 14.3149H68.8207L68.7793 5.02454Z" fill="black"/>
</svg>
