<svg width="35" height="29" viewBox="0 0 35 29" fill="none" xmlns="http://www.w3.org/2000/svg">
<path d="M30.9394 25.9389L31.7616 23.9043L32.5822 25.9389H30.9394ZM32.615 22.7492H30.9076L28.5216 28.2654H30.0004L30.5439 26.9194H32.9782L33.5217 28.2654H35L32.615 22.7492ZM20.5729 27.3062C19.6093 27.3062 18.8297 26.4862 18.8297 25.4737C18.8297 24.4613 19.6093 23.6408 20.5729 23.6408C21.5349 23.6408 22.3156 24.4613 22.3156 25.4737C22.3156 26.4862 21.5344 27.3062 20.5729 27.3062ZM20.5729 22.5597C19.7639 22.5736 18.9931 22.8867 18.4262 23.4316C17.8594 23.9764 17.5418 24.7096 17.5418 25.4732C17.5418 26.2369 17.8594 26.97 18.4262 27.5149C18.9931 28.0598 19.7639 28.3729 20.5729 28.3868C20.983 28.3939 21.3905 28.3237 21.7715 28.1804C22.1526 28.0372 22.4996 27.8237 22.7922 27.5525C23.0849 27.2812 23.3174 26.9576 23.4761 26.6006C23.6348 26.2437 23.7165 25.8604 23.7165 25.4732C23.7165 25.0861 23.6348 24.7028 23.4761 24.3458C23.3174 23.9888 23.0849 23.6653 22.7922 23.394C22.4996 23.1228 22.1526 22.9093 21.7715 22.766C21.3905 22.6228 20.983 22.5526 20.5729 22.5597ZM8.38839 27.3062C7.42638 27.3062 6.64621 26.4862 6.64621 25.4737C6.64621 24.4613 7.42638 23.6408 8.38839 23.6408C9.35143 23.6408 10.1316 24.4613 10.1316 25.4737C10.1321 26.4862 9.35143 27.3062 8.38839 27.3062ZM8.38839 22.5597C7.983 22.5597 7.58158 22.6351 7.20707 22.7815C6.83255 22.928 6.49227 23.1426 6.20566 23.4132C5.91905 23.6839 5.69174 24.0051 5.5367 24.3586C5.38165 24.7122 5.30192 25.0911 5.30205 25.4737C5.30216 26.05 5.4833 26.6133 5.82257 27.0923C6.16184 27.5714 6.64401 27.9448 7.20809 28.1652C7.77218 28.3856 8.39285 28.4432 8.99162 28.3307C9.59039 28.2182 10.1404 27.9406 10.572 27.5331C11.0036 27.1256 11.2975 26.6064 11.4165 26.0412C11.5355 25.476 11.4743 24.8902 11.2406 24.3578C11.0069 23.8255 10.6111 23.3705 10.1034 23.0504C9.59576 22.7304 8.99891 22.5596 8.38839 22.5597ZM16.0205 22.7492L14.5078 24.981L12.9936 22.7492H11.5142L13.8562 26.2086V28.2654H15.1589V26.2086L17.5009 22.7487L16.0205 22.7492ZM28.833 22.7492H23.8354V23.8071H25.6867V28.2659H26.9904V23.8071H28.8335L28.833 22.7492ZM0.0314636 23.8066H1.88326V28.2654H3.18644V23.8066H5.03005V22.7492H0.0319756L0.0314636 23.8066Z" fill="black"/>
<path d="M23.9753 1.83166C22.1769 1.25297 19.94 0.911987 17.5149 0.911987C15.0897 0.911987 12.8514 1.25297 11.0545 1.83166C6.27214 3.36965 2.98676 6.56164 2.98676 10.2517C2.98676 15.4415 9.49102 19.6508 17.5163 19.6508C25.5387 19.6508 32.043 15.4415 32.043 10.2517C32.043 6.56164 28.7562 3.36965 23.9753 1.83166ZM17.5149 15.6084C16.3179 15.6084 15.3388 13.2541 15.2822 10.2955C16.7676 10.4296 18.2621 10.4296 19.7476 10.2955C19.6896 13.2555 18.7119 15.6084 17.5149 15.6084ZM15.4336 7.98077C15.7604 5.90371 16.5683 4.43364 17.5149 4.43364C18.46 4.43364 19.2693 5.90513 19.5948 7.98077C18.2106 8.10709 16.8178 8.10709 15.4336 7.98077ZM20.8682 7.82372C20.3829 4.56381 19.0642 2.22783 17.5149 2.22783C15.9656 2.22783 14.6469 4.56381 14.1616 7.82372C11.2101 7.36246 9.1472 6.31403 9.1472 5.09298C9.1472 3.44747 12.8938 2.11323 17.5149 2.11323C22.1359 2.11323 25.8825 3.44747 25.8825 5.09298C25.8825 6.31403 23.8196 7.36246 20.8682 7.82372ZM5.10626 9.90643C5.10626 8.31468 5.71891 6.82481 6.78716 5.5415C6.77465 5.63056 6.7685 5.7204 6.76876 5.81033C6.76876 7.8124 9.77541 9.5131 13.9677 10.1385C13.9649 10.2899 13.9621 10.4413 13.9621 10.5941C13.9621 14.3152 14.9949 17.4676 16.4212 18.5542C10.0796 18.168 5.10626 14.4454 5.10626 9.90643ZM18.6086 18.5557C20.0348 17.469 21.0677 14.3166 21.0677 10.5955C21.0677 10.4427 21.0663 10.2913 21.062 10.1399C25.2529 9.51451 28.2596 7.8124 28.2596 5.81175C28.2596 5.72119 28.2525 5.63206 28.2398 5.54292C29.308 6.82622 29.9207 8.31752 29.9207 9.90785C29.9221 14.4454 24.9487 18.168 18.6086 18.5557Z" fill="black"/>
</svg>
