<svg width="153" height="38" viewBox="0 0 153 38" fill="none" xmlns="http://www.w3.org/2000/svg">
<path d="M5.93422 29.9621L7.69152 24.2608H14.651L16.2989 29.9621H22.745L16.3354 8.21717C15.9693 6.94085 15.1628 6.3387 13.7715 6.3387H4.65389V8.39337H5.42241C6.37474 8.39337 6.88814 8.74884 6.88814 9.45518C6.88814 9.91637 6.77722 10.3056 6.41118 11.3689L0 29.9621H5.93422ZM13.7715 20.3997H8.6074L11.3535 11.7213L13.7715 20.3997ZM30.1718 29.9621V8.14515C30.1718 7.01286 29.4778 6.3387 28.3401 6.3387H22.7006V8.39337H23.0666C24.019 8.39337 24.4214 8.78255 24.4214 9.7034V29.9606L30.1718 29.9621ZM39.9407 29.9621V8.14515C39.9407 7.01286 39.2435 6.3387 38.1121 6.3387H32.4695V8.39337H32.8355C33.7878 8.39337 34.1903 8.78255 34.1903 9.7034V29.9606L39.9407 29.9621ZM49.8586 29.9621V14.0579C49.8586 12.9271 49.163 12.2545 48.0284 12.2545H42.4602V14.2724H42.7914C43.7437 14.2724 44.1462 14.6968 44.1462 15.6177V29.9606L49.8586 29.9621ZM49.9679 8.49909C49.9679 6.90561 48.7605 5.94952 46.672 5.94952C44.62 5.94952 43.3761 6.90561 43.3761 8.49909C43.3761 10.0926 44.62 11.0502 46.672 11.0502C48.7605 11.0502 49.9679 10.0926 49.9679 8.49909ZM54.7201 17.3169C56.6247 16.4328 58.7132 15.9379 60.3611 15.9379C61.8982 15.9379 62.448 16.4696 62.448 18.0248V18.4155C60.1044 18.7679 59.3724 18.9119 58.054 19.1954C57.3155 19.3605 56.5925 19.585 55.8926 19.8665C53.5855 20.7521 52.4858 22.488 52.4858 25.1418C52.4858 28.505 53.988 30.1368 57.1017 30.1368C58.2362 30.1368 59.263 29.9269 60.1773 29.5714C60.9839 29.219 61.4592 28.934 62.6318 28.0484V28.2966C62.6318 29.3952 63.2181 29.9606 64.3527 29.9606H69.5897V28.0484H69.3346C68.3442 28.0484 67.9782 27.624 67.9782 26.4886V18.0615C67.9782 13.563 66.3667 12.0048 61.7143 12.0048C60.2153 12.0048 58.7512 12.181 57.3203 12.4997C55.8926 12.8184 55.159 13.1018 53.4381 13.9185L54.7201 17.3169ZM62.448 21.463V24.8982C61.4957 25.8527 60.3247 26.4212 59.3343 26.4212C58.3107 26.4212 57.9447 25.9248 57.9447 24.6132C57.9447 23.3016 58.2362 22.701 59.263 22.3118C60.0315 21.9931 61.0203 21.7112 62.448 21.463ZM77.9324 29.9621V17.9926C78.8848 16.966 79.8736 16.5048 81.0081 16.5048C82.2171 16.5048 82.5087 16.966 82.5087 18.7388V29.9636H88.2211V17.9236C88.2211 15.1258 88.0024 14.2418 87.0849 13.2841C86.3164 12.469 85.1454 12.0415 83.6417 12.0415C81.4106 12.0415 79.8339 12.7157 77.709 14.6279V13.92C77.709 12.8199 77.1259 12.2545 75.9501 12.2545H70.5309V14.2724H70.8605C71.8144 14.2724 72.2169 14.6968 72.2169 15.6177V29.9606L77.9324 29.9621ZM105.176 26.2419H97.1898L104.81 15.9027V12.2545H92.8702C91.5122 12.2545 90.8927 12.8551 90.8927 14.1667V17.3874H93.0176V17.0702C93.0176 16.2566 93.4565 15.8659 94.3708 15.8659H98.4749L90.7833 26.3139V29.9621H105.179V26.2419H105.176ZM153 18.9824C153 8.10991 144.611 0 133.364 0C122.121 0 113.696 8.10991 113.696 18.9824C113.696 29.8901 122.121 38 133.364 38C144.611 38 153 29.8901 153 18.9824ZM149.116 18.9824C149.116 27.9427 142.448 34.4606 133.364 34.4606C124.245 34.4606 117.616 27.9427 117.616 18.9824C117.616 10.0589 124.246 3.54244 133.364 3.54244C142.448 3.54244 149.116 10.0589 149.116 18.9824ZM128.274 29.0045V11.8286H125.086C123.511 11.8286 122.887 12.4307 122.887 13.9537V29.0029L128.274 29.0045ZM138.454 29.0045H143.803V13.9537C143.803 12.4307 143.217 11.8286 141.604 11.8286H138.454V29.0045ZM136.039 29.0045V9.06754C136.039 7.47252 135.489 6.94085 133.839 6.94085H129.043V9.13649H129.336L129.849 9.17019C130.033 9.17019 130.214 9.27745 130.363 9.41994C130.583 9.66663 130.654 9.91484 130.654 10.4465V29.0045H136.039Z" fill="#1B1B1B"/>
</svg>
