<svg width="62" height="21" viewBox="0 0 62 21" fill="none" xmlns="http://www.w3.org/2000/svg">
<path d="M9.75261 0.327026C9.89969 0.390816 9.99284 0.522951 10.1105 0.627748C10.3017 0.782665 10.4439 0.987702 10.6302 1.14718C10.8607 1.35221 11.0077 1.61193 11.199 1.8443C11.5323 2.31361 11.8265 2.81481 11.9785 3.36158C12.1354 3.7352 12.1599 4.14072 12.1501 4.54168C12.1599 4.90619 12.052 5.26615 11.8755 5.59421C11.5716 6.09085 11.0225 6.42347 10.4488 6.60117C9.733 6.76064 8.94366 6.78798 8.25238 6.50548C8.0023 6.3779 7.71799 6.29133 7.51698 6.09085C7.05122 5.73545 6.78157 5.15679 6.86982 4.59636C7.0071 3.59851 7.64935 2.74191 8.33573 2.00378C8.39946 2.11313 8.34549 2.24071 8.38966 2.35462C8.44849 2.59611 8.54164 2.85126 8.73775 3.0244C8.97798 2.81937 9.23297 2.61433 9.43889 2.3774C9.62519 2.12224 9.77712 1.83975 9.84086 1.53902C9.85561 1.15629 9.89484 0.755326 9.7379 0.390815L9.75261 0.327026ZM0.770865 4.87885C1.9181 4.88797 3.07023 4.86974 4.21751 4.88797C4.21751 5.9496 4.22727 7.01124 4.21256 8.07288C5.02646 8.08655 5.84026 8.07743 6.65901 8.07743C6.66881 8.15945 6.67371 8.24146 6.67371 8.32348C6.66391 9.1983 6.67862 10.0686 6.66391 10.9434C5.84516 10.9525 5.03131 10.9434 4.21256 10.948C4.22727 12.5199 4.20766 14.0873 4.22236 15.6593C4.25178 15.7959 4.27139 15.9326 4.26649 16.0739C4.25173 16.2015 4.33508 16.3063 4.36454 16.4247C4.42828 16.6981 4.59007 16.9442 4.77632 17.1584C5.05092 17.4135 5.40387 17.5912 5.78137 17.6686C6.12456 17.7188 6.46775 17.7461 6.81589 17.7233C6.83545 17.778 6.84531 17.8326 6.84531 17.8919C6.84041 18.712 6.84041 19.5322 6.84531 20.3478C6.84531 20.4617 6.82079 20.5756 6.80118 20.6849C6.30601 20.6849 5.81089 20.7168 5.31567 20.6849C5.0215 20.6257 4.70778 20.653 4.42338 20.5345C3.63404 20.3614 2.87903 19.9969 2.31521 19.4456C1.48666 18.7029 1.04051 17.655 0.859113 16.6161C0.810086 16.5022 0.839502 16.3701 0.819843 16.247C0.751254 15.9964 0.780621 15.7321 0.770816 15.477C0.765962 11.9458 0.765962 8.41005 0.770865 4.87885ZM17.5185 7.83139C17.7243 7.78127 17.945 7.81772 18.1509 7.77671C18.5823 7.72659 19.0089 7.79038 19.4354 7.80405C19.7345 7.79949 20.0237 7.88151 20.3179 7.93619C21.4112 8.18223 22.4456 8.72444 23.1958 9.51725C23.3281 9.72229 23.5291 9.87265 23.6566 10.0822C23.9752 10.5515 24.1861 11.0755 24.3675 11.6041C24.4803 11.9914 24.5391 12.3923 24.593 12.7887C24.6175 13.6681 24.6028 14.5521 24.6077 15.4314C24.6028 17.1856 24.6126 18.9399 24.6028 20.6941C23.4556 20.6804 22.3133 20.6895 21.1709 20.6849C21.1611 20.6804 21.1366 20.6622 21.1268 20.653C21.1219 18.1972 21.1268 15.7413 21.1268 13.2899C21.1317 12.9892 21.0729 12.6976 21.0043 12.4106C20.8817 12.1189 20.7248 11.841 20.5091 11.6041C20.3816 11.4628 20.2051 11.3717 20.0629 11.2487C19.8423 11.112 19.5824 11.0482 19.3324 10.9844C19.2001 10.9753 19.0677 10.9844 18.9451 10.9434C18.4205 10.9115 17.8861 10.9525 17.3959 11.1393C17.0379 11.2988 16.7045 11.5175 16.4693 11.8228C16.0819 12.2511 15.9545 12.8343 15.9643 13.3811C15.9643 15.8142 15.9692 18.2518 15.9643 20.6849C14.8072 20.6941 13.6502 20.6804 12.4932 20.6941C12.4736 18.3475 12.4932 15.9964 12.4834 13.6499C12.4883 13.3491 12.4785 13.0484 12.503 12.7477C12.5667 12.5973 12.5225 12.4333 12.5716 12.2875C12.6598 11.7316 12.8853 11.2031 13.1354 10.6973C13.3805 10.2553 13.6747 9.83159 14.0571 9.48075C14.3562 9.19826 14.665 8.90209 15.0426 8.70617C15.7731 8.23235 16.636 7.9453 17.5185 7.83139ZM58.6031 7.80405C59.0296 7.79494 59.4513 7.71748 59.8778 7.78127C60.1082 7.80861 60.3436 7.80405 60.5739 7.81316C60.6181 8.20957 60.5837 8.61053 60.5935 9.00694V10.6017C60.5935 10.7019 60.6083 10.8067 60.5641 10.9024C60.4513 10.825 60.2994 10.8523 60.1719 10.8204C59.6522 10.7794 59.1178 10.8022 58.6276 10.9845C58.0441 11.1713 57.5342 11.5677 57.2499 12.0825C57.1665 12.1782 57.1665 12.3149 57.0734 12.406C56.9213 12.9164 56.9116 13.4495 56.9213 13.9734C56.9164 16.2152 56.9361 18.4524 56.9116 20.6941C55.7692 20.6804 54.622 20.6941 53.4747 20.685C53.4649 20.6759 53.4502 20.6577 53.4404 20.6485V13.3355C53.4257 13.0303 53.4992 12.7341 53.4944 12.4334C53.5728 12.2876 53.5532 12.119 53.6023 11.9686C53.8474 10.8159 54.4994 9.72689 55.4898 8.9842C55.6809 8.78372 55.9555 8.68803 56.1811 8.52856C56.9117 8.11388 57.7598 7.9134 58.6031 7.80405ZM7.78663 8.07288C8.94366 8.0911 10.1007 8.06832 11.2577 8.08199C11.2577 12.2511 11.2528 16.4156 11.2577 20.5801C11.2577 20.6212 11.2577 20.7032 11.1891 20.6895H7.79648C7.76702 20.0015 7.79153 19.3089 7.78172 18.6209C7.78663 15.1079 7.78172 11.5904 7.78663 8.07288ZM44.0911 16.5295C44.3853 16.4247 44.6696 16.288 44.9686 16.1924C45.4001 16.0375 45.8217 15.8507 46.2532 15.6958C47.1454 15.3131 48.0672 14.9941 48.9692 14.6341C49.1849 14.5248 49.4301 14.4746 49.6409 14.3562C49.8811 14.2696 50.1214 14.1921 50.3567 14.0919C50.5626 13.9779 50.798 13.9324 51.0088 13.8322C51.2882 13.7273 51.5579 13.6089 51.8422 13.5132C52.1315 13.3628 52.4551 13.29 52.7443 13.1441C52.8228 13.094 52.9502 13.1077 52.9992 13.0211C52.9159 12.9118 52.96 12.7751 52.9159 12.6566C52.8521 12.4425 52.7884 12.2329 52.7345 12.0233C52.5139 11.39 52.1952 10.784 51.7638 10.2554C51.2392 9.54919 50.5185 8.97964 49.7194 8.56046C49.1948 8.26429 48.6064 8.0957 48.0181 7.9499C47.6553 7.90889 47.3072 7.79043 46.9395 7.79498C46.6061 7.75398 46.263 7.73575 45.9345 7.79043C45.3511 7.79954 44.7921 7.93167 44.2381 8.08203C43.2723 8.39643 42.3555 8.87485 41.6152 9.53552C41.3946 9.72689 41.2132 9.95015 41.0024 10.1461C40.6739 10.5379 40.3748 10.9526 40.1493 11.3991C39.8306 12.0689 39.5266 12.7706 39.4923 13.5132C39.3845 13.8686 39.4188 14.2423 39.4139 14.6068C39.4041 14.8392 39.4433 15.067 39.4923 15.2902C39.4776 15.5271 39.5757 15.7459 39.61 15.9737C39.6933 16.4567 39.9238 16.9031 40.1346 17.3497C40.7131 18.4523 41.625 19.4092 42.7673 20.0334C43.5174 20.4617 44.3509 20.767 45.2236 20.8809C45.9345 20.9857 46.665 21.0039 47.3808 20.9174C47.6259 20.9355 47.8612 20.8353 48.1064 20.8216C49.1506 20.5938 50.1753 20.1837 50.9646 19.4957C51.2 19.3226 51.4207 19.1175 51.607 18.8988C51.9207 18.6026 52.1462 18.2427 52.3718 17.8873C52.5875 17.5091 52.764 17.1081 52.8915 16.6936C52.8229 16.6662 52.7444 16.6753 52.6758 16.6753C51.5286 16.6799 50.3862 16.6708 49.239 16.6753C49.1311 16.6753 49.1311 16.812 49.0624 16.8667C48.8663 17.131 48.6163 17.3542 48.3516 17.5638C47.9691 17.819 47.5181 17.9557 47.072 18.0787C46.9543 18.0924 46.8415 18.0878 46.7337 18.1289C46.4591 18.147 46.1797 18.138 45.9002 18.1334C45.5913 18.0787 45.2825 18.0149 44.9834 17.9238C44.5226 17.7051 44.0715 17.4545 43.7235 17.0991C43.6352 16.9989 43.493 16.9214 43.4636 16.7892C43.5421 16.7573 43.6156 16.7072 43.7038 16.6936C43.846 16.6708 43.9538 16.566 44.0911 16.5295ZM42.6791 14.224C42.6105 14.0645 42.6742 13.8777 42.6644 13.7091C42.7429 13.4767 42.7674 13.2307 42.8605 12.9983C43.0958 12.4834 43.3851 11.9777 43.8067 11.5721C44.0028 11.4218 44.1695 11.2395 44.395 11.1256C44.5617 11.0436 44.7235 10.9525 44.8951 10.8796C45.2138 10.793 45.5226 10.6563 45.8561 10.6563C46.16 10.588 46.4738 10.6245 46.7826 10.629C47.5916 10.7338 48.4055 11.0573 48.93 11.6541C48.984 11.7727 48.8026 11.7818 48.729 11.8273C48.4103 11.9914 48.0524 12.0733 47.7338 12.242C47.5916 12.2647 47.469 12.3468 47.3317 12.3878C46.3169 12.7978 45.2824 13.1578 44.2774 13.5861C43.7381 13.782 43.2037 13.9916 42.6791 14.224ZM39.0266 2.50498C37.9529 2.49586 36.8792 2.50498 35.8055 2.50042C35.7271 2.50953 35.634 2.47764 35.5702 2.53232C35.58 4.67382 35.5702 6.81987 35.5751 8.96137C35.5702 9.03883 35.5898 9.11629 35.5555 9.18919C35.4575 9.17552 35.4084 9.08895 35.3349 9.03883C34.8397 8.64243 34.2858 8.30525 33.668 8.10933C33.2512 7.95897 32.815 7.88151 32.3737 7.80861C31.8736 7.79949 31.3687 7.78582 30.8636 7.81316C30.8097 7.82683 30.7607 7.8405 30.7068 7.84506C29.5841 7.99086 28.5348 8.4784 27.672 9.14818C27.1916 9.56737 26.7111 10.0048 26.3728 10.5333C25.9757 11.0573 25.7207 11.6588 25.4756 12.2511C25.3629 12.6247 25.25 12.9938 25.201 13.3765C25.1079 13.9643 25.1471 14.5657 25.1569 15.1581C25.1814 15.313 25.2353 15.4588 25.2402 15.6137C25.3285 16.1149 25.4854 16.607 25.701 17.0763C25.8824 17.5274 26.1766 17.9374 26.4462 18.3475C26.6375 18.5753 26.8238 18.8123 27.0542 19.0128C27.3974 19.3271 27.7356 19.6689 28.167 19.8876C28.6769 20.2475 29.28 20.4617 29.8683 20.6713C30.084 20.7077 30.285 20.8216 30.5056 20.8262C30.6919 20.8399 30.8635 20.9219 31.0499 20.9127C31.1479 20.9036 31.2362 20.9674 31.3391 20.9583C31.8147 20.972 32.2951 20.972 32.7707 20.9583C32.8491 20.9583 32.9276 20.9264 33.0109 20.9218C33.3393 20.9264 33.6433 20.8079 33.962 20.7669C34.3787 20.6257 34.8249 20.5345 35.2122 20.325C35.7858 20.0789 36.3055 19.7327 36.7712 19.3408C37.3596 18.8669 37.8351 18.2746 38.1881 17.6276C38.3401 17.3405 38.5117 17.0626 38.6097 16.7527C38.7961 16.3244 38.8794 15.8688 38.9432 15.4177C39.051 15.0213 39.0167 14.6067 39.0265 14.1966C39.0266 10.3009 39.0266 6.40524 39.0266 2.50498ZM35.5408 14.8437C35.5114 15.3267 35.3153 15.7868 35.0849 16.2197C34.6975 16.8986 34.0455 17.418 33.3052 17.7461C33.1924 17.8008 33.0453 17.7962 32.9669 17.8964C32.8296 17.8964 32.6923 17.901 32.56 17.9466C32.1383 17.9557 31.702 17.9922 31.2902 17.8828C31.1137 17.8054 30.9176 17.7735 30.7411 17.6869C30.5204 17.573 30.2704 17.4955 30.089 17.3224C29.7458 17.0991 29.4811 16.7938 29.2408 16.4794C29.0496 16.1742 28.8584 15.8598 28.7702 15.5135C28.6721 15.3312 28.6819 15.1262 28.628 14.9348C28.6133 14.4473 28.5839 13.9461 28.7064 13.4722C28.7604 13.3219 28.7947 13.1624 28.8535 13.012C28.9957 12.7705 29.084 12.5017 29.2703 12.283C29.3683 12.0917 29.5399 11.9504 29.6772 11.7864C30.0449 11.3945 30.5499 11.1439 31.0597 10.948C31.2509 10.907 31.4372 10.8159 31.6383 10.8159C32.0452 10.7202 32.4668 10.7977 32.8689 10.866C33.3984 11.0437 33.923 11.2898 34.3348 11.6543C34.4868 11.7864 34.5995 11.9505 34.7515 12.0826C35.379 12.8662 35.6682 13.8732 35.5408 14.8437ZM58.5737 19.0902H59.8582C59.8631 19.1813 59.8631 19.2725 59.8582 19.3636C59.7111 19.3818 59.564 19.359 59.4219 19.3773C59.4023 19.7873 59.4219 20.1929 59.4121 20.6029C59.2797 20.5938 59.1473 20.5938 59.0199 20.5984C59.0051 20.2748 59.0101 19.9468 59.0149 19.6233C59.0149 19.5367 59.0345 19.4365 58.9512 19.3773C58.8237 19.3591 58.6963 19.3819 58.5688 19.3636C58.5638 19.2725 58.5638 19.1813 58.5737 19.0902ZM60.0935 19.0948C60.2749 19.0902 60.4563 19.0811 60.6378 19.1038C60.628 19.236 60.7456 19.3271 60.7799 19.4502C60.8289 19.605 60.9025 19.7509 60.9515 19.9058C60.9907 19.9741 61.0594 20.0334 61.0348 20.12C61.1329 19.7645 61.2849 19.4274 61.4369 19.0948C61.6085 19.0902 61.785 19.0857 61.9615 19.0948C61.9712 19.5823 61.9615 20.0789 61.9615 20.5665C61.8438 20.5756 61.7261 20.5756 61.6035 20.5665C61.6085 20.2248 61.6035 19.883 61.6133 19.5458C61.5692 19.5823 61.5251 19.6142 61.4907 19.6598C61.427 19.9696 61.2554 20.2521 61.1721 20.5619C61.074 20.5756 60.9809 20.5756 60.8829 20.5665C60.8534 20.3934 60.721 20.2521 60.721 20.0744C60.5887 19.924 60.5837 19.7099 60.4808 19.5413C60.4122 19.6644 60.4661 19.8101 60.4514 19.9423C60.4318 20.1564 60.4759 20.3752 60.4318 20.5893C60.3141 20.5893 60.1817 20.6258 60.0886 20.5483C60.1033 20.0653 60.0886 19.5823 60.0935 19.0948Z" fill="black" stroke="white" stroke-width="0.00530031"/>
</svg>
