<svg width="140" height="63" viewBox="0 0 140 63" fill="none" xmlns="http://www.w3.org/2000/svg">
<path fill-rule="evenodd" clip-rule="evenodd" d="M71.3299 3.23056C68.4773 6.76005 60.3408 18.1549 59.4136 19.6304C57.6284 22.4573 57.4707 23.8272 57.4181 24.74C57.3663 25.6359 57.3663 27.2512 58.8185 28.5684C61.2513 30.7455 64.6632 30.3938 67.6911 30.3938H92.6286C93.696 30.3938 94.0115 30.0773 94.589 29.3053C96.5837 26.2497 97.4767 22.9312 97.4767 19.9636C97.4767 13.6072 93.3647 5.60114 82.9515 1.98373L81.7781 3.66935C90.0381 7.60166 93.4515 12.7464 93.4515 19.9453C93.5041 21.877 92.9958 23.9663 91.7356 25.8981H67.4799C66.0278 25.8981 65.8175 24.2476 66.3424 23.3165C68.4219 19.6034 70.7426 16.0315 73.2896 12.6241C75.7399 9.34082 78.1544 6.26771 80.6924 3.05473C81.375 2.15957 80.9194 1.29878 79.5548 1.01824C76.7197 0.421203 73.7627 0 70.1749 0C50.2782 0 42.9973 11.4652 42.9973 19.9636C42.9973 29.1822 50.33 39.8753 70.2274 39.8753C81.2699 39.8753 88.4982 36.3099 92.6804 31.7278H88.4624C84.8044 35.1166 78.5216 37.5231 70.2274 37.5231C53.3746 37.5231 47.1627 28.0233 47.1627 19.8406C47.2846 12.5362 53.9521 2.45769 70.648 2.1244C71.2781 2.10682 71.7688 2.68628 71.3299 3.23056ZM131.181 55.8523C132.178 55.993 132.949 56.7826 132.949 57.7146C132.949 58.7664 132.004 59.6096 130.848 59.6096H109.464V45.5804H103.163V59.6455H91.5779C88.4457 59.6455 87.7988 57.7314 87.7988 55.9754V45.4932H77.3514C76.3182 46.1958 75.3209 46.9687 74.2534 47.6177L68.0583 51.4453L60.0086 45.546H47.4781V49.0755H52.01V47.1429L62.6677 54.8173L55.3876 59.3986H47.4773V62.9281H56.6295C57.6093 62.2615 58.5373 61.559 59.5522 60.9443L65.9218 57.064L74.0065 62.8585H83.2128L71.0487 53.6752L77.2972 49.5854C78.6276 48.7062 80.028 47.9701 81.3926 47.1629V56.3982C81.3926 60.2961 82.3899 63 90.2125 63L134.401 62.8953C137.813 62.9464 140 60.5775 140 57.7162C140 54.87 137.48 52.5354 134.401 52.5354H118.441C118.651 50.5869 120.33 48.9548 122.027 48.9548H138.18L138.129 45.566H120.996C115.57 45.566 111.231 50.0785 111.108 55.3288C111.091 55.6973 111.335 55.925 111.738 55.925L131.181 55.8523ZM47.4781 55.8004V52.2005H50.5928V55.8004H47.4781ZM47.4781 45.546H35.6478C32.4455 45.546 29.9776 46.3892 28.1582 47.8279C24.8858 50.427 23.8359 53.1652 23.8709 54.3953H28.1407C26.2679 55.8004 25.0077 57.4844 24.3433 59.4345H10.3423C7.82261 59.4345 6.19436 57.6442 6.19436 55.9051V45.4229H0V56.3095C0 60.2242 3.71056 62.9281 9.65957 62.9281H47.4781V59.3986H32.463C32.5331 57.6083 34.4402 55.8004 36.1728 55.8004H47.4781V52.2005H32.2878C32.0783 51.1471 34.0379 49.0755 35.5427 49.0755H47.4781V45.546Z" fill="#1B1B1B"/>
</svg>
