<svg width="41" height="32" viewBox="0 0 41 32" fill="none" xmlns="http://www.w3.org/2000/svg">
<path d="M30.9814 21.851H25.8939L22.1547 14.0537C20.1157 15.1629 18.9468 17.7332 16.8746 19.4334C15.8186 20.2968 14.5832 21.0673 13.049 21.5919C12.3516 21.8244 11.1694 22.1299 10.7244 22.1764C10.5385 22.1963 10.4056 22.1897 10.3791 22.1166C10.3591 22.0635 10.4123 22.0236 10.6049 21.9307C10.8307 21.8244 11.7672 21.4325 12.3516 21.0274C13.0822 20.516 13.5006 19.9648 13.5338 19.5397C13.3346 18.829 11.9 17.2616 13.3678 14.3725C13.8925 13.3364 14.3508 12.5926 14.6762 11.8421C15.0481 10.9787 15.3138 9.76991 15.4068 8.86665C15.4134 8.81352 15.4201 8.81352 15.4533 8.84672C16.1639 9.57066 18.9268 12.4133 18.5283 15.2426C19.4449 14.8906 21.0389 13.8146 21.7761 13.2435C22.5531 12.6391 23.0579 12.0081 23.8815 11.9948C24.6187 11.9816 24.6785 12.3336 25.2696 12.4133C25.4157 12.4332 25.6282 12.4066 25.7411 12.3468C25.7876 12.3269 25.7743 12.2738 25.7079 12.2605C24.9109 12.0745 24.7183 11.4237 23.6822 11.4237C22.7524 11.4237 22.0152 12.2738 21.4838 12.6258L18.8737 7.17968C17.7645 4.90826 18.0966 3.2545 20.4942 0.00012207L30.9814 21.851Z" fill="black"/>
<path d="M40.8516 31.1531L39.0717 29.0344C40.0081 28.8219 40.5793 28.2839 40.5793 27.3475C40.5793 26.2915 39.6827 25.7601 38.547 25.7601H34.9937V31.1531H35.9368V29.1141H38.0489L39.676 31.1531H40.8516ZM35.9368 26.597H38.5735C39.2244 26.597 39.6096 26.9025 39.6096 27.4139C39.6096 27.9386 39.2045 28.2773 38.5735 28.2773H35.9368V26.597Z" fill="black"/>
<path d="M2.92859 25.7601L0.145752 31.1531H1.21505L1.80615 29.951H4.9742L5.56531 31.1531H6.65453L3.8717 25.7601H2.92859ZM2.21794 29.1141L3.38686 26.7431L4.55578 29.1141H2.21794Z" fill="black"/>
<path d="M11.641 26.4707C12.5309 26.4707 13.2615 26.8028 13.6334 27.3939L14.3972 26.8825C13.8659 26.1386 12.9228 25.6206 11.6476 25.6206C9.58207 25.6206 8.39322 26.9689 8.39322 28.4632C8.39322 29.9509 9.58207 31.2992 11.6476 31.2992C12.9294 31.2992 13.8659 30.7811 14.3972 30.0373L13.6334 29.5192C13.2615 30.1037 12.5309 30.4424 11.641 30.4424C10.2529 30.4424 9.35625 29.6653 9.35625 28.4566C9.35625 27.2478 10.2529 26.4707 11.641 26.4707Z" fill="black"/>
<path d="M20.2034 26.4707C21.0868 26.4707 21.824 26.8028 22.1959 27.3939L22.9597 26.8825C22.4284 26.1386 21.4853 25.6206 20.2101 25.6206C18.1445 25.6206 16.9557 26.9689 16.9557 28.4632C16.9557 29.9509 18.1445 31.2992 20.2101 31.2992C21.4853 31.2992 22.4284 30.7811 22.9597 30.0373L22.1959 29.5259C21.824 30.1103 21.0934 30.449 20.2034 30.449C18.8153 30.449 17.9187 29.672 17.9187 28.4632C17.9187 27.2544 18.8153 26.4707 20.2034 26.4707Z" fill="black"/>
<path d="M28.7634 25.6206C26.6979 25.6206 25.509 26.9689 25.509 28.4632C25.509 29.9509 26.6979 31.2992 28.7634 31.2992C30.8289 31.2992 32.0178 29.9509 32.0178 28.4632C32.0178 26.9689 30.8356 25.6206 28.7634 25.6206ZM28.7634 30.4557C27.3753 30.4557 26.4787 29.672 26.4787 28.4566C26.4787 27.2412 27.3753 26.4574 28.7634 26.4574C30.1515 26.4574 31.0481 27.2412 31.0481 28.4566C31.0547 29.672 30.1581 30.4557 28.7634 30.4557Z" fill="black"/>
</svg>
