<svg width="90" height="91" viewBox="0 0 90 91" fill="none" xmlns="http://www.w3.org/2000/svg">
<path d="M90.0007 45.0027C90.0007 69.8599 69.8552 90.0055 45.0055 90.0055C20.1521 90.0055 0.00279883 69.8599 -0.000976562 45.0065V45.0027C-0.000976562 20.1493 20.1445 0 45.0055 0C69.859 0 90.0007 20.1455 90.0007 45.0027Z" fill="#1B1B1B"/>
<path d="M61.4475 41.443H56.8302V43.5005H61.4475V46.2868H56.8302V48.5709H61.4475V52.4029H52.0279V37.7242H61.4475V41.443Z" fill="white"/>
<path d="M71.4636 36.501C68.4886 41.7563 62.6292 52.3992 62.6292 52.3992H67.6542L68.466 50.8022H74.4613L75.2541 52.3992H80.3094L71.4636 36.501ZM69.6288 48.3784C69.6288 48.3935 71.4674 44.6143 71.4674 44.6143C71.4674 44.6143 73.2683 48.3897 73.2683 48.3784H69.6288ZM42.8386 44.2972L46.1269 37.7167H51.2464C51.269 37.7167 42.8386 53.4903 42.8386 53.4903L34.4383 37.7204H39.5577C39.5577 37.7204 42.5743 43.8403 42.8386 44.2972ZM33.653 52.4029H28.8545V37.7167C28.8545 37.7167 33.653 37.7355 33.653 37.7167V52.4029ZM19.7105 43.3986V37.7204H24.509V53.494L16.7128 46.7172V52.4029H11.9067V36.6029L19.7105 43.3986Z" fill="white"/>
</svg>
