<svg width="113" height="58" viewBox="0 0 113 58" fill="none" xmlns="http://www.w3.org/2000/svg">
<path d="M0 0H113V57.5571H0V0Z" fill="#1B1B1B"/>
<path d="M3.9015 17.9266C3.9015 17.9266 16.0029 17.8149 18.0439 17.9266C25.2793 18.3451 23.8854 28.3723 18.0439 28.2354C27.0333 29.535 24.7198 40.1681 17.9496 40.1681H3.7168C5.33926 39.4651 5.33926 38.8047 5.33926 38.1549V19.658C5.33926 18.963 4.55128 17.9266 3.9015 17.9266ZM11.1833 26.3352C11.1833 26.3352 13.7333 26.2874 14.9399 26.1944C18.3682 25.4489 17.0234 21.3748 15.1219 21.2805C13.8715 21.1423 13.2682 21.2805 11.1833 21.5117V26.3352ZM11.1833 29.9509V36.2561C12.2929 36.4408 15.3558 36.6281 16.7935 35.9332C18.8279 34.7266 18.3217 31.8989 16.7935 30.9222C15.5059 30.1077 13.9619 29.8565 11.1833 29.9509ZM26.7582 17.9266H36.0319C34.6407 18.5298 34.1317 19.0547 34.1317 20.818V40.1681C34.1317 41.6802 33.1564 47.0566 25.8321 45.7145C27.1768 44.8308 28.1495 43.0011 28.1495 40.1681V20.7689C28.1482 19.2899 28.2385 19.1331 26.7582 17.9266Z" fill="#F5F2EE"/>
<path d="M50.2605 21.9736C58.608 21.9736 58.5589 36.3034 50.1701 36.3951C41.7774 36.4881 41.9183 21.9736 50.2605 21.9736ZM50.2605 40.9861C65.6055 40.9861 67.3183 17.3893 50.3987 17.2949C32.7336 17.667 34.9142 40.9861 50.2605 40.9861Z" fill="#F5F2EE"/>
<path d="M64.6342 17.927C64.6342 17.927 71.819 17.9549 77.1449 17.927C85.3064 17.8844 84.6114 28.6995 79.8357 29.5792C81.9698 33.1989 86.3269 40.4408 86.3269 40.4408C80.536 40.6282 79.5141 38.9911 78.8165 38.0623C78.1229 37.1335 73.7166 29.8118 73.1146 28.5135C79.5567 28.9799 78.956 21.6037 73.8587 21.6037C73.1146 21.6529 71.6795 21.7911 71.6795 21.7911V37.463C71.6795 38.8064 72.6947 39.8695 73.4362 39.9625C71.6795 40.0595 64.5811 39.9625 64.5811 39.9625C66.3484 39.221 65.975 38.5739 65.975 38.0623V19.8471C65.9776 18.8677 65.284 17.927 64.6342 17.927ZM106.03 18.218C105.475 18.8239 105.318 19.1813 103.943 18.3615C100.836 16.5051 86.5528 16.2354 86.5621 29.1633C86.5621 35.8392 92.353 40.7956 98.6569 40.5179C101.713 40.381 106.627 39.0828 108.118 38.2496V29.4862C108.118 29.4862 102.415 29.6736 100.742 29.6736C102.043 30.5519 102.227 31.114 102.227 31.7571V35.5615C91.375 40.4302 88.8742 22.1366 99.2641 21.7898C104.033 21.6343 105.24 23.1372 106.03 23.6435V18.218Z" fill="#F5F2EE"/>
<path d="M64.2849 1.11621C64.2849 1.11621 50.379 9.26708 48.3406 10.1919C46.2996 11.1168 43.9808 11.7679 41.48 10.661C42.7809 12.6954 48.1559 16.4028 54.085 13.2522C60.5696 9.80392 75.2156 1.11621 75.2156 1.11621H64.2849ZM29.061 55.8668C34.1304 51.604 41.2063 44.0299 55.1986 43.9183C71.6824 43.7747 80.5933 53.8258 83.0941 55.9545C78.5523 55.9545 37.2491 55.8668 29.061 55.8668Z" fill="#F5F2EE"/>
</svg>
