<svg width="122" height="64" viewBox="0 0 122 64" fill="none" xmlns="http://www.w3.org/2000/svg">
<path fill-rule="evenodd" clip-rule="evenodd" d="M59.2302 15.0594C59.4166 15.1005 59.8244 15.1053 60.0492 14.7757C60.2645 14.4604 60.6867 14.2431 61.0705 13.8757C61.4543 13.5077 62.2795 12.5865 62.6284 11.6098C62.9766 10.6331 63.5208 9.85865 63.6791 9.67497C63.8381 9.49128 63.6709 9.66469 63.4269 9.80519C63.1787 9.94501 63.4872 9.68114 63.4289 9.63247C63.3946 9.59958 62.8909 9.99505 62.6339 10.2973C62.3748 10.5996 59.7908 13.3309 58.9574 13.7359C58.9574 13.7359 58.7682 13.923 58.5236 13.8264C58.2768 13.7284 58.307 14.0135 58.2604 14.1643C58.2131 14.3151 59.0431 15.0197 59.2302 15.0594ZM16.23 17.5255C16.0182 17.5255 14.6316 17.5186 14.0504 17.522C13.4678 17.5248 11.6735 17.4206 11.1786 17.7139C11.1786 17.7139 10.6426 17.9497 10.5104 18.3514C10.3753 18.7537 10.3486 18.9223 10.4768 19.289C10.6029 19.657 10.2259 20.3123 10.0532 20.679C9.88049 21.0484 7.80717 23.8057 7.07723 24.668C6.34934 25.5281 5.21159 27.0888 3.71263 27.5713C3.71263 27.5713 1.80381 20.2787 11.5857 11.5941C11.5857 11.5941 11.9134 11.2822 12.0806 11.3021C12.2492 11.3233 12.4953 11.4947 12.7804 11.605C13.0683 11.7168 13.7626 12.1876 14.3568 11.7469C14.951 11.3089 15.3122 10.1116 14.5665 9.21987C13.8194 8.32886 12.5021 8.07594 11.5337 7.73119C10.5659 7.3885 9.0635 7.56738 7.8668 7.78397C6.66942 8.00055 5.0375 9.83055 3.46931 12.5502C1.90251 15.2698 2.09579 15.5954 1.73116 16.6064C1.36927 17.618 -1.20027 23.3979 0.68319 27.5822C2.56802 31.7652 3.90934 30.4568 5.56593 30.0222C7.22596 29.5884 8.96137 27.7865 10.0553 26.2245C10.0553 26.2245 9.93052 27.7714 9.61798 29.6172C9.30338 31.4629 8.88461 33.9242 9.09777 35.5157C9.31298 37.1031 9.50283 38.3361 9.72422 38.3786C9.94491 38.4197 10.4679 38.1099 10.9285 36.809C11.389 35.5068 11.5378 35.5568 11.6563 34.6336C11.7797 33.7131 11.8805 33.2628 11.5686 32.7577C11.5686 32.7577 11.4994 31.1538 11.9949 29.8228C11.9949 29.8228 12.3925 28.9009 12.5556 28.1347C12.7201 27.3663 13.1169 27.0696 13.3404 26.0127C13.3404 26.0127 13.779 23.9874 13.9928 23.0957C14.2053 22.2033 14.097 22.0813 14.8414 21.0642C15.585 20.0484 15.6775 19.9346 15.9243 19.1574C15.9243 19.1574 16.0922 18.6804 16.171 18.3788C16.2498 18.0793 16.2875 17.9031 16.3965 17.753C16.5062 17.6029 16.4431 17.5268 16.2293 17.5262M73.6262 19.191C73.6262 19.191 73.217 17.9127 73.3719 17.4466C73.5248 16.9806 73.8448 17.0882 73.9566 17.4343C74.0683 17.7804 74.084 18.2246 73.6262 19.191ZM41.0769 21.6817C41.7033 20.3555 42.4648 18.8682 42.4648 18.8682C42.4648 18.8682 42.9596 18.8976 43.205 18.7701C43.4517 18.6399 43.8918 18.3294 43.8637 18.6372C43.8349 18.9449 42.4497 21.9579 41.8774 22.8756C41.3051 23.7954 40.4381 24.6741 40.4381 24.6741C40.4381 24.6741 40.4511 23.01 41.0769 21.6817ZM22.0099 17.2917C22.0099 17.2917 21.3876 18.8565 20.0044 20.5885C18.6186 22.3212 17.1936 23.3026 17.1367 22.058C17.0792 20.8133 18.0908 18.949 18.6247 18.3486C19.158 17.7489 21.2073 15.1958 22.6178 15.0786C22.6178 15.0786 22.1449 16.4898 22.0099 17.2917ZM64.6969 20.6276C64.7428 20.1581 64.7798 19.8106 64.969 19.8873C65.1575 19.9641 65.139 20.6276 65.0341 21.084C64.8669 21.8057 64.4268 22.6179 64.4268 22.6179C64.4268 22.6179 64.6489 21.0964 64.6969 20.6276Z" fill="#1B1B1B"/>
<path fill-rule="evenodd" clip-rule="evenodd" d="M34.0607 0.00342697C33.9634 0.113775 33.8654 0.328989 33.8078 0.266618C33.7502 0.204933 33.6447 0.0102809 33.5981 0.136393C33.5515 0.263191 33.6234 0.267989 33.5727 0.420832C33.5213 0.573674 33.3054 0.786146 33.2067 0.753247C33.1066 0.721034 33.1327 0.480461 33.0765 0.699101C33.0244 0.917057 33.0086 0.884158 32.9422 0.950641C32.8743 1.01712 32.8195 0.904034 32.7783 0.982854C32.7379 1.06236 32.7468 1.14392 32.6461 1.24605C32.5467 1.35091 32.6474 1.60245 32.6474 1.60245C32.6975 2.23712 32.2088 3.2049 31.4973 5.73195C30.7859 8.25968 30.0923 11.8991 30.0923 11.8991C29.435 15.0314 28.1225 17.7784 27.7647 18.6454C27.4062 19.5111 26.6701 20.7681 26.2541 21.3884C25.836 22.0087 25.6941 22.9237 25.1451 23.1122C24.5961 23.3034 24.2939 23.8709 24.2939 23.8709C24.2939 23.8709 24.1732 21.7599 24.4679 19.8072C24.7627 17.8504 25.2986 16.2246 25.4892 15.7065C25.6825 15.1904 25.8367 14.592 25.9361 14.285C26.0354 13.9786 26.1348 13.8189 25.969 13.7641C25.8031 13.7092 25.1924 13.4625 25.1307 13.3885C25.0697 13.3138 24.8586 13.2075 24.6311 13.2062C24.4049 13.2034 24.1122 13.0766 23.9169 13.0485C23.7236 13.0197 23.6181 12.9478 23.3761 12.8285C23.2089 12.7449 23.0985 12.7504 23.0985 12.7504C23.0985 12.7504 23.0574 12.7572 23.0081 12.8511C22.9601 12.9471 22.6777 13.5187 22.5468 13.8052C22.5468 13.8052 21.9889 13.8347 21.4961 14.189C21.0026 14.542 19.8511 15.1403 18.8409 16.6379C17.8333 18.1341 17.4687 18.664 17.235 19.3528C16.9999 20.0436 16.8272 20.5145 16.6044 21.546C16.3782 22.5782 16.4214 23.2828 16.5941 23.5398C16.7676 23.7955 16.8046 23.9401 17.0828 24.1464C17.3652 24.352 17.6202 24.6214 17.9355 24.3986C18.2528 24.1773 19.0246 23.4418 19.4838 23.2479C19.943 23.0525 20.5105 22.0375 21.0992 21.8092C21.0992 21.8092 21.1506 22.9621 21.0958 24.1211C21.043 25.2801 20.9416 26.0827 21.3343 26.4192C21.7257 26.755 22.2432 27.546 22.6126 27.5007C22.9834 27.4582 23.1417 27.193 23.4604 27.3088C23.7832 27.424 24.0636 27.3952 24.727 26.3068C25.3898 25.2177 27.9676 21.1458 29.0628 18.189C29.0628 18.189 29.0368 24.84 31.4357 27.2362C33.8345 29.633 35.2094 30.1909 38.3773 28.1066C38.3773 28.1066 38.4781 28.2368 38.6104 28.1697C38.742 28.1039 38.9325 27.6056 39.9249 27.0916C39.9249 27.0916 40.3704 28.7214 41.4191 29.2958C42.4712 29.8695 43.515 29.8907 44.1572 29.4418C44.7624 29.0189 45.5644 28.0621 46.5966 26.67C47.3059 25.7139 47.3368 24.8181 48.0976 23.6803C48.8584 22.5426 48.6829 22.0889 48.944 21.568C49.2072 21.0491 49.761 19.8476 49.761 19.8476C49.761 19.8476 50.371 20.4734 50.8563 20.7496C51.3429 21.0251 51.2401 22.3479 51.0023 23.1773C50.7644 24.0087 50.6267 27.0326 51.7247 28.5213C52.8213 30.01 53.8843 29.9037 54.5739 29.2183C55.2599 28.535 55.7411 27.5549 56.1414 26.5864C56.1551 32.4616 58.9885 30.8153 60.0906 29.9681C61.192 29.1196 63.1221 26.7269 63.1221 26.7269C63.5155 29.5597 65.1707 30.0052 66.083 29.9092C66.9973 29.8146 67.7656 28.3116 68.3009 27.5C68.8348 26.6892 70.1645 25.2876 70.5031 24.9504C70.8451 24.6145 71.1515 24.084 71.4901 23.5796C71.828 23.0758 73.4667 21.3109 73.4667 21.3109C73.4667 21.3109 74.0185 22.1101 74.27 22.4782C74.5216 22.8455 75.7553 23.9209 76.3255 24.5028C76.8971 25.0854 77.3591 26.0854 77.3591 26.0854C77.3591 26.0854 77.1007 26.1985 76.9629 26.1711C76.8231 26.145 76.6052 26.0354 76.4489 25.8969C76.2919 25.7557 75.965 25.7872 75.8505 25.8428C75.7395 25.899 75.5373 25.7886 75.4249 25.7064C75.3118 25.6241 75.2248 25.511 75.0534 25.5124C74.8807 25.5138 74.8259 25.4014 74.7477 25.3397C74.6696 25.2766 74.7313 25.0621 74.6813 25.1252C74.6298 25.1841 74.5695 25.265 74.4551 25.2657C74.3406 25.267 74.2563 25.3507 74.1727 25.4048C74.0884 25.4596 74.0575 25.3781 73.9527 25.2869C73.8506 25.193 73.8588 25.1841 73.7882 25.3465C73.7196 25.5083 73.6957 25.2506 73.658 25.1999C73.6182 25.1498 73.66 25.3246 73.5469 25.2698C73.4332 25.2149 73.3756 25.1306 73.3756 25.1306C73.5037 28.5041 76.172 29.6275 77.4112 29.9839C78.2803 30.2334 79.3597 30.1649 80.0431 29.5254L80.0465 29.5268C80.1404 29.609 79.9752 29.9065 80.0657 29.8338C80.1569 29.7605 80.2713 29.3794 80.3536 29.4473C80.4351 29.5124 80.2693 30.0799 80.2693 30.0799C80.4913 29.7714 80.5044 29.1614 80.5037 29.0456C80.503 28.9305 80.5887 28.9908 80.6757 29.1018C80.7648 29.2128 80.7785 29.1827 80.7785 29.1827C81.0458 28.8763 80.6805 27.8277 80.6805 27.8277V27.8297C80.5146 26.217 78.7545 24.1649 77.2008 22.9641C75.4599 21.6194 74.6237 19.6886 74.6237 19.6886C74.8848 19.4076 76.1912 17.9957 76.3714 17.1705C76.5531 16.3439 75.9965 16.1972 75.4838 16.0601C74.9732 15.9217 74.3173 15.8984 74.0623 15.8168C73.8087 15.7346 73.8087 15.9573 73.2399 16.3788C72.6744 16.7997 72.5079 16.6489 72.3961 17.9018C72.2837 19.1561 73.1227 20.6454 73.1227 20.6454C72.612 21.3288 71.0329 23.1361 69.2529 24.9566C67.473 26.7783 66.2256 27.6522 66.2256 27.6522L66.1687 27.6796C65.5737 28.0559 65.5703 27.4857 65.5134 27.0182C65.4559 26.548 65.4881 26.0443 65.3626 25.5364C65.2358 25.0265 65.4367 23.5995 65.4367 23.5995C65.4367 23.5995 65.6025 23.4172 65.6889 23.276C65.7746 23.1341 66.0295 22.9113 66.0953 22.8078C66.1625 22.705 66.1707 22.7229 66.1282 22.8078C66.0816 22.8969 66.0631 22.9202 65.998 23.0114C65.8787 23.18 65.7917 23.3706 65.7917 23.3706C65.7917 23.3706 65.9048 23.276 66.0487 23.1238C66.1906 22.9723 66.2406 22.8771 66.3236 22.7818C66.4072 22.6858 66.3914 22.7201 66.3688 22.8092C66.3469 22.899 66.207 23.0491 66.1378 23.1451C66.0436 23.2625 65.94 23.372 65.828 23.4727C65.828 23.4727 66.1029 23.3507 66.1755 23.2561C66.2242 23.1944 67.6992 21.6043 68.1748 19.9182C68.647 18.2294 67.5079 18.0827 67.1981 18.056C66.887 18.03 66.8534 17.9463 66.0014 18.006C65.1495 18.0663 64.7019 19.2945 63.8047 21.3904C62.9048 23.4878 62.9706 25.2986 62.9706 25.2986C62.8925 25.3966 62.8191 25.485 62.7417 25.5755C62.754 25.5686 62.7746 25.5638 62.7876 25.5556C62.7794 25.5666 62.7753 25.5782 62.7691 25.5864C62.7801 25.5809 62.7904 25.5809 62.7986 25.5789C62.8863 25.4774 62.9782 25.3863 62.9782 25.3863C62.9645 25.4891 62.9336 25.5261 62.8568 25.6269C62.7808 25.7304 62.7746 25.7434 62.6841 25.8476L62.4826 26.0744C62.4826 26.0744 62.4833 26.1306 62.4792 26.0169C62.4751 25.9435 62.5039 25.9298 62.5902 25.8297C62.596 25.8089 62.6053 25.7892 62.6176 25.7715C62.6039 25.7811 62.5882 25.7859 62.5751 25.7982C62.5757 25.7912 62.5773 25.7842 62.5799 25.7777L62.571 25.7811C60.3133 28.437 58.6807 29.1368 58.4052 29.2039C58.1105 29.2745 58.1681 28.7139 58.1674 28.4384C58.1646 28.1615 58.4265 27.4802 58.4895 27.1258C58.5512 26.7694 58.6951 25.7036 59.0742 25.1108C59.4552 24.52 59.5628 24.1375 59.9206 23.1951C60.277 22.254 61.5409 17.7777 61.5745 17.5509C61.6067 17.322 61.5059 16.9025 61.3716 16.7092C61.2345 16.5139 61.1386 16.2911 60.9055 16.128C60.6752 15.9669 60.4415 15.9375 59.8555 15.8614C59.2702 15.786 59.2523 15.8134 58.8226 15.8484C58.3922 15.8826 58.397 16.3364 58.397 16.3364C58.1893 16.5454 58.1208 16.5029 58.2229 17.6311C58.3223 18.7592 57.8939 20.1588 56.4183 23.0196C54.9447 25.8825 53.4375 27.6378 53.4375 27.6378C53.4375 27.6378 53.2476 25.7502 53.2963 25.047C53.3429 24.3418 53.6698 23.0806 53.4608 21.7503C53.2524 20.4206 51.8899 19.7935 50.8734 19.1396C49.857 18.4851 50.6075 17.4467 50.7398 17.0053C50.87 16.5646 50.4704 16.5413 50.0407 16.5735C49.6102 16.6085 49.6438 16.6091 49.4444 16.7078C49.2456 16.8059 49.6438 16.6091 49.2182 17.3247C48.7939 18.0402 49.2956 19.2342 49.2956 19.2342C49.2956 19.2342 48.541 20.4042 47.8858 21.4439C47.2305 22.4857 44.8426 26.1608 44.3183 26.7146C43.7919 27.267 42.7227 28.1196 42.1436 27.5679C41.561 27.0175 41.6987 25.2033 41.6987 25.2033C41.6987 25.2033 42.3889 24.2609 43.0764 23.5446C43.7652 22.8277 44.0956 22.2424 44.0956 22.2424C44.0956 22.2424 44.3999 22.2287 46.0969 20.1581C47.7946 18.0889 47.5657 17.2041 47.5314 16.5886C47.4958 15.9717 46.7665 15.5879 45.9365 15.1698C45.1106 14.7531 44.7947 14.8861 44.55 14.9196C44.3032 14.9519 44.2511 14.7209 44.086 14.858C43.9389 14.9823 43.7721 15.0812 43.5925 15.1506C43.3642 15.25 43.0675 15.6729 42.8015 15.7394C42.5363 15.8045 42.1826 15.8586 42.4088 16.1931C42.637 16.5276 42.4122 16.7442 42.4122 16.7442C39.0182 21.2623 39.7207 25.9936 39.7207 25.9936C39.3163 26.3177 38.2704 27.1073 37.7975 27.4157C37.6967 27.4788 37.3177 27.6597 36.7571 27.5919C36.1011 27.5096 34.838 27.1944 34.0758 26.0552C33.1416 24.6591 33.3486 19.8778 33.7934 16.8867C34.241 13.8936 36.243 5.70796 36.5007 4.74361C36.7584 3.77789 36.6241 2.94445 36.6241 2.94445C36.6741 2.4167 37.1196 1.29608 37.243 1.14666C37.3664 0.997248 37.3958 0.910888 37.1882 0.847146C36.9805 0.779978 36.8647 0.551742 36.7543 0.403011C36.644 0.25291 36.1786 0.304315 36.0292 0.358461C35.8784 0.412607 35.2835 0.0945843 34.8859 0M49.1976 61H48.8645C48.8645 61 48.7309 61.1111 48.8645 61.2063C48.9975 61.3023 48.663 61.4277 48.663 61.5237C48.663 61.6196 48.7795 61.6854 48.7795 61.6854C48.7795 61.6854 48.7994 61.5874 48.9975 61.4921C49.1976 61.3962 49.3313 61.3811 49.2627 61.2221C49.1976 61.0631 49.5307 61 49.1976 61ZM49.7062 59.4113C49.7048 59.4024 49.7124 59.3907 49.7089 59.3811C49.6966 59.3496 49.674 59.3174 49.6726 59.2845C49.6692 59.2468 49.6603 59.2105 49.6603 59.1728C49.6603 59.1193 49.6582 59.0665 49.6603 59.0138C49.6602 59.0042 49.6583 58.9947 49.6545 58.9858C49.6507 58.977 49.6452 58.969 49.6383 58.9624C49.6171 58.9438 49.5849 58.9349 49.5629 58.9569C49.5561 58.9644 49.5575 58.972 49.5527 58.9795C49.5458 58.9905 49.5342 58.9966 49.5205 59.0048C49.4848 59.024 49.4622 59.0473 49.4238 59.0665C49.3882 59.0844 49.3772 59.1063 49.3649 59.133C49.3511 59.1653 49.3458 59.2007 49.3497 59.2356C49.3535 59.2706 49.3663 59.3039 49.3868 59.3325C49.3975 59.3489 49.4092 59.3647 49.4218 59.3798C49.4403 59.401 49.4464 59.4229 49.4588 59.4449C49.4684 59.4634 49.4821 59.4798 49.4882 59.4983C49.4944 59.512 49.491 59.5285 49.491 59.5436C49.491 59.5641 49.4848 59.6121 49.5266 59.6224C49.5465 59.6265 49.5801 59.6306 49.602 59.6292C49.6355 59.6299 49.6678 59.6176 49.6925 59.595C49.7288 59.5676 49.7322 59.5292 49.7322 59.4949C49.7322 59.4743 49.7261 59.4572 49.7199 59.4373C49.7172 59.4291 49.7089 59.4209 49.7062 59.4113ZM48.8645 58.9507C48.748 58.9624 48.6939 59.0295 48.6788 59.1412C48.6711 59.2068 48.6665 59.2727 48.6651 59.3386C48.6651 59.4154 48.6514 59.5148 48.7 59.5806C48.7158 59.6032 48.7658 59.6265 48.7987 59.6169C48.8337 59.6046 48.8632 59.5545 48.8741 59.5223C48.8878 59.4881 48.8892 59.4504 48.9029 59.4181C48.917 59.3881 48.9373 59.3615 48.9625 59.34C48.966 59.3332 48.9721 59.3277 48.9995 59.3174C49.0145 59.3081 49.028 59.2966 49.0393 59.2831C49.056 59.2582 49.0676 59.2303 49.0736 59.2009C49.0934 59.1351 49.0962 59.0172 49.0393 58.9685C48.9948 58.9315 48.9166 58.9466 48.8645 58.9507ZM49.5602 60.34C49.4999 60.4187 49.4526 60.5067 49.4204 60.6004C49.4128 60.6217 49.3991 60.632 49.3991 60.6546C49.3957 60.6793 49.3957 60.7005 49.3854 60.7231C49.3855 60.7269 49.3848 60.7307 49.3834 60.7342C49.382 60.7378 49.3799 60.741 49.3772 60.7437C49.371 60.7574 49.3793 60.7732 49.3745 60.7862C49.3697 60.802 49.3621 60.8047 49.3621 60.8253C49.3635 60.8451 49.3546 60.8506 49.3498 60.8664C49.347 60.8801 49.3498 60.9027 49.3498 60.9171V60.9678C49.3498 60.9925 49.347 60.9952 49.3731 60.9993C49.4156 61.0041 49.4437 60.9836 49.4663 60.9562C49.4883 60.9244 49.5022 60.8876 49.5067 60.8492C49.5095 60.8294 49.5033 60.8122 49.5095 60.7958C49.5139 60.7896 49.5169 60.7826 49.5184 60.7752C49.5232 60.7615 49.5157 60.7485 49.5218 60.7355C49.5294 60.7094 49.5588 60.6861 49.5753 60.6621C49.5958 60.6333 49.6233 60.6128 49.6356 60.5813C49.6466 60.5481 49.6517 60.5133 49.6507 60.4784V60.427C49.6507 60.4078 49.6582 60.3962 49.663 60.3763C49.674 60.3201 49.5945 60.29 49.5602 60.34ZM26.4995 53.7547C25.5797 54.1797 24.9971 54.3606 25.1527 52.6944C25.1527 52.6944 26.045 43.5191 29.509 36.6973C30.0416 35.6501 30.0107 34.4698 29.9477 33.5713C29.8846 32.6734 28.8099 31.9921 28.507 31.8756C28.2924 31.7934 27.6262 31.6714 27.2602 31.6282C26.9422 31.5912 26.4899 31.6337 26.4172 31.5727C26.3452 31.5096 26.1568 31.5021 26.0868 31.6261C26.0156 31.7495 25.8737 31.8749 25.7784 31.9085C25.6852 31.9414 25.4734 31.9846 25.3727 32.1744C25.2109 32.4822 24.9957 33.173 23.335 38.0592C21.6743 42.9468 20.4138 48.0502 20.5756 51.2613C20.7387 54.4723 22.6016 56.2441 24.6194 56.815C26.6365 57.3859 29.4172 54.4538 30.984 52.924C31.8484 52.0793 32.7152 51.2369 33.5844 50.397C33.5844 50.397 31.1711 51.3963 29.2897 52.3586C29.2897 52.3586 27.4199 53.3298 26.5001 53.754M45.4225 57.4956C45.4622 57.3757 45.6144 57.3243 45.5794 57.1906C45.5424 57.0583 45.5486 56.887 45.3964 56.8877C45.3964 56.8877 45.223 56.9199 45.2367 57.0131C45.2504 57.1063 45.3231 57.1413 45.3231 57.2269C45.3231 57.3119 45.3396 57.7478 45.4225 57.4956Z" fill="#1B1B1B"/>
<path fill-rule="evenodd" clip-rule="evenodd" d="M102.33 47.395C103.546 52.4587 107.191 54.835 109.84 55.7938C112.951 56.9206 117.306 55.5354 118.006 55.14C118.705 54.7452 118.881 54.5848 118.244 54.5882C117.605 54.5951 114.097 55.2407 112.797 55.0968C111.493 54.9529 110.799 54.9385 109.248 53.8206C107.699 52.7034 106.172 51.0235 104.684 47.6952C104.492 47.2669 104.245 46.38 104.117 45.6528L104.327 45.4506C104.645 45.1421 104.903 44.8892 105.08 44.7165C106.023 43.7912 107.918 42.5274 109.311 41.2231C110.703 39.9188 112.119 38.5226 112.513 37.9832C112.906 37.4438 113.699 36.2375 113.923 36.0148C114.147 35.792 114.051 35.6021 114.021 35.3801C113.991 35.1573 114.052 34.9675 113.923 34.8393C113.795 34.7125 114.051 34.4582 113.859 33.9819C113.667 33.5055 112.962 33.4418 112.526 33.4404C112.092 33.4384 110.753 33.1553 110.4 33.0936C110.046 33.0312 109.47 32.9661 109.278 32.9346C109.086 32.9024 109.086 32.7756 109.086 32.7756C108.956 32.9312 108.284 32.8064 107.867 32.8064C107.45 32.8064 106.926 32.7365 106.681 33.0936C106.44 33.45 105.786 33.9819 105.107 34.6755C104.429 35.3684 104.12 36.269 104.12 36.269C103.542 37.2539 101.597 39.611 101.905 44.4396C101.912 44.5465 101.922 44.65 101.93 44.7549C98.8748 47.9125 95.4067 51.408 94.4417 52.3066C92.8694 53.7678 92.5816 54.2387 92.1991 53.7993C91.8187 53.3607 93.4486 47.48 94.0887 45.4163C94.7296 43.3519 95.5006 40.2388 96.3971 36.5542C96.5755 35.8375 96.7659 35.1239 96.9681 34.4137C98.4334 34.0566 100.213 33.6207 101.843 33.2204C105.462 32.3308 113.54 29.949 115.687 29.2814C115.687 29.2814 118.409 28.4569 119.243 28.0752C120.075 27.6941 121.008 27.409 121.327 27.2815C121.327 27.2815 121.52 27.2225 121.611 27.1595C121.702 27.0978 121.62 27.0306 121.682 27.0059C121.744 26.9826 121.938 26.9045 121.991 26.836C122.043 26.7674 121.853 26.8689 121.769 26.8997C121.685 26.9305 121.581 26.8668 121.55 26.8051C121.518 26.7428 121.522 26.7092 121.428 26.7414C121.335 26.7729 120.812 26.7654 120.64 26.7428C120.64 26.7428 119.436 26.9004 117.321 27.2815C117.321 27.2815 100.378 30.8126 98.992 31.1238L97.8591 31.3788C98.8879 27.9758 99.9893 24.5934 99.9893 24.5934C100.213 24.2075 100.531 23.2795 100.593 23.0656C100.657 22.8531 100.692 22.6455 100.593 22.5173C100.497 22.3905 100.499 22.2006 100.415 22.1369C100.331 22.0725 100.036 22.0156 99.7933 22.0101C99.5506 22.0033 99.2566 21.897 99.0565 21.945C98.857 21.993 98.6315 22.0081 98.3505 22.0745C98.0709 22.1396 97.7748 22.1054 97.6261 22.1047C97.4794 22.1033 97.086 21.9765 96.942 22.1054C96.7981 22.2342 96.8666 22.3528 96.6843 22.3905C96.5034 22.4275 96.4938 22.518 96.4938 22.518C96.4115 22.9799 96.3649 23.2479 96.3649 23.2479C96.3649 23.2479 96.4492 24.0019 96.0455 25.1526C95.6439 26.3 95.3396 27.4076 94.6357 30.3301C94.5109 30.84 94.3081 31.4884 94.0456 32.2321C92.8166 32.5062 91.6028 32.7756 90.7248 32.9661C90.062 33.1101 89.0799 33.2889 87.9572 33.4761C88.378 31.7009 88.7502 29.9518 88.8688 29.1869C89.0922 27.727 88.8756 26.3486 88.8756 26.3486C88.659 25.1005 88.5603 23.9601 88.0902 23.3569C87.6193 22.7538 87.1286 22.4453 86.6844 22.4234C86.2389 22.4015 85.9504 22.4234 85.6742 22.4234C85.3986 22.4234 85.5666 22.8024 85.5666 22.8024C85.1238 22.849 84.8757 22.8984 84.9908 23.9148C85.1032 24.9319 84.4151 29.5385 83.5172 33.4418L83.3424 34.182C81.3617 34.4603 79.6475 34.6673 79.0628 34.681C77.6845 34.7125 77.5269 34.6488 77.2054 34.5535C77.2054 34.5535 76.664 34.3547 76.6263 34.5227C76.5886 34.6892 76.5577 34.8907 76.6023 34.9298C76.6503 34.9682 76.7058 35.1765 76.6503 35.2142C76.5947 35.2519 76.4652 35.317 76.5632 35.4747C76.6592 35.633 77.0553 35.8249 77.3651 35.951C77.6736 36.0764 78.0505 36.2437 78.252 36.3993C78.252 36.3993 78.6242 36.7193 79.727 36.6529C79.727 36.6529 81.2458 36.6611 82.7016 36.6947C82.2705 38.2676 82.0107 38.9681 82.0107 38.9681C82.0107 38.9681 81.5296 40.0798 79.6071 44.0812C77.6845 48.0839 76.0615 49.811 75.3508 49.674C74.8957 49.5849 74.7826 48.7967 74.7599 48.2449C74.7695 48.1366 74.7737 48.0222 74.7689 47.896C74.7377 47.3213 74.7508 46.745 74.8079 46.1723C76.5495 44.5609 78.5872 42.3156 79.3994 41.3266C80.5207 39.9613 79.3432 39.391 78.8058 39.4143C78.0375 39.4445 77.2726 39.6048 75.6325 41.4136C74.5516 42.6089 73.8895 44.624 73.5763 46.273C73.1782 46.5562 72.7753 46.8327 72.3679 47.1024C72.2103 47.1935 71.7531 47.467 71.2877 47.8131C71.4591 46.992 71.6969 46.3683 71.8258 45.709C72.0986 44.3087 72.0903 44.2395 72.0903 44.2395L72.1733 43.8262C72.4282 42.2676 71.9197 41.5726 71.5955 41.5082C71.2734 41.4444 71.2432 41.2546 70.8278 41.0332C70.4111 40.8098 70.3467 40.9372 70.0904 41.064C69.834 41.1908 69.834 41.0956 69.7655 41.0462C69.6976 40.9955 69.6736 41.0325 69.0972 41.6679C68.5208 42.3019 67.7196 43.2237 67.111 44.0188C66.503 44.8118 65.1137 45.8241 64.5147 44.8118C63.917 43.8008 64.2625 42.0647 64.5469 41.7001C64.8313 41.3348 64.8348 41.1908 64.7697 41.1278C64.7052 41.0661 64.4818 40.9688 64.1939 41.0956C63.9061 41.2231 63.8718 41.3183 63.7141 41.574C63.5565 41.8283 63.3941 42.1518 62.5277 42.8742C61.6621 43.5959 58.8198 47.199 58.5881 47.48C58.3537 47.761 58.3304 47.7021 58.2666 47.6699C58.2036 47.6377 58.3886 46.3498 58.4585 45.6987C58.5271 45.0476 58.9102 43.452 59.3249 42.6521C59.7395 41.8529 60.1569 40.9688 60.1569 40.9688C60.2851 40.683 60.4784 39.8578 60.5099 39.7618C60.5394 39.6658 60.5606 39.3691 60.5099 39.3177C60.4578 39.2663 59.9664 39.2539 59.6121 39.1909C59.2903 39.1347 58.9647 39.1031 58.6381 39.0963C58.4311 39.0963 57.7862 38.9044 57.7862 38.9044C57.7862 38.9044 57.4997 39.4232 57.1474 40.1806C56.7882 40.2402 56.266 40.3451 55.8979 40.4959C55.2865 40.7474 54.0755 41.4431 53.2358 43.4465C52.3956 45.4506 52.9247 46.1332 53.1138 46.2155C53.301 46.2977 53.5881 46.7158 54.1022 46.4314C54.4949 46.212 55.1543 45.8097 55.5902 45.5027C55.3777 46.9879 55.2749 48.4135 55.3174 48.9091C55.3825 49.6705 55.0144 49.7953 55.863 50.4978C56.7128 51.199 56.6614 51.1551 56.9527 51.0365C57.2447 50.9179 57.4215 51.0955 57.6196 51.1935C57.8177 51.2915 58.2646 51.6075 58.4263 51.3216C58.5881 51.0365 58.8129 50.5273 59.3886 49.7658C59.9657 49.0036 62.3365 45.0661 63.5215 43.7323C63.5215 43.7323 63.3255 45.9358 65.2213 46.1791C67.1158 46.4204 67.6271 44.7604 69.481 44.1764C69.481 44.1764 69.5804 45.0592 69.4872 45.9955C69.4872 45.9955 69.3296 47.6144 69.1384 49.445C68.4993 49.9581 67.8677 50.4804 67.2439 51.0119C63.5126 54.1914 60.7368 58.9898 63.0397 61.5793C65.7813 64.6615 69.1404 58.1029 70.2878 52.9179C70.6373 51.3429 70.7435 50.3374 70.9348 49.4594C71.6241 48.8387 72.324 48.2297 73.0341 47.6329C73.152 47.5547 73.2809 47.4629 73.4125 47.3621C73.3926 47.5588 73.3755 47.7439 73.3679 47.9118C73.3679 47.9118 73.0341 49.6479 74.3295 50.6376C75.627 51.628 76.8826 51.4807 78.9333 48.4636C80.9847 45.4471 81.2705 45.0023 81.2705 45.0023C81.2705 45.0023 81.241 46.3361 81.0032 48.0934C80.7674 49.8522 81.1889 52.458 83.5789 53.8617C85.9682 55.2668 86.4953 53.4176 87.0079 52.3703C87.522 51.3237 90.1813 46.9701 90.8215 45.5424C91.4623 44.1134 92.585 42.7474 92.585 42.7474C92.585 42.7474 92.3293 44.2724 92.038 45.7329C91.7495 47.1928 91.6878 49.2572 91.5267 51.5451C91.3657 53.8316 91.8797 54.5608 91.8797 54.5608C92.7618 55.8912 96.9735 52.053 98.8954 50.4642C99.8687 49.6609 101.13 48.5287 102.33 47.395ZM76.0821 42.4945C77.3254 40.3252 78.5228 40.0017 78.6605 40.5466C78.8257 41.2032 76.3384 43.7953 75.5694 44.6521C75.3822 44.8522 75.1816 45.0393 74.969 45.212C75.1609 44.3861 75.5015 43.5088 76.0821 42.4945ZM56.024 43.1936C55.9692 43.4129 55.9164 43.6459 55.8684 43.8851C55.046 44.7665 54.3709 45.2806 54.0234 45.5191C53.6053 45.8049 53.6361 45.2998 53.8123 44.6535C54.0131 43.9215 54.3674 42.772 55.414 41.8584C56.0233 41.3279 56.4826 41.1278 56.7608 41.0531C56.4798 41.7241 56.2022 42.4773 56.024 43.1936ZM68.6202 53.872C68.3186 55.9145 66.1459 60.2948 64.6812 59.4929C63.2159 58.691 64.2583 54.2126 68.4612 51.236L68.9862 50.8617C68.856 52.0502 68.7237 53.1797 68.6202 53.872ZM104.536 40.1436C105.148 38.158 107.035 35.7947 107.035 35.7947C107.324 35.3506 107.695 35.1025 107.804 35.2211C107.914 35.339 108.58 35.4507 108.829 35.6666C109.079 35.8818 109.145 35.9202 108.637 36.8098C108.13 37.6995 106.426 39.9852 106.426 39.9852C105.943 40.5384 105.098 41.4438 104.075 42.5205C104.124 41.6898 104.289 40.9455 104.536 40.1436ZM88.1937 44.685C85.7694 48.6589 84.3822 50.1798 84.3822 50.1798C84.3822 50.1798 84.4446 48.5581 84.4446 47.7028C84.4446 46.8474 84.4775 46.528 84.7982 45.5431C85.1729 44.3995 85.4719 43.2325 85.6933 42.0496C85.9504 40.6823 86.2088 39.6357 86.8482 37.6672C86.9428 37.3773 87.0484 37.0175 87.1615 36.6145C88.315 36.4692 89.4164 36.2629 89.8482 36.1525C90.3787 36.0161 91.7721 35.659 92.7988 35.4123C91.4555 38.5939 89.6631 42.2779 88.1937 44.685ZM49.6581 52.5273C49.6855 52.4998 49.7211 52.4875 49.7013 52.4402C49.6876 52.4066 49.6396 52.3977 49.6245 52.3669C49.6094 52.3408 49.6211 52.275 49.6211 52.2462C49.6211 52.2113 49.6259 52.1832 49.6094 52.1544C49.5985 52.1373 49.5724 52.0961 49.5553 52.0913C49.5155 52.0811 49.4909 52.1236 49.471 52.1496C49.4477 52.1818 49.4216 52.2003 49.4093 52.2414C49.3709 52.3621 49.2941 52.5492 49.4079 52.6527C49.4586 52.6986 49.5505 52.6712 49.5889 52.6239C49.6135 52.5931 49.6293 52.5547 49.6581 52.5273Z" fill="#1B1B1B"/>
<path fill-rule="evenodd" clip-rule="evenodd" d="M52.6231 43.6473C52.756 43.5219 52.7115 43.4554 52.7115 43.4554C52.7115 43.4554 52.5778 43.3916 52.5168 43.4088C52.4551 43.4259 52.5004 43.4095 52.5285 43.3683C52.558 43.3272 52.5333 43.2916 52.4695 43.284C52.4044 43.2744 52.4778 43.2217 52.4874 43.1641C52.497 43.1072 52.4366 43.0681 52.3859 43.0229C52.3366 42.977 52.2475 42.9866 52.2598 42.9338L52.2721 42.8817L52.0981 42.8913C52.1803 42.8385 52.122 42.7762 51.9946 42.8159C51.8671 42.857 51.826 42.8803 51.5532 42.9125C51.4613 42.9242 50.8726 43.0167 50.133 43.1346L50.1604 42.9667C50.1844 42.8282 50.1659 42.8639 50.2077 42.7522C50.2489 42.6411 50.168 42.5753 50.2496 42.4917C50.3311 42.4067 50.3153 42.2038 50.1865 42.0976L50.0549 41.8721C50.0549 41.8721 50.7177 41.075 51.414 40.3382C52.109 39.6014 54.0501 37.4404 54.9986 34.9531C55.9465 32.4644 55.4633 32.2643 54.5936 31.7989C53.7252 31.3335 52.5394 31.5755 51.5134 31.7351C51.5134 31.7351 50.033 31.9887 49.6766 31.9887C49.3208 31.9901 49.1317 32.1272 49.1803 32.3232C49.2297 32.5192 48.9617 32.7393 48.863 32.9819C48.7636 33.2252 48.6656 33.5254 48.5655 33.7495C48.4655 33.973 48.2338 34.4856 48.3003 34.4541C48.3668 34.4212 48.5333 34.3074 48.5655 34.3897C48.5984 34.4699 48.6135 34.6337 48.532 34.8441C48.532 34.8441 48.2345 35.6673 47.9028 36.4356C47.5703 37.2039 46.3421 40.0181 45.9131 40.7858C45.4847 41.5534 45.02 42.4807 44.7219 43.0243C44.4251 43.5671 44.4498 43.807 44.0323 43.8947C43.6177 43.9818 43.3442 44.0099 43.1331 44.112C42.8905 44.2285 43.0982 44.4026 42.8322 44.4917C42.8638 44.5102 42.8987 44.5328 42.9247 44.5493C42.8507 44.6486 42.8665 44.6315 42.9385 44.7254C42.9021 44.7521 42.8816 44.7946 42.8315 44.8179C42.8596 44.8262 42.8905 44.8474 42.9364 44.8522C42.909 44.8803 42.8973 44.9399 42.8494 44.9701C42.9042 44.9612 42.9734 44.9811 43.0289 44.9763C42.9659 45.0715 42.9775 45.1524 43.1043 45.1853C43.1043 45.1853 43.3305 45.3313 43.4648 45.3909C43.4648 45.3909 41.7452 48.2079 41.5094 48.6842C41.2736 49.1627 41.1462 49.1688 41.2126 48.3676C41.2778 47.5657 41.2455 42.8653 41.6753 41.7453C42.105 40.6254 42.3312 39.9277 41.9405 39.4102C41.824 39.258 41.7541 39.0894 41.6677 38.9222C41.6366 38.8582 41.5908 38.8026 41.5341 38.7597C41.4676 38.7049 41.4313 38.6055 41.3435 38.5754C41.2462 38.5411 41.092 38.5699 40.9913 38.5685L40.9076 38.5692C40.7774 38.5706 40.6451 38.574 40.517 38.5603C40.3504 38.5445 40.2497 38.5192 40.0817 38.5644C39.92 38.6076 39.7623 38.6617 39.6006 38.7049C39.4313 38.7481 39.1249 38.8427 38.9632 38.7371C38.9248 38.7104 38.9049 38.6693 38.8563 38.6569C38.7802 38.6384 38.6781 38.6933 38.6136 38.7268C38.238 38.9222 38.3669 38.7899 37.9707 38.7584C37.5746 38.7262 37.3093 38.9811 35.6541 40.4198C33.9982 41.8577 32.3909 45.1421 32.0777 46.2038C31.7659 47.2648 31.2217 47.8042 31.7474 48.4725C32.2717 49.1414 33.1421 48.5293 33.9996 47.7439C34.8563 46.9577 36.615 45.6918 36.615 45.6918C36.5773 48.358 37.1099 52.4025 37.2757 53.5211C37.4423 54.6396 39.6184 55.3833 40.7459 55.2592C41.8727 55.1359 42.5615 52.6582 43.2894 51.2846C43.9844 49.9735 45.4258 47.395 45.5567 47.1579L45.4278 47.9927C45.4278 47.9927 45.2201 50.7315 45.0248 53.7294C45.0248 53.7294 45.0056 54.4189 45.1345 54.6081C45.2647 54.7966 45.2421 55.3086 45.2085 55.5985C45.1652 56.1548 45.1542 56.7132 45.1756 57.2709C45.2044 57.7177 44.9131 57.911 44.8795 57.6122C44.8589 57.4429 44.8041 57.3709 44.8096 57.2736C44.7328 58.6862 44.6807 59.9172 44.6807 60.6478C44.6807 61.998 45.2393 62.2413 45.4079 62.438C45.5107 62.5566 45.5628 62.292 45.8384 62.597C45.8384 62.597 46.0824 62.789 46.4998 62.8219C46.9165 62.8561 46.9679 63.1132 47.0926 63.0446C47.2181 62.9761 47.1824 62.7732 47.3709 62.7328C47.5587 62.693 47.7492 62.7259 47.9233 62.7883C48.0981 62.8527 48.2914 62.7773 48.3723 62.8637C48.4538 62.9487 48.4853 62.9363 48.4853 62.9363C48.4853 62.9363 48.5847 62.7924 48.6519 62.4682C48.7177 62.1447 48.7993 61.8671 48.8315 61.2276C48.863 60.6156 48.8815 59.5272 48.9123 57.9515C48.9123 57.9261 48.9123 57.9021 48.9137 57.8774C48.9192 57.765 48.9535 57.5628 49.1152 57.5478C49.3387 57.5272 49.2468 57.8391 49.1803 58.203C49.1152 58.5669 49.02 59.0577 49.1152 59.242C49.2084 59.425 49.3208 59.2393 49.3496 58.7527C49.3791 58.2667 49.4387 58.1036 49.4134 57.8349C49.3873 57.5683 49.2146 57.1331 49.314 56.8774C49.4134 56.6218 49.3455 56.5265 49.5779 56.6218C49.8109 56.7164 49.9425 56.7493 49.9425 56.7493C49.9425 56.7493 49.9665 56.445 49.743 56.3332C49.5196 56.2229 49.5765 56.0742 49.5765 56.0742C49.5765 56.0742 49.1447 56.434 49.1474 56.0776C49.1495 55.7212 49.2811 55.6609 49.2811 55.2784C49.2811 54.8946 49.0474 54.9309 49.081 54.7061C49.1152 54.4799 49.1611 54.484 49.2811 54.4799C49.2811 54.4799 49.2859 54.188 49.1803 54.0961C49.0762 54.005 48.8836 54.0461 48.8815 53.6677C48.8815 53.2908 48.8829 52.909 48.8884 52.5286C48.8904 52.5149 48.9295 52.262 49.2132 52.0207C49.5059 51.7719 49.3078 51.7096 49.1152 51.4765C48.9219 51.2421 49.2125 50.9961 49.2475 50.5499L49.2811 50.103C49.2811 50.103 49.4579 49.9652 49.5779 50.0893C49.6978 50.2127 49.5121 50.4217 49.545 50.6129C49.5779 50.8049 49.56 51.0632 49.619 51.0619C49.6772 51.0612 49.7081 51.2257 49.7773 51.2846C49.8459 51.3422 49.9877 51.26 49.9089 50.9659C49.8308 50.6712 50.0419 50.4855 49.9432 50.517C49.8431 50.5499 49.7506 50.5101 49.9089 50.3251C50.0672 50.1414 49.9315 50.1078 49.9706 49.8494C50.0083 49.5917 49.9761 49.5595 49.9761 49.5595C49.9761 49.5595 49.8424 50.079 49.7101 49.6232C49.6334 49.3539 49.6827 49.2668 49.743 49.1078C49.7746 49.1188 49.7766 49.1106 49.8034 49.1339C49.8191 49.1476 49.8287 49.1668 49.8513 49.1716C49.8829 49.1784 49.9596 49.1345 49.9816 49.1133C50.0076 49.09 49.9953 49.0825 50.0069 49.0496C50.0124 49.0359 50.0357 49.0139 50.0412 48.9995C50.0549 48.9543 50.0398 48.8851 49.9809 48.8768C49.9219 48.87 49.9089 48.9502 49.8575 48.9618C49.8068 48.9749 49.8287 48.9433 49.8068 48.9296L49.7965 48.9276C49.8171 48.8405 49.8363 48.7356 49.8431 48.589C49.876 47.9378 50.1399 47.6116 50.1742 47.0674C50.2077 46.5225 50.3058 45.8481 50.3058 45.6918V45.1092C50.4613 45.0846 50.6087 45.0565 50.7362 45.0208C51.9247 44.6994 52.7793 44.016 52.7793 44.016C52.7793 44.016 52.8499 43.9646 52.6875 44.014C52.6875 44.014 52.2722 44.1408 52.523 43.9352C52.7766 43.7302 52.8397 43.6631 52.8397 43.6631C52.8397 43.6631 52.4908 43.7727 52.6231 43.6473ZM52.4997 34.9147C53.4983 33.2218 54.3626 32.5028 54.5936 32.6289C54.8259 32.7578 54.8218 34.0381 53.634 36.2444C52.4442 38.4499 50.2859 40.3608 50.2859 40.3608C50.5395 39.4575 51.5018 36.6062 52.4997 34.9147ZM37.541 40.6432C37.3552 41.1072 36.7459 43.9023 36.7459 43.9023C36.7459 43.9023 33.7802 47.1161 32.6404 47.8974C31.5013 48.6788 33.9194 44.4382 34.8597 43.1353C35.7987 41.8337 37.0112 40.8673 37.3093 40.5802C37.6075 40.2923 37.726 40.1806 37.541 40.6432ZM48.9576 56.1571C48.9535 56.2777 49.0762 56.5354 49.0501 56.6005C49.0241 56.665 49.0042 56.6581 49.0042 56.6581C49.0042 56.6581 48.9631 56.6938 48.961 56.8212C48.961 56.9494 48.776 56.8966 48.7938 56.7664C48.813 56.6376 48.7499 56.3209 48.7232 56.2181C48.6971 56.116 48.7938 56.0378 48.7938 56.0378C48.9432 55.972 48.9617 56.0378 48.9576 56.1571ZM49.7088 48.6397C49.6437 48.8227 49.6121 49.016 49.4778 49.0804C49.3455 49.1435 49.157 49.284 49.1228 48.9413C49.4271 46.6301 49.5772 45.5006 49.5772 45.5006L49.6423 45.223C49.6423 45.4341 49.6491 45.9728 49.6766 46.1723C49.7115 46.4231 49.5114 46.7775 49.5772 46.9701C49.6437 47.1634 49.7095 47.2264 49.6437 47.3854C49.5772 47.5458 49.4147 47.8207 49.5128 47.9385C49.6087 48.0564 49.7746 48.1202 49.6772 48.1202C49.5786 48.1202 49.4127 48.0907 49.4127 48.249C49.4127 48.4074 49.5772 48.5369 49.5772 48.5369C49.5772 48.5369 49.7746 48.4553 49.7088 48.6397Z" fill="#1B1B1B"/>
<path fill-rule="evenodd" clip-rule="evenodd" d="M49.9337 55.6596L49.5286 55.517C49.5286 55.517 49.1845 55.9481 49.447 56.1626C49.7109 56.3765 49.9337 55.6596 49.9337 55.6596ZM48.8713 54.1407C49.0111 54.1188 48.9652 54.0297 48.9652 53.9728C48.9652 53.9337 48.9543 53.8906 48.9632 53.8522C48.9741 53.8097 49.0077 53.796 49.0481 53.7583C49.1078 53.7028 49.2058 53.6418 49.2414 53.5849C49.2599 53.552 49.2702 53.5129 49.2181 53.4875C48.983 53.3758 48.7041 53.6431 48.6732 53.7329C48.6486 53.8076 48.676 53.8974 48.676 53.9728C48.676 54.0372 48.6513 54.175 48.8713 54.1407Z" fill="#1B1B1B"/>
</svg>
