<svg width="164" height="45" viewBox="0 0 164 45" fill="none" xmlns="http://www.w3.org/2000/svg">
<path fill-rule="evenodd" clip-rule="evenodd" d="M164 0H0V45H164V0ZM118.03 12.2845C119.295 9.94639 120.341 9.27835 122.761 9.27835H129.748L115.389 35.8887H105.266L118.03 12.2845ZM102.956 11.8948C104.056 9.61237 105.156 9.27835 107.412 9.27835L114.124 9.33402L99.765 35.9443H86.2313L85.9562 9.33402H94.9787L94.7036 28.7072L102.956 11.8948ZM148.192 15.9446C147.634 15.9222 147.158 15.9031 146.748 15.9031C143.722 15.9031 141.741 16.1814 139.871 17.9072C137.945 19.8557 135.085 24.7546 135.085 27.0371C135.085 28.7072 136.79 29.2082 139.211 29.2082C140.661 29.2082 142.453 29.1622 144.309 29.1145C145.338 29.0881 146.387 29.0611 147.408 29.0412L143.502 35.833C140.751 36 136.955 36 134.424 36C127.658 36 125.017 33.8289 125.017 29.5979C125.017 25.3113 129.968 16.4598 132.939 13.4536C136.735 9.61237 140.696 9 147.793 9C149.443 9 152.909 9.11134 155 9.22268L151.094 16.0144C149.934 16.0144 148.981 15.9762 148.192 15.9446ZM65.3806 12.6742C67.5262 9.61237 68.2964 9.27835 71.4323 9.27835H81.1149L81.39 35.8887H72.3125L72.3675 31.3237H61.8597L58.8888 35.8887H43.2646L45.3001 20.0784L35.9476 33.8845C35.0123 35.2206 33.582 35.8887 31.8765 35.8887H26.0449L27.2552 19.967L17.7927 35.8887H8L25.7148 9.27835H35.9476L34.5172 23.7526L42.7144 11.6722C43.8698 9.94639 45.1901 9.27835 47.3907 9.27835H55.2028L52.5071 30.8783L65.3806 12.6742ZM65.9858 25.0887H72.4775L72.6426 14.6784L65.9858 25.0887Z" fill="#1B1B1B"/>
</svg>
