<svg width="75" height="14" viewBox="0 0 75 14" fill="none" xmlns="http://www.w3.org/2000/svg">
<path fill-rule="evenodd" clip-rule="evenodd" d="M52.5394 12.4477H50.6853L56.1263 1.85609H58.2632L63.7043 12.4477H61.829L60.3975 9.66169H53.9708L52.5394 12.4477ZM59.724 8.34923L57.1845 3.40581L54.645 8.34923H59.724ZM44.0501 1.57894L45.3185 0.130231H48.1384L44.0501 1.57894ZM40.4286 12.469H49.9949V11.2661H42.079V7.60869H47.9548V6.36539H42.079V3.04603H49.945V1.86749H40.4286V12.469ZM27.43 1.85609H34.4772C36.357 1.85609 37.8949 3.23849 37.8949 4.9286C37.8949 6.40139 36.7264 7.64055 35.182 7.93454L38.4913 12.4477H36.5503L33.2896 8.00085H28.9185V12.4477H27.43V1.85609ZM34.5568 3.11623L34.6554 3.1297L34.7516 3.14809L34.8461 3.1714L34.9387 3.19963L35.0289 3.23227L35.1166 3.26905L35.2016 3.31023L35.284 3.3553L35.364 3.40452L35.4407 3.45632L35.5144 3.51227L35.5851 3.57133L35.652 3.63323L35.7156 3.69773L35.7752 3.7643L35.8317 3.83346L35.8841 3.90469L35.9317 3.97747L35.9761 4.05129L36.0172 4.12693L36.0541 4.20463L36.0871 4.28234L36.1158 4.36005L36.142 4.43775L36.1634 4.51727L36.181 4.59757L36.1946 4.67864L36.2045 4.76101L36.2105 4.84442L36.2126 4.92963L36.2105 5.01485L36.2045 5.09826L36.1946 5.18063L36.181 5.2617L36.1634 5.342L36.142 5.42152L36.1158 5.49922L36.0871 5.57693L36.0541 5.65464L36.0172 5.73234L35.9764 5.80772L35.9317 5.87947L35.8833 5.95199L35.831 6.02296L35.7747 6.09212L35.7151 6.15895L35.6515 6.22319L35.5851 6.28535L35.5144 6.34441L35.4407 6.40036L35.364 6.45216L35.284 6.50112L35.2016 6.54619L35.1166 6.58737L35.0289 6.62415L34.9376 6.65731L34.845 6.68554L34.7506 6.70885L34.6543 6.72724L34.5557 6.74071L34.455 6.749L34.3394 6.75211H28.9969V3.10483H34.3373L34.456 3.10794L34.5568 3.11623ZM18.2786 1.23444C15.258 1.23444 12.8072 3.65991 12.8072 6.65005C12.8072 9.64019 15.257 12.0654 18.2776 12.0654C21.2981 12.0654 23.7479 9.64045 23.7479 6.65005C23.7479 3.65965 21.2994 1.23444 18.2786 1.23444ZM18.2786 0.0136719C14.2569 0.0136719 10.9957 2.98542 10.9957 6.64954C10.9957 10.3136 14.2569 13.2857 18.2786 13.2857C22.3003 13.2857 25.5618 10.3139 25.5618 6.64954C25.5618 2.98516 22.3003 0.0136719 18.2786 0.0136719ZM0.355591 12.469V1.86749H1.72134V11.3083H9.81255V12.469H0.355591ZM64.4943 12.469H74.0888V11.263H65.9976V1.86749H64.4943V12.469ZM7.02611 5.58159H8.28696L10.1785 1.9439H8.57366L7.02611 5.58159Z" fill="black"/>
</svg>
