<svg width="71" height="19" viewBox="0 0 71 19" fill="none" xmlns="http://www.w3.org/2000/svg">
<path fill-rule="evenodd" clip-rule="evenodd" d="M33.0939 16.367C33.0939 16.2908 33.0307 16.2307 32.955 16.2307C32.9345 16.2307 32.9147 16.2366 32.8951 16.2428V16.2418L32.8786 16.252C32.878 16.2537 32.8776 16.2537 32.8756 16.2557L32.8733 16.2579C32.7784 16.322 32.6805 16.3686 32.565 16.4048C32.4439 16.4419 32.3081 16.4613 32.1301 16.4613C31.3349 16.4613 30.9059 15.8128 30.8924 15.1777C30.8894 15.1222 30.8894 15.0766 30.8894 15.0766V7.91263L30.8888 7.91C30.7406 7.51707 29.3474 6.23713 28.591 6.07581L28.5787 6.07056L26.2132 8.38571L26.1939 8.40345L26.1953 8.40509C26.1827 8.42678 26.1748 8.45273 26.1748 8.47967C26.1748 8.55458 26.2353 8.61568 26.3104 8.61568C26.3332 8.61568 26.3557 8.61075 26.3749 8.59926L26.3865 8.59268C26.3878 8.59137 26.3878 8.59137 26.3898 8.58973H26.3927C26.4867 8.52369 26.5853 8.47606 26.7027 8.43926C26.8184 8.40345 26.9593 8.38472 27.1356 8.38472C27.9314 8.38472 28.3625 9.02994 28.377 9.66698V9.68964V16.9258V16.9307V16.9337C28.5232 17.3247 29.9177 18.6082 30.6767 18.7709L30.689 18.7722L33.0569 16.457L33.0714 16.4419L33.0694 16.4399C33.0846 16.4183 33.0939 16.3926 33.0939 16.367Z" fill="#1B1B1B"/>
<path fill-rule="evenodd" clip-rule="evenodd" d="M64.643 7.05318C64.6324 7.05318 64.589 7.0614 64.589 7.0614C64.5074 7.1005 64.429 7.14813 64.3549 7.19019C64.1865 7.28907 64.0294 7.34328 63.823 7.34328C63.6851 7.34328 63.529 7.3032 63.3623 7.2168C62.8701 6.96646 62.1758 6.47694 61.8719 6.19014C61.8491 6.17109 61.8163 6.15663 61.7836 6.15663C61.7435 6.15663 61.7111 6.17339 61.6866 6.19638L60.105 7.7063L60.0964 7.71386C60.0537 7.74638 60.0081 7.78318 59.9471 7.78318C59.8284 7.78318 59.757 7.67378 59.757 7.67378L59.7527 7.67214C59.3802 7.19019 58.2878 6.21675 57.6193 6.07581L57.6061 6.07056L55.2392 8.38603L55.2246 8.40345L55.226 8.40509C55.2114 8.42677 55.2044 8.45272 55.2044 8.47967C55.2044 8.55457 55.2647 8.61567 55.34 8.61567C55.3615 8.61567 55.3847 8.61108 55.4019 8.59958H55.4052L55.4162 8.59301C55.4174 8.59136 55.4174 8.59136 55.4198 8.58972C55.5164 8.52401 55.6145 8.47638 55.7314 8.43959C55.8484 8.40345 55.9897 8.38505 56.166 8.38505C56.9581 8.38505 57.3888 9.0303 57.404 9.66726L57.4059 16.9308V16.9338C57.5525 17.325 58.9444 18.6086 59.7025 18.7712L59.7173 18.7725L62.0816 16.4573L62.0998 16.44L62.0984 16.4393C62.113 16.417 62.1189 16.3913 62.1189 16.3674C62.1189 16.2908 62.0594 16.231 61.9834 16.231C61.9638 16.231 61.9413 16.2366 61.9238 16.2432L61.9231 16.2422L61.9086 16.2524C61.9049 16.254 61.9046 16.254 61.9046 16.256L61.9023 16.2583C61.8081 16.3224 61.7084 16.3687 61.5924 16.4051C61.4733 16.4419 61.3341 16.4616 61.1578 16.4616C60.3636 16.4616 59.9326 15.8128 59.9191 15.1778C59.9157 15.1226 59.9191 15.0768 59.9191 15.0768V14.9419V8.71686C59.9353 8.27795 59.9353 8.2717 60.1113 8.1081C60.1175 8.10186 60.1215 8.09889 60.1294 8.09496C60.1341 8.0874 60.1404 8.08411 60.1466 8.07919C60.152 8.07295 60.1569 8.06966 60.1652 8.06374C60.2015 8.03155 60.2694 7.97735 60.3113 7.97735C60.3666 7.97735 60.3811 7.99081 60.4199 8.01972C60.4294 8.02531 60.4373 8.03155 60.447 8.03878L60.4559 8.04567C61.2659 8.67908 61.8927 9.12683 62.4805 9.14036H62.4947C63.0606 9.14036 63.7228 8.5181 64.7353 7.29071L64.7544 7.26213C64.7706 7.23881 64.7802 7.21318 64.7802 7.18756C64.7802 7.11266 64.7184 7.05318 64.643 7.05318Z" fill="#1B1B1B"/>
<path fill-rule="evenodd" clip-rule="evenodd" d="M70.5871 6.96647C70.5871 6.89157 70.5229 6.81042 70.4409 6.81042C70.4068 6.81042 70.376 6.8193 70.3529 6.8377C70.2487 6.89748 70.1617 6.93724 70.037 6.97404C69.9054 7.01575 69.8287 7.03777 69.652 7.03777H69.5879H67.6149V3.35527V3.33655H67.6122C67.6073 3.30928 67.5961 3.27544 67.5735 3.2554C67.549 3.23076 67.5154 3.21631 67.4819 3.21631C67.4502 3.21631 67.4211 3.22945 67.4012 3.24948L65.1094 5.50353V16.666V16.9308V16.9337C65.251 17.3125 66.9193 18.6046 67.6946 18.7712L67.7049 18.7725L70.0718 16.4574L70.0909 16.4399L70.0877 16.4393C70.1032 16.4169 70.1108 16.3911 70.1108 16.3671C70.1108 16.2908 70.0493 16.2307 69.9719 16.2307C69.952 16.2307 69.9328 16.2366 69.9143 16.2428L69.9127 16.2419L69.8991 16.2524C69.8965 16.254 69.8951 16.254 69.8941 16.2557L69.8915 16.258C69.7956 16.3223 69.699 16.3686 69.5843 16.4048C69.4638 16.4419 69.3259 16.4614 69.148 16.4614C68.3508 16.4614 67.6414 15.8703 67.6252 15.1777C67.6218 15.1222 67.6235 15.0769 67.6235 15.0769L67.6201 14.7733L67.6149 8.86476L68.6498 8.91597H68.662L70.5507 7.06142L70.5682 7.04303L70.5652 7.04171C70.5798 7.02167 70.5871 6.99374 70.5871 6.96647Z" fill="#1B1B1B"/>
<path fill-rule="evenodd" clip-rule="evenodd" d="M6.47382 9.54536C6.45332 9.55649 6.43612 9.56537 6.41495 9.57425C6.39047 9.58346 6.36236 9.59101 6.34284 9.59101C6.2929 9.59101 6.23237 9.54893 6.23237 9.47207L6.23304 3.89232C6.23304 3.81676 6.30481 3.77371 6.3736 3.71688L6.37923 3.71228L7.70194 2.59626C7.7714 2.54337 7.82332 2.52103 8.03071 2.62517C8.21395 2.71486 8.39256 2.84233 8.50766 2.94451C9.20558 3.55492 9.60051 4.41567 9.61004 5.2383C9.63753 7.17006 8.46301 8.36262 6.47382 9.54536ZM5.86027 16.0098C5.86027 16.0594 5.85101 16.0952 5.81561 16.0952C5.80735 16.0952 5.77692 16.0821 5.76634 16.0762C5.42962 15.8157 5.22389 15.4066 5.21397 14.9795C5.21397 14.9224 5.21166 4.83881 5.21166 4.73828C5.21397 4.70412 5.22852 4.67258 5.25531 4.64991L5.76898 4.22052C5.78088 4.21066 5.79478 4.20343 5.81164 4.20343C5.84571 4.20343 5.86027 4.23136 5.86027 4.2445V16.0098ZM14.7871 16.2336C14.7871 16.1573 14.7246 16.1008 14.6492 16.1008C14.6264 16.1008 14.6022 16.1038 14.5827 16.1166L14.5754 16.1222H14.5715L14.5701 16.1241C14.4666 16.1945 14.3641 16.2447 14.2417 16.2831C14.1147 16.3219 13.9671 16.3417 13.7796 16.3417C13.1485 16.3417 12.534 15.9257 12.3243 15.362L12.32 15.3426C12.3144 15.3288 12.3097 15.3242 12.3048 15.3058C12.0941 14.3593 12.1358 12.2829 12.3272 10.6291L12.315 10.5979C12.1926 10.2905 11.674 9.7112 11.0988 9.2805C10.6139 8.90998 10.0371 8.57453 9.62625 8.39417H9.62366C9.61004 8.38562 9.59717 8.38037 9.58497 8.3761C9.51945 8.34226 9.47708 8.32288 9.4414 8.30809V8.30546H9.43906C9.42878 8.30251 9.41725 8.29462 9.40405 8.29101C9.27436 8.23187 9.27436 8.20033 9.43906 8.08961C9.4414 8.08732 9.44374 8.08634 9.44633 8.0837C9.45594 8.07877 9.48435 8.05841 9.4953 8.05052C10.2739 7.54525 10.8779 7.07643 11.3601 6.40524C11.8355 5.73997 12.1669 5.14927 12.1669 3.96788C12.1669 3.1666 11.9413 2.62189 11.5242 2.01575C11.0469 1.32026 9.93619 0.588948 9.61004 0.528827L5.30294 4.13412C5.29004 4.14266 5.28144 4.14529 5.27218 4.14529C5.24043 4.14529 5.21166 4.11867 5.21166 4.08681L5.21397 2.46288C5.13657 2.26412 4.73768 1.82291 4.26205 1.41389C3.69678 0.928648 3.16558 0.607017 2.80903 0.528827L2.79976 0.526855L0.305182 2.96619L0.29559 2.97966C0.279714 3.00266 0.268799 3.03026 0.268799 3.05851C0.268799 3.13276 0.328666 3.19287 0.405402 3.19287C0.427893 3.19287 0.449724 3.18696 0.4699 3.17678L0.481476 3.17284C0.481476 3.16889 0.4828 3.1666 0.4828 3.1666H0.485776C0.586989 3.09727 0.69217 3.04865 0.815873 3.00857C0.939907 2.96816 1.08776 2.95239 1.27695 2.95239C2.12038 2.95239 2.58411 3.63475 2.59932 4.31119L2.60163 16.0472L2.60163 16.8292C2.67606 17.0273 3.07496 17.4668 3.56084 17.8779C4.13536 18.3628 4.66888 18.687 5.0261 18.7616L5.03404 18.7649L7.52829 16.3242L7.5392 16.3143C7.55574 16.2904 7.56632 16.2635 7.56632 16.2336C7.56632 16.1573 7.50579 16.1008 7.43071 16.1008C7.40657 16.1008 7.38375 16.1038 7.3629 16.1166L7.35365 16.1205L7.35299 16.1222L7.34835 16.1241C7.24681 16.1945 7.14196 16.2447 7.02024 16.2831C6.86677 16.3308 6.66831 16.3417 6.53105 16.3417C6.47052 16.3417 6.43612 16.337 6.37857 16.3308C6.35971 16.3269 6.33392 16.3193 6.32664 16.3193C6.25983 16.3016 6.23468 16.2887 6.23304 16.2385V16.204V15.9823V10.1508C6.23304 10.1016 6.25983 10.0467 6.34218 10.0049L6.77581 9.80549C6.81947 9.78814 6.87603 9.78814 6.96236 9.80026C7.70623 9.93008 9.20558 10.9281 9.48736 11.4009C9.62692 11.6039 9.58923 11.8388 9.57636 12.142C9.57636 12.1634 9.57469 12.1874 9.57402 12.2091C9.57402 12.2189 9.56608 12.4357 9.56775 12.4357C9.50257 13.809 9.62859 16.3193 9.84594 16.8295C9.92031 17.0299 10.3215 17.4688 10.7955 17.8779C11.3608 18.3644 11.8913 18.687 12.2443 18.7616L12.2548 18.7649L14.7484 16.3242L14.7596 16.3143C14.7772 16.2904 14.7871 16.2635 14.7871 16.2336Z" fill="#1B1B1B"/>
<path fill-rule="evenodd" clip-rule="evenodd" d="M26.8054 16.367C26.8054 16.2908 26.7429 16.2307 26.6661 16.2307C26.646 16.2307 26.6228 16.2366 26.6039 16.2448L26.5934 16.252C26.5907 16.2537 26.5894 16.2537 26.5874 16.2557V16.2579C26.4924 16.322 26.3922 16.3686 26.2785 16.4048C26.1558 16.4419 26.0195 16.4613 25.8416 16.4613C25.0487 16.4613 24.6194 15.8128 24.6042 15.1777C24.6012 15.1222 24.6029 15.0766 24.6029 15.0766L24.6009 8.37191V7.91263L24.5999 7.91C24.4527 7.51707 23.0595 6.23713 22.3014 6.07581L22.2892 6.07056L19.9223 8.38571L19.9071 8.40345L19.9078 8.40509C19.8916 8.42678 19.8853 8.45273 19.8853 8.47967C19.8853 8.55458 19.9458 8.61568 20.0222 8.61568C20.0436 8.61568 20.0662 8.61075 20.083 8.59926H20.0867L20.097 8.59268C20.0992 8.59137 20.0992 8.59137 20.1016 8.58973H20.1032C20.1992 8.52369 20.2954 8.47606 20.4108 8.43926C20.5322 8.40345 20.6718 8.38472 20.8478 8.38472C21.6416 8.38472 22.0716 9.02994 22.0861 9.66698L22.0877 9.82103V15.3581V15.3594C22.0861 15.8328 22.0861 15.87 21.6416 16.2159L20.728 16.9183C20.6794 16.9508 20.6149 16.9693 20.5368 16.9693H20.5358C19.9507 16.9693 18.7961 16.0112 18.6009 15.771C18.5919 15.7612 18.5811 15.7527 18.5754 15.7431C18.4544 15.5973 18.3882 15.5168 18.3856 15.1922L18.3859 15.0526C18.3859 15.0477 18.3856 15.042 18.3846 15.0355V7.91591L18.384 7.91C18.2357 7.51707 16.8426 6.23713 16.0858 6.07581L16.0726 6.07056L13.7053 8.38571L13.6875 8.40345L13.6918 8.40509C13.6782 8.42678 13.669 8.45273 13.669 8.47967C13.669 8.55458 13.7272 8.61568 13.8063 8.61568C13.8267 8.61568 13.8492 8.61075 13.871 8.59926L13.8813 8.59268C13.8813 8.59268 13.8823 8.59137 13.8853 8.58973H13.8872C13.9818 8.52369 14.0798 8.47606 14.1948 8.43926C14.3132 8.40345 14.4529 8.38472 14.6315 8.38472C15.4243 8.38472 15.8556 9.02994 15.8701 9.66698V9.73363L15.8735 16.4002V16.4035L15.8752 16.4071C16.0091 16.7603 16.4794 17.303 17.0735 17.7866C17.7294 18.3194 18.3941 18.6783 18.8996 18.7709L18.9112 18.7722L21.8218 16.4955C21.8512 16.4731 21.923 16.4222 21.9737 16.4222C22.0494 16.4222 22.0861 16.5007 22.0861 16.6515V16.9584L22.0897 16.9636C22.3997 17.4636 23.6602 18.6158 24.3879 18.7709L24.3995 18.7722L26.7664 16.457L26.7832 16.4419L26.7826 16.4399C26.7968 16.4183 26.8054 16.3926 26.8054 16.367Z" fill="#1B1B1B"/>
<path fill-rule="evenodd" clip-rule="evenodd" d="M45.5104 16.367C45.5104 16.2908 45.4476 16.2307 45.3725 16.2307C45.3506 16.2307 45.3288 16.2366 45.3077 16.2448L45.2971 16.252C45.2971 16.2537 45.2951 16.2537 45.2951 16.2557L45.2915 16.2579C45.1982 16.322 45.0999 16.3686 44.9835 16.4048C44.8651 16.4419 44.7268 16.4613 44.5489 16.4613C43.7541 16.4613 43.3231 15.8128 43.3086 15.1777V15.0766V8.4892L43.294 8.44255V8.44123C43.1535 8.09496 42.6871 7.58048 42.0778 7.10411C41.4054 6.58175 40.6935 6.20361 40.1227 6.07581L40.1131 6.0722L37.3221 7.8502C37.2874 7.86926 37.2329 7.88995 37.1866 7.88995C37.1217 7.88995 37.0668 7.83378 37.0295 7.78319C36.8687 7.54139 36.479 7.14945 36.0584 6.8104C35.7699 6.57518 35.2172 6.16616 34.7949 6.07581L34.78 6.07056L32.415 8.38571L32.3978 8.40345L32.4011 8.40509C32.3849 8.42678 32.3773 8.45273 32.3773 8.47967C32.3773 8.55458 32.4405 8.61568 32.5162 8.61568C32.5351 8.61568 32.5582 8.61075 32.5761 8.59926V8.60188L32.59 8.59268L32.5933 8.59137L32.5979 8.58973C32.6909 8.52369 32.7908 8.47606 32.9072 8.43926C33.0243 8.40345 33.1622 8.38472 33.3402 8.38472C34.1336 8.38472 34.5643 9.02994 34.5788 9.66698V16.9307L34.5815 16.9337C34.728 17.3247 36.1205 18.6082 36.8819 18.7709L36.8948 18.7722L39.2614 16.457L39.2773 16.4419L39.2759 16.4399C39.2905 16.4166 39.2954 16.3926 39.2954 16.367C39.2954 16.2908 39.2366 16.2307 39.1611 16.2307C39.138 16.2307 39.1178 16.2366 39.0954 16.2448L39.0837 16.252C39.0834 16.2537 39.0802 16.2537 39.0802 16.2557V16.2579C38.9832 16.322 38.8853 16.3686 38.7709 16.4048C38.6498 16.4419 38.5142 16.4613 38.3349 16.4613C37.5427 16.4613 37.1118 15.8128 37.0969 15.1777C37.0936 15.1222 37.0946 15.0766 37.0946 15.0766V15.0004L37.0936 8.84468C37.0936 8.82134 37.0946 8.75957 37.0969 8.74414V8.74019C37.0969 8.73362 37.0992 8.72902 37.0992 8.72048C37.1032 8.70964 37.1042 8.69847 37.1042 8.68763C37.1042 8.37027 37.2669 8.27007 37.8871 7.9008L38.1838 7.72044C38.7368 7.72274 39.3113 8.02958 39.6914 8.28846C40.1398 8.59498 40.5008 8.94943 40.6244 9.14199C40.7792 9.3851 40.7938 9.43441 40.7961 9.72608V16.9307L40.7988 16.9337C40.9443 17.3247 42.3374 18.6082 43.0925 18.7709L43.1068 18.7722L45.4717 16.457L45.4889 16.4419V16.4399C45.5035 16.4166 45.5104 16.3926 45.5104 16.367Z" fill="#1B1B1B"/>
<path fill-rule="evenodd" clip-rule="evenodd" d="M51.2739 15.995C51.2739 16.3534 51.1895 16.423 51.1895 16.423L50.5376 16.8916C50.4652 16.9438 50.3683 16.9599 50.2568 16.9599C50.0921 16.9599 49.8655 16.9027 49.6926 16.7998C49.6889 16.7982 49.687 16.7982 49.687 16.7959C49.687 16.7959 49.687 16.7939 49.6839 16.7939V16.7926L49.6717 16.7837C49.3168 16.5699 49.033 16.27 48.8299 15.9661C48.429 15.3619 48.314 14.9913 48.314 14.5143C48.314 14.0014 48.525 13.6063 49.0433 13.2452C49.6992 12.7872 50.4675 12.3575 51.0996 12.047C51.1115 12.0417 51.1241 12.0382 51.1446 12.0382C51.2137 12.0382 51.2739 12.093 51.2739 12.159V12.1669V15.9079V15.995ZM56.1175 16.2505C56.1175 16.1743 56.0547 16.1142 55.9802 16.1142C55.9591 16.1142 55.9363 16.1201 55.9177 16.1284H55.9154L55.9035 16.1359C55.9035 16.1376 55.9022 16.1376 55.9012 16.1391L55.8976 16.1415C55.8027 16.2059 55.7047 16.2522 55.591 16.2886C55.4712 16.3255 55.3329 16.3448 55.155 16.3448C54.2878 16.3448 53.7721 15.6753 53.7586 15.0613C53.7562 15.0057 53.7562 14.9604 53.7562 14.9604V14.829V8.09151L53.7549 8.0879C53.5694 7.4673 51.6857 6.07335 50.4483 5.95935H50.4434L47.3934 7.88487L45.5888 9.74466L45.6004 9.76109C46.038 10.4891 47.1414 11.2122 47.3726 11.296L47.3898 11.3013L49.1511 9.48943C49.1752 9.45258 49.1663 9.42768 49.125 9.39937C48.8706 9.27064 48.2091 8.74822 47.7311 8.25413C47.7083 8.22489 47.6782 8.19959 47.6782 8.14802C47.6782 8.10564 47.7338 8.0695 47.753 8.05832L48.5997 7.55305C49.0529 7.58984 49.7772 7.83789 50.3861 8.21766C50.9352 8.55835 51.2739 9.00088 51.2739 9.19768V11.4711V11.4826C51.2739 11.5693 51.2174 11.6498 51.135 11.683L51.1162 11.6879V11.6919C49.5156 12.4912 47.9263 13.3874 47.1632 13.9305C46.6499 14.2912 46.3493 14.596 46.1855 15.0156C45.9775 15.5666 46.0975 16.3987 46.4789 17.04C46.9737 17.8771 47.7894 18.408 48.7562 18.6679L48.7674 18.6712L51.1082 16.8419C51.1162 16.8347 51.13 16.8271 51.1446 16.8173C51.1799 16.7913 51.227 16.7542 51.2739 16.7275L51.2779 16.723C51.303 16.7085 51.3179 16.7 51.3456 16.7C51.3807 16.7 51.3883 16.7085 51.4125 16.7361C51.4145 16.7404 51.4184 16.743 51.4221 16.7493C51.4403 16.772 51.513 16.8767 51.5723 16.9664L51.5772 16.9756C51.9295 17.4881 53.0342 18.5102 53.7013 18.6548L53.7139 18.656L56.0782 16.3409L56.097 16.3255L56.0934 16.3235C56.1093 16.3005 56.1175 16.2749 56.1175 16.2505Z" fill="#1B1B1B"/>
<path fill-rule="evenodd" clip-rule="evenodd" d="M31.1207 3.1784C30.629 2.85513 29.7077 1.89089 29.3674 1.43457L29.3466 1.40894L29.329 1.43457C28.9871 1.89089 28.0652 2.85677 27.5763 3.1784L27.5429 3.19746L27.5763 3.22046C28.0652 3.54142 28.9871 4.50336 29.329 4.961L29.3466 4.98761L29.3674 4.961C29.7077 4.50599 30.629 3.54241 31.1207 3.22046L31.1505 3.19746L31.1207 3.1784Z" fill="#1B1B1B"/>
</svg>
