<svg width="85" height="84" viewBox="0 0 85 84" fill="none" xmlns="http://www.w3.org/2000/svg">
<path d="M25.0211 76.4347C27.4429 69.7217 22.0895 64.4108 14.4843 57.8677L13.592 57.1029C4.07486 48.9454 -0.471277 39.8106 0.0385708 29.9535C0.378469 23.2406 3.35258 16.8675 8.45106 11.9814C13.3796 7.22284 19.8377 4.46117 26.1258 4.46117C31.1393 4.46117 35.8979 6.16066 40.0191 9.43218C45.1176 3.56893 52.7653 0 60.4555 0C66.6587 0 72.2245 2.25183 76.6432 6.50056C90.5365 19.969 85.5655 42.6148 72.9893 55.9133C61.4327 68.1496 45.8399 75.33 30.332 81.0658C28.9299 81.5756 23.1517 83.4451 20.8998 83.9124C22.9817 81.0233 24.7237 77.3694 25.0211 76.4347Z" fill="#F5F2EE"/>
<path d="M75.0712 8.07216C64.7043 -1.99733 48.1342 1.74155 40.2741 12.5758C25.361 -1.61495 3.14019 11.9385 2.20547 30.0806C1.65313 40.5325 7.38892 48.9025 15.0366 55.4455C22.6419 61.9885 32.4564 69.7212 25.4035 80.4705C41.8461 74.6498 59.0535 67.3844 71.3748 54.3833C83.7386 41.3397 87.6049 20.181 75.0712 8.07216Z" fill="#1B1B1B"/>
<path d="M20.3475 34.9678C20.9423 35.3502 21.962 35.8176 22.5993 35.4352C23.0242 35.2227 23.0666 34.6704 22.8117 34.288C22.3444 33.6082 21.3247 33.6932 20.6874 33.3533C19.7526 32.8859 19.0303 31.8662 18.5205 30.3367C17.7982 28.2123 17.8832 26.2154 18.8604 24.261C19.8376 22.3066 21.3672 20.9895 23.449 20.3097C25.1485 19.7573 26.6781 19.7149 28.0801 20.2672C26.5506 22.8164 25.4459 26.3004 24.8511 30.3367L24.7236 30.2092C24.3413 29.6994 23.9164 28.8071 23.3216 29.0196C22.9817 29.147 22.8967 29.4445 23.0242 29.8693C23.1941 30.2942 23.8739 31.2714 24.5537 31.9087C23.5765 38.3243 21.962 41.001 19.9226 42.0632C18.6905 42.7005 17.3733 42.0207 17.5008 40.5336C17.5858 39.6839 18.3081 39.2165 18.7754 38.6217C19.2003 38.0694 19.2853 37.517 19.1153 36.9222C18.9454 36.4124 18.6055 36.03 18.0531 35.7751C17.5008 35.5201 16.9485 35.4777 16.3961 35.6476C15.6314 35.9025 15.0365 36.4124 14.6117 37.1771C14.1018 38.1544 14.0593 39.3015 14.5267 40.6186C15.0365 42.0632 16.0137 43.0829 17.4583 43.6352C18.9029 44.1875 20.4749 44.1875 22.1744 43.6352C23.9164 43.0404 25.6159 41.8932 26.8055 40.2362C28.1651 38.2818 28.7599 36.4124 28.8024 33.5232C29.9496 33.6082 31.0118 33.4383 32.0739 33.0984C33.731 32.546 35.0056 31.3989 35.8128 29.6994C36.6201 27.9574 36.7476 26.2579 36.1102 24.4734C35.7279 23.3688 35.0905 22.3066 34.1558 21.2869C33.1361 20.1822 31.989 19.375 30.6719 18.8226C31.0118 18.2703 31.5216 17.6755 32.2439 17.1231C32.8387 16.6983 32.8387 16.3584 32.6688 16.0185C32.4988 15.7211 32.1589 15.6786 31.819 15.806C31.6066 15.891 31.3517 16.061 31.1392 16.3159C30.5019 17.0382 29.8646 17.7604 29.3548 18.4402C27.6978 17.9729 25.9133 18.0579 24.0438 18.6527C21.0697 19.6299 18.9454 21.3719 17.7132 23.9211C16.5661 26.3004 16.3961 28.7222 17.2459 31.1864C17.5433 31.9087 18.3506 33.6932 20.3475 34.9678ZM32.1164 28.5522C31.819 29.8268 31.2242 31.1864 29.9496 31.6538C29.6097 31.7813 29.2698 31.8237 28.8874 31.8237C28.8024 27.1077 29.0574 23.3688 29.7371 21.1594C30.7144 21.9242 31.4366 22.9439 31.8615 24.176C32.3289 25.7056 32.4563 27.1501 32.1164 28.5522Z" fill="#F5F2EE"/>
<path d="M66.3613 15.6347C66.1064 14.9549 65.1717 14.7425 64.5344 14.8275C63.982 14.8699 63.3022 15.1249 63.0048 15.5922C62.7074 16.0596 62.7074 16.6544 62.7074 17.1643C62.7074 17.5042 62.5375 17.8016 62.2825 18.0565L59.3509 20.4358C59.3509 20.4358 61.5178 9.55903 61.6027 9.21913C61.7302 8.79426 61.7302 8.32689 61.7302 8.32689C61.7727 8.07197 61.4753 8.02948 61.2628 8.07197C61.2628 8.07197 61.1354 8.11446 59.9882 8.66679C58.6286 9.34659 58.2887 9.85644 57.9488 11.1735C57.9488 11.1735 56.3343 19.671 55.3146 24.7695C55.1022 25.3643 54.9322 25.9166 54.7198 26.5115C54.4649 27.1913 54.0825 28.041 53.6151 28.5508C53.4452 28.7633 53.1903 29.1032 52.8929 29.0607C52.2555 29.0182 52.6804 27.2337 52.7229 26.8938C52.7229 26.7664 52.7654 26.6389 52.8079 26.5539L52.9778 25.8742C53.2752 24.642 53.4877 23.5798 53.3602 22.7726C53.2327 21.9228 52.9353 21.5404 52.383 21.2005C51.4058 20.5632 49.5364 21.0731 48.5591 22.0928C48.0918 22.5601 47.6244 23.07 47.2845 23.6223C47.2845 23.6223 47.1146 23.9197 47.0721 23.9197C47.0721 23.9197 47.327 22.5177 47.327 22.4752C47.3695 22.2202 47.0296 22.1353 46.8172 22.1778C46.8172 22.1778 46.9021 22.1353 45.755 22.7301C44.7778 23.2399 44.013 23.6648 43.7581 25.0669C43.7581 25.0669 43.6731 25.3643 43.5456 25.8742C43.5032 25.9591 43.5032 26.0866 43.4607 26.1716L43.3332 26.6389C42.9933 27.8286 42.6109 29.0182 42.1436 30.1654C41.8886 30.8452 41.5487 31.6099 41.1239 32.1623C40.9539 32.3747 40.699 32.7146 40.4016 32.7146C39.7643 32.7146 40.1467 30.8877 40.1891 30.5478C40.2316 30.1654 40.3166 29.783 40.3591 29.4006C40.4866 28.6783 40.6565 27.8711 40.8689 27.0213L41.5063 24.2171C41.5487 23.9622 41.2088 23.8772 40.9964 23.9197C40.9964 23.9197 40.8689 23.9622 39.7218 24.5146C38.7446 25.0244 38.0223 25.4493 37.7249 26.8514C37.5124 27.7861 37.3425 28.6783 37.1725 29.613C36.9176 31.0576 36.3228 33.2245 37.9798 34.2017C38.4897 34.4991 39.127 34.5416 39.8068 34.2866C40.5715 34.0317 41.2088 33.6068 41.6762 33.012C41.8462 32.7996 42.0161 32.5447 42.1436 32.2897C42.271 32.8421 42.6109 33.3519 43.2907 33.2669C43.7581 33.2245 44.3104 33.012 44.6503 32.8846C45.2876 32.7146 45.4151 31.8649 45.4151 31.8649C45.755 30.0379 46.1799 28.4659 46.1799 28.4659C46.5198 27.0213 47.6244 24.642 48.7291 23.6648C48.899 23.5373 49.154 23.3674 49.3664 23.4524C49.7913 23.5798 49.6638 24.3446 49.6213 24.642C49.6213 24.642 48.984 27.6161 48.984 28.1685C48.9415 30.0379 49.6213 31.4825 52.2131 30.7177C52.9778 30.5053 53.7426 29.9954 54.2524 29.4006C54.4224 29.1882 54.5499 28.9332 54.6773 28.6783C54.8048 29.2306 55.1447 29.698 55.8245 29.6555C56.2918 29.613 56.8442 29.4006 57.1841 29.2731C57.8214 29.1032 58.0763 28.211 58.0763 28.211C58.5861 26.3415 59.3084 22.985 59.3084 22.985L61.3478 25.7467C62.495 27.4887 63.6846 27.3612 64.5769 27.1063L64.8743 27.0213C65.639 26.7664 66.2764 26.3415 66.7437 25.7467C66.9137 25.5343 67.0411 25.3218 67.1686 25.0669C67.466 24.557 67.7209 23.9197 67.8909 23.3249C67.9334 23.155 67.9758 22.9425 68.0183 22.7726C68.0608 22.4752 68.1033 21.7954 67.7209 21.6679C67.4235 21.5829 67.1686 21.7104 67.0411 21.9653C66.9561 22.1778 66.9561 22.4327 66.9561 22.6451C66.9137 23.4099 66.6162 24.2596 66.1489 24.8545C65.9364 25.1094 65.5965 25.5343 65.1717 25.3218C64.8743 25.1519 62.495 22.0928 61.7302 20.6482C62.4525 20.0109 64.0245 18.6513 65.2991 17.5891C65.894 17.2492 66.7012 16.442 66.3613 15.6347Z" fill="#F5F2EE"/>
<path d="M71.5875 34.0746C71.5875 34.0746 71.46 34.1171 70.3129 34.6694C68.9533 35.3492 68.5284 35.7741 68.146 37.0062C68.146 37.0062 66.9139 41.5099 66.659 42.2322C66.404 42.912 66.0641 43.6767 65.6393 44.2291C65.4693 44.4415 65.2144 44.7814 64.917 44.7814C64.2797 44.7814 64.6621 42.9544 64.7046 42.6145C64.747 42.2322 64.832 41.8498 64.8745 41.4674C65.002 40.7451 65.2994 39.7679 65.4693 38.9181L66.1491 36.114C66.1916 35.8591 65.8517 35.7741 65.6393 35.8166C65.6393 35.8166 65.5118 35.8591 64.3647 36.4114C63.0051 37.0912 62.6227 37.5161 62.3678 38.7482C62.3678 38.7482 62.1128 39.9378 61.8154 41.2549C61.603 42.0622 61.2206 43.1244 60.9657 43.8892C60.7107 44.569 60.3709 45.3337 59.946 45.8861C59.776 46.0985 59.5211 46.4384 59.2237 46.4384C58.5864 46.4384 58.9688 44.6114 59.0113 44.2715C59.0537 43.8892 61.603 31.4404 61.688 31.1005V31.058C61.8154 30.6331 61.8154 30.1658 61.8154 30.1658C61.8579 29.9108 61.5605 29.8684 61.3481 29.9108C61.3481 29.9108 61.2206 29.9533 60.0734 30.5057C59.0962 31.0155 58.3315 31.4404 58.0765 32.8425C58.0765 32.8425 56.6745 38.9181 56.5045 39.8529C56.0796 39.428 55.6548 39.258 55.6548 39.258C55.1874 39.0456 54.5501 38.9181 53.9128 39.1306C52.8931 39.4705 52.2983 39.8954 51.576 40.5327C50.8537 41.17 50.3014 41.9347 49.919 42.6995C49.4941 43.5068 49.2817 44.314 49.1967 45.1213C49.1967 45.2488 49.1967 45.3337 49.1967 45.4187C48.9843 46.056 48.8143 46.6933 48.5594 47.3306C48.3045 48.0104 47.9646 48.7752 47.5397 49.3275C47.3697 49.54 47.1148 49.8799 46.8174 49.8799C46.1801 49.8799 46.5625 48.0529 46.605 47.713C46.6474 47.3306 47.9646 41.3824 47.9646 41.3824C48.007 41.1275 47.6671 41.0425 47.4547 41.085C47.4547 41.085 45.2454 41.8498 44.6081 42.6145C44.3106 42.9544 44.2257 43.2943 44.0982 43.6767C43.8433 43.2943 43.6309 42.9969 43.036 42.6995C42.5687 42.4871 42.0588 42.5296 41.5915 42.657C40.5718 42.9969 40.0194 43.3368 39.2971 44.0166C38.5749 44.6539 37.98 45.4612 37.5977 46.2684C37.1728 47.0757 36.9603 47.883 36.8754 48.6902C36.7904 49.54 36.8754 50.3047 37.1303 50.9845C37.4702 52.0042 37.9376 52.6415 38.5324 53.0239C39.1272 53.3638 39.807 53.4488 40.6143 53.1514C41.0391 53.0239 41.4215 52.8115 41.7614 52.5141C42.0588 52.2592 42.3562 51.9193 42.6112 51.5794C42.8661 51.2395 43.3334 50.1348 43.3334 49.8799C43.5884 50.6022 43.9707 51.112 44.4806 51.4094C44.9904 51.7068 45.6278 51.7493 46.35 51.5369C47.1148 51.282 47.7521 50.8571 48.2195 50.2623C48.6019 49.7524 48.8568 49.1576 49.1117 48.6053C49.2817 48.2229 49.4091 47.8405 49.5791 47.4581V47.5006C49.919 48.5203 50.3863 49.1576 50.9812 49.54C51.576 49.8799 52.2558 49.9224 53.063 49.6674C53.4879 49.54 53.8703 49.3275 54.2102 49.0301C54.5076 48.7752 54.805 48.4353 55.0599 48.0954C55.3149 47.7555 55.7822 46.6508 55.7822 46.3959C56.0371 47.1182 56.4195 47.628 56.9294 47.9255C57.4392 48.2229 58.0765 48.2654 58.7988 48.0104C59.5636 47.7555 60.2009 47.3306 60.6683 46.7358C61.0506 46.226 61.3056 45.6311 61.5605 45.0788C61.5605 45.0363 61.603 44.9938 61.603 44.9513C61.8579 45.5887 62.1978 46.056 62.6652 46.3109C63.175 46.6083 63.8123 46.6508 64.5346 46.3959C65.2994 46.141 65.9367 45.7161 66.404 45.1213C66.6165 44.8664 66.7439 44.6114 66.9139 44.314L66.574 45.8436C66.5315 45.971 66.404 46.5659 66.3616 46.7358C65.6393 46.9907 64.4071 47.5856 63.5574 48.2654C62.6652 48.9876 61.0506 50.3472 61.0082 51.9617C61.0082 52.684 61.433 53.1939 62.1553 53.4913C63.6424 54.0011 65.4693 52.854 65.9792 52.4716C68.3585 50.7296 69.0807 48.3503 69.3357 47.2032C70.058 44.314 70.9927 40.0228 71.0352 39.7254C71.1626 39.0031 71.46 38.0259 71.63 37.1762L72.3098 34.372C72.1823 34.1171 71.7999 33.9896 71.5875 34.0746ZM43.3759 46.3534C43.291 47.1182 43.121 47.8405 42.8661 48.5203C42.6112 49.2001 42.3562 49.7949 42.0163 50.3047C41.8464 50.5597 41.6339 50.9421 41.294 51.0695C40.9117 51.197 40.7417 50.8146 40.6143 50.5172C40.5293 50.2198 40.4443 49.8799 40.4443 49.455C40.4018 49.0301 40.4443 48.6053 40.4868 48.1379C40.5293 47.6705 40.6143 47.2032 40.7417 46.7358C40.8692 46.1835 41.0391 45.6736 41.294 45.1638C41.5065 44.6964 41.8464 44.1441 42.3987 43.9741C43.2485 43.6767 43.4184 44.9513 43.4184 45.5037C43.4184 45.8011 43.3759 46.0985 43.3759 46.3534ZM55.7397 42.827C55.6548 43.5918 55.4848 44.314 55.2724 44.9938C55.0175 45.6736 54.7625 46.2684 54.4651 46.7783C54.2952 47.0332 54.0827 47.4156 53.7853 47.5431C53.4029 47.6705 53.233 47.2881 53.1055 46.9907C53.0205 46.6933 52.9356 46.3534 52.8931 45.9285C52.8506 45.5037 52.8506 45.0788 52.9356 44.6114C52.9781 44.1441 53.063 43.6767 53.1905 43.2094C53.318 42.657 53.4879 42.1472 53.7003 41.6373C53.9128 41.17 54.2527 40.6176 54.7625 40.4477C55.6123 40.1928 55.7397 41.4249 55.7822 41.9772C55.7822 42.2746 55.7822 42.5296 55.7397 42.827ZM63.8973 51.4944C63.3025 52.0042 62.4102 52.1742 62.4527 51.3669C62.4527 50.5172 64.2797 48.5203 65.8517 47.883C65.7667 48.3078 65.1719 50.3472 63.8973 51.4944Z" fill="#F5F2EE"/>
<path d="M75.5386 30.5483C74.3064 30.5058 73.2443 31.3981 73.2018 32.6727C73.1593 33.9473 74.1365 34.9245 75.3686 35.0095C76.6008 35.052 77.6629 34.1598 77.7054 32.8851C77.7479 31.6105 76.7707 30.6333 75.5386 30.5483ZM75.3686 34.6271C74.3489 34.5846 73.5842 33.7774 73.6266 32.7152C73.6691 31.653 74.4764 30.8882 75.4961 30.9307C76.5158 30.9732 77.2806 31.7805 77.2381 32.8426C77.1956 33.9048 76.3883 34.6696 75.3686 34.6271Z" fill="#F5F2EE"/>
<path d="M76.6432 32.2057C76.6007 31.7808 76.0908 31.4834 75.496 31.4409L74.5188 31.3984L74.4338 33.9477H74.9437L74.9862 32.9705C74.9862 32.9705 75.3686 33.013 75.7085 33.013C76.0484 33.013 76.0059 33.9477 76.0059 33.9477L76.5582 33.9902C76.5582 33.9902 76.6432 33.0554 76.3458 32.928C76.5582 32.758 76.6432 32.4181 76.6432 32.2057ZM75.4535 32.6306L74.9862 32.5881V31.8658H75.5385C75.7934 31.8658 76.0908 31.9933 76.0908 32.2057C76.0908 32.6306 75.7934 32.6306 75.4535 32.6306Z" fill="#F5F2EE"/>
<path d="M23.1091 45.2912C22.9817 45.8435 23.0666 46.2259 23.3216 46.7782C23.619 47.4155 24.3413 48.1378 25.361 48.6052C27.0604 49.4124 27.9952 49.4549 29.8646 49.4124C29.7371 51.1969 29.4822 52.7264 29.0149 54.1285C27.1454 54.2135 25.276 54.5534 24.0438 55.1057C22.8967 55.6156 21.877 56.6778 22.0045 58.0373C22.0894 59.0995 22.9392 59.9068 23.9164 60.2467C24.9786 60.5866 26.2532 60.5016 27.6978 60.0343C28.0377 59.9068 28.3351 59.7793 28.675 59.6094C29.2698 59.312 29.7796 58.9721 30.247 58.5472C30.7568 58.0798 31.2242 57.57 31.6066 57.0177C31.734 56.8477 31.8615 56.6353 31.989 56.5078C32.9237 56.5928 35.4304 57.2301 35.8978 57.3151C42.9932 58.8871 48.729 57.5275 51.2782 54.0435C51.5756 53.6187 51.873 53.1513 51.9155 52.6415C51.958 52.0891 51.4906 51.7917 50.9808 51.9192C50.4285 52.0466 50.216 52.514 50.0036 52.9814C49.7487 53.5337 49.4513 54.0435 49.0264 54.5109C46.1372 57.6125 40.9538 56.3379 37.7672 55.5306C37.1299 55.3606 34.1133 54.4684 33.1361 54.341C33.9434 52.429 34.2408 50.2622 34.2833 47.7979C35.8553 46.6083 37.1299 45.0787 38.1921 43.2093C39.3393 41.1274 39.8066 39.173 39.5942 37.3885C39.5092 36.6662 39.2543 36.0714 38.8719 35.6465C38.702 35.4766 38.532 35.3491 38.3621 35.2642C37.5548 34.8393 36.1102 35.3491 35.4729 35.7315C34.2408 36.4538 32.7537 38.0683 31.7765 40.2777C30.9268 42.1896 30.4169 44.2715 30.1195 46.6508C30.077 47.2031 30.0346 47.6704 29.9921 48.0953C29.1848 48.2653 27.9102 48.4352 26.763 48.0103C26.0408 47.7129 25.0635 47.0756 24.8936 46.1834C24.7661 45.4611 24.3837 44.8663 23.9164 44.8238C23.6615 44.6963 23.1941 44.8238 23.1091 45.2912ZM25.8283 58.6322C25.4034 58.7596 24.9361 58.7596 24.5112 58.6322C23.8739 58.4197 23.4065 57.7399 23.5765 57.0601C23.7889 56.2954 24.7661 56.0829 25.4034 55.998C26.2957 55.8705 27.2729 55.9555 28.1651 56.0829C27.4428 57.485 26.6781 58.3772 25.8283 58.6322ZM37.045 41.9347C36.1527 43.8466 35.218 45.2062 34.2408 46.0984C34.1558 42.6994 34.3258 40.2777 34.7506 38.7481C34.9631 38.0258 35.2605 37.431 35.7279 36.9212C35.8978 36.7087 36.1527 36.5388 36.4926 36.4113C36.8325 36.2838 37.1299 36.3263 37.3849 36.4963C37.6398 36.6662 37.8522 36.9212 37.9797 37.2186C38.3621 38.2383 38.0222 39.8103 37.045 41.9347Z" fill="#F5F2EE"/>
<path d="M40.3589 22.3911C41.2087 22.3061 41.931 21.5838 42.0584 20.7765C42.1434 20.2667 42.0159 19.7993 41.761 19.4169C41.4636 19.0346 41.0387 18.7796 40.5714 18.6947C40.4014 18.6947 40.2739 18.6522 40.104 18.6947C39.7641 18.7372 39.4667 18.8646 39.1693 19.0771C38.7444 19.3745 38.4895 19.7993 38.4045 20.3092C38.3195 20.7765 38.447 21.2864 38.7444 21.7113C39.0418 22.0936 39.4667 22.3911 39.934 22.4335C40.0615 22.4335 40.2315 22.4335 40.3589 22.3911Z" fill="#F5F2EE"/>
</svg>
