<svg width="59" height="14" viewBox="0 0 59 14" fill="none" xmlns="http://www.w3.org/2000/svg">
<path d="M20.9214 0.369171C21.649 0.369171 22.1745 0.764171 22.1745 1.47517C22.1745 1.87017 22.0129 2.38367 21.7299 3.01567L18.6173 10.5207L15.1005 2.73917C14.8176 2.14667 14.6963 1.71217 14.6963 1.27767C14.6963 0.803671 15.1005 0.369171 15.9899 0.369171V0.0136719H10.8157V0.369171C11.8667 0.369171 12.1901 0.724671 12.7964 2.10717L17.7685 13.2857H18.0514L22.7 2.22567C23.266 0.922171 23.9936 0.329672 24.5595 0.329672V0.0136719H20.9619V0.369171H20.9214ZM0.75045 0.0136719V0.369171C2.20567 0.369171 2.52905 0.724671 2.52905 1.90967V10.5997C2.52905 12.4562 2.24609 12.6537 0.75045 12.6537V13.0092H10.937L12.0688 9.49366L11.7859 9.41466C10.6945 12.0612 9.92643 12.4562 7.62233 12.4562H6.20753C4.42893 12.4562 4.34808 12.4167 4.34808 10.2837V2.38367C4.34808 0.764171 4.67146 0.408671 6.45007 0.408671V0.0136719H0.75045ZM42.9114 0.369171V0.0136719H39.5968L34.746 10.2837L29.6932 0.0136719H26.2977V0.369171C27.7125 0.369171 28.0359 0.803671 28.0359 2.06767V10.5602C28.0359 12.4167 27.672 12.6142 26.2977 12.6142V12.9697H30.4208V12.6142C29.006 12.6142 28.6826 12.4167 28.6826 10.5602V2.06767L33.8163 12.9697H34.1397L39.233 2.06767V10.5602C39.233 12.4167 38.95 12.6142 37.3735 12.6142V12.9697H42.9114V12.6142C41.3754 12.6142 41.1328 12.3772 41.1328 10.5602V1.87017C41.1328 0.724671 41.4966 0.369171 42.9114 0.369171ZM48.3685 2.42317C48.3685 0.606171 48.6515 0.369171 50.1471 0.369171V0.0136719H44.7305V0.369171C46.2665 0.369171 46.5091 0.606171 46.5091 2.42317V10.5602C46.5091 12.3772 46.2261 12.6142 44.7305 12.6142V12.9697H50.1471V12.6142C48.6111 12.6142 48.3685 12.3772 48.3685 10.5602V7.12366C48.3685 6.76816 48.5302 6.64966 48.9344 6.64966H54.7958C55.2404 6.64966 55.3617 6.80766 55.3617 7.24216V10.5602C55.3617 12.3772 55.0787 12.6142 53.5831 12.6142V12.9697H58.9997V12.6142C57.4637 12.6142 57.2211 12.3772 57.2211 10.5602V2.42317C57.2211 0.606171 57.5041 0.369171 58.9997 0.369171V0.0136719H53.5831V0.369171C55.1191 0.369171 55.3617 0.606171 55.3617 2.42317V5.46467C55.3617 5.93867 55.2404 6.05717 54.7958 6.05717H48.894C48.4898 6.05717 48.3281 5.93867 48.3281 5.62267V2.42317H48.3685Z" fill="black"/>
</svg>
