<svg width="140" height="91" viewBox="0 0 140 91" fill="none" xmlns="http://www.w3.org/2000/svg">
<path d="M4.05101 12.2773L0.647461 15.3885L12.0516 25.629L23.4557 15.3885L20.0521 12.2764C20.0521 12.2764 13.0803 18.9699 12.0516 19.9269C11.0229 18.9708 4.05101 12.2773 4.05101 12.2773ZM72.5055 12.2773C66.0401 12.2773 62.0025 13.2948 62.0025 13.2948V24.5249C62.0025 24.5249 66.1043 25.5424 72.5046 25.5424C78.8601 25.5424 82.9777 24.5249 82.9777 24.5249V20.7135C82.9777 20.7135 78.5371 21.5868 72.4468 21.5868C69.4911 21.5868 67.5361 21.2284 66.4832 21.1213C66.4804 20.2025 66.486 17.6275 66.4832 16.6993C67.6627 16.5829 69.6559 16.2338 72.5055 16.2338C78.4328 16.2552 82.9787 17.135 82.9787 17.135V13.2948C82.9787 13.2948 78.9235 12.2773 72.5055 12.2773ZM26.5101 12.4802V25.2808H31.1072V12.4802H26.5101ZM52.4901 12.4802V20.452C52.4901 20.452 49.1685 17.9775 44.2857 15.4481C40.0154 13.2343 36.2562 12.5091 36.2562 12.5091V25.2817H40.7071V18.4439C41.7749 18.8787 42.9237 19.3683 44.2857 20.0731C49.1685 22.6052 52.4901 25.2808 52.4901 25.2808H56.94V12.4802H52.4901ZM87.9527 12.4802V25.2808H92.5497V12.4802H87.9527Z" fill="#1B1B1B"/>
<path d="M117.22 0C116.235 0 115.446 0.819234 115.446 1.80325V7.09848C115.446 8.74719 114.182 10.1706 113.642 10.7348C113.101 11.3026 111.643 12.5064 109.307 12.5092H102.907V23.041H113.438V16.6407C113.442 14.3068 114.644 12.8471 115.212 12.3062C115.777 11.7653 117.2 10.502 118.849 10.502H124.144C125.129 10.502 125.948 9.71165 125.948 8.72764V1.80325C125.944 1.32597 125.753 0.869283 125.415 0.531871C125.078 0.194459 124.621 0.00340923 124.144 0L117.22 0ZM133.104 12.0148C129.641 12.0148 126.879 14.8449 126.879 18.2112C126.879 18.8256 127.169 19.9847 127.169 20.4809C127.169 21.7537 126.663 22.9743 125.763 23.8744C124.863 24.7745 123.642 25.2803 122.369 25.2808H117.22C116.987 25.2801 116.756 25.3255 116.54 25.4145C116.324 25.5035 116.128 25.6342 115.963 25.7992C115.798 25.9642 115.668 26.1602 115.579 26.376C115.49 26.5917 115.445 26.8228 115.446 27.0561V34.0085C115.445 34.2418 115.49 34.4729 115.579 34.6887C115.668 34.9044 115.798 35.1004 115.963 35.2654C116.128 35.4304 116.324 35.5612 116.54 35.6501C116.756 35.7391 116.987 35.7845 117.22 35.7838H124.144C125.129 35.7838 125.948 34.9925 125.948 34.0085V28.8594C125.948 27.5865 126.454 26.3659 127.354 25.4658C128.254 24.5658 129.475 24.0599 130.748 24.0594C131.243 24.0594 132.403 24.321 133.017 24.321C136.384 24.321 139.185 21.5589 139.185 18.0948C139.196 16.4851 138.568 14.9367 137.439 13.7892C136.35 12.687 134.797 12.0148 133.104 12.0148Z" fill="#1B1B1B"/>
<path d="M32.2249 78.277V69.7664H36.7484V70.8394H33.4441V73.3267H36.6021V74.3997H33.4441V78.277H32.2249Z" fill="#1B1B1B"/>
<path d="M39.2479 74.0217C39.2479 74.4444 39.3007 74.8549 39.4064 75.2532C39.5202 75.6515 39.6909 76.0091 39.9185 76.3261C40.1461 76.635 40.4347 76.8829 40.7842 77.0699C41.1418 77.2569 41.5645 77.3503 42.0522 77.3503C42.5399 77.3503 42.9586 77.2569 43.3081 77.0699C43.6657 76.8829 43.9584 76.635 44.186 76.3261C44.4136 76.0091 44.5802 75.6515 44.6859 75.2532C44.7997 74.8549 44.8566 74.4444 44.8566 74.0217C44.8566 73.5909 44.7956 73.1763 44.6737 72.778C44.5599 72.3716 44.3851 72.014 44.1494 71.7051C43.9218 71.3962 43.6332 71.1523 43.2837 70.9735C42.9342 70.7866 42.5237 70.6931 42.0522 70.6931C41.5808 70.6931 41.1703 70.7866 40.8208 70.9735C40.4712 71.1523 40.1786 71.3962 39.9429 71.7051C39.7153 72.014 39.5405 72.3716 39.4186 72.778C39.3048 73.1763 39.2479 73.5909 39.2479 74.0217ZM37.9555 74.0217C37.9555 73.3877 38.0449 72.8024 38.2237 72.266C38.4107 71.7295 38.6789 71.2661 39.0284 70.876C39.3861 70.4858 39.8169 70.181 40.3209 69.9615C40.8248 69.7339 41.402 69.6201 42.0522 69.6201C42.6944 69.6201 43.2674 69.7339 43.7714 69.9615C44.2835 70.181 44.7143 70.4858 45.0638 70.876C45.4215 71.2661 45.6897 71.7295 45.8686 72.266C46.0555 72.8024 46.149 73.3877 46.149 74.0217C46.149 74.672 46.0555 75.2654 45.8686 75.8019C45.6897 76.3383 45.4256 76.8017 45.076 77.1918C44.7265 77.582 44.2957 77.8868 43.7836 78.1063C43.2796 78.3176 42.7025 78.4233 42.0522 78.4233C41.402 78.4233 40.8208 78.3176 40.3087 78.1063C39.8047 77.8868 39.378 77.582 39.0284 77.1918C38.6789 76.8017 38.4107 76.3383 38.2237 75.8019C38.0449 75.2654 37.9555 74.672 37.9555 74.0217Z" fill="#1B1B1B"/>
<path d="M54.505 69.7664V74.7533C54.505 75.9563 54.2164 76.8708 53.6393 77.4967C53.0703 78.1144 52.2574 78.4233 51.2007 78.4233C50.144 78.4233 49.3271 78.1144 48.75 77.4967C48.181 76.8708 47.8965 75.9563 47.8965 74.7533V69.7664H49.1158V74.5948C49.1158 75.0012 49.1483 75.3751 49.2133 75.7165C49.2865 76.0498 49.4043 76.3383 49.5669 76.5822C49.7295 76.826 49.9449 77.0171 50.2131 77.1553C50.4813 77.2853 50.8106 77.3503 51.2007 77.3503C51.5909 77.3503 51.9201 77.2853 52.1883 77.1553C52.4566 77.0171 52.672 76.826 52.8346 76.5822C52.9971 76.3383 53.1109 76.0498 53.176 75.7165C53.2491 75.3751 53.2857 75.0012 53.2857 74.5948V69.7664H54.505Z" fill="#1B1B1B"/>
<path d="M56.6714 78.277V69.7664H58.3296L62.085 76.6188H62.1094V69.7664H63.3286V78.277H61.768L57.915 71.2783H57.8907V78.277H56.6714Z" fill="#1B1B1B"/>
<path d="M65.4097 78.277V69.7664H67.9214C68.5554 69.7664 69.1447 69.864 69.6894 70.0591C70.2421 70.246 70.7217 70.5183 71.1281 70.876C71.5427 71.2336 71.8678 71.6726 72.1035 72.1928C72.3392 72.7049 72.4571 73.2901 72.4571 73.9486C72.4571 74.6639 72.3514 75.2938 72.1401 75.8384C71.9288 76.3749 71.628 76.826 71.2378 77.1918C70.8477 77.5495 70.3722 77.8218 69.8113 78.0087C69.2504 78.1876 68.6205 78.277 67.9214 78.277H65.4097ZM66.629 70.8394V77.204H67.9092C68.9578 77.204 69.7625 76.9439 70.3234 76.4237C70.8842 75.9035 71.1647 75.0947 71.1647 73.9973C71.1647 73.5015 71.0834 73.0585 70.9208 72.6683C70.7664 72.2781 70.5469 71.9489 70.2624 71.6807C69.986 71.4043 69.6568 71.197 69.2748 71.0589C68.9009 70.9126 68.4945 70.8394 68.0555 70.8394H66.629Z" fill="#1B1B1B"/>
<path d="M73.3433 78.277L76.9767 69.7664H78.257L81.8538 78.277H80.5248L79.6591 76.1311H75.4892L74.6235 78.277H73.3433ZM79.269 75.1313L77.5742 70.9126L75.8794 75.1313H79.269Z" fill="#1B1B1B"/>
<path d="M83.8713 78.277V70.8394H81.2254V69.7664H87.7364V70.8394H85.0905V78.277H83.8713Z" fill="#1B1B1B"/>
<path d="M88.9516 78.277V69.7664H90.1708V78.277H88.9516Z" fill="#1B1B1B"/>
<path d="M93.1986 74.0217C93.1986 74.4444 93.2514 74.8549 93.3571 75.2532C93.4709 75.6515 93.6416 76.0091 93.8692 76.3261C94.0968 76.635 94.3853 76.8829 94.7348 77.0699C95.0925 77.2569 95.5152 77.3503 96.0029 77.3503C96.4906 77.3503 96.9092 77.2569 97.2588 77.0699C97.6164 76.8829 97.909 76.635 98.1366 76.3261C98.3642 76.0091 98.5309 75.6515 98.6365 75.2532C98.7503 74.8549 98.8072 74.4444 98.8072 74.0217C98.8072 73.5909 98.7463 73.1763 98.6243 72.778C98.5105 72.3716 98.3358 72.014 98.1001 71.7051C97.8725 71.3962 97.5839 71.1523 97.2344 70.9735C96.8848 70.7866 96.4743 70.6931 96.0029 70.6931C95.5314 70.6931 95.121 70.7866 94.7714 70.9735C94.4219 71.1523 94.1293 71.3962 93.8935 71.7051C93.6659 72.014 93.4912 72.3716 93.3693 72.778C93.2555 73.1763 93.1986 73.5909 93.1986 74.0217ZM91.9061 74.0217C91.9061 73.3877 91.9955 72.8024 92.1744 72.266C92.3613 71.7295 92.6296 71.2661 92.9791 70.876C93.3367 70.4858 93.7676 70.181 94.2715 69.9615C94.7755 69.7339 95.3526 69.6201 96.0029 69.6201C96.645 69.6201 97.2181 69.7339 97.7221 69.9615C98.2342 70.181 98.665 70.4858 99.0145 70.876C99.3722 71.2661 99.6404 71.7295 99.8192 72.266C100.006 72.8024 100.1 73.3877 100.1 74.0217C100.1 74.672 100.006 75.2654 99.8192 75.8019C99.6404 76.3383 99.3762 76.8017 99.0267 77.1918C98.6772 77.582 98.2464 77.8868 97.7343 78.1063C97.2303 78.3176 96.6532 78.4233 96.0029 78.4233C95.3526 78.4233 94.7714 78.3176 94.2593 78.1063C93.7554 77.8868 93.3286 77.582 92.9791 77.1918C92.6296 76.8017 92.3613 76.3383 92.1744 75.8019C91.9955 75.2654 91.9061 74.672 91.9061 74.0217Z" fill="#1B1B1B"/>
<path d="M101.823 78.277V69.7664H103.481L107.236 76.6188H107.261V69.7664H108.48V78.277H106.919L103.066 71.2783H103.042V78.277H101.823Z" fill="#1B1B1B"/>
<path d="M48.8161 33.3226L47.8954 30.6972H47.8772L46.9564 33.3226H48.8161ZM44.7139 35.784L47.1934 29.4209H48.6338L51.1316 35.784H49.7186L49.1716 34.3254H46.5918L46.0357 35.784H44.7139Z" fill="#1B1B1B"/>
<path d="M51.6301 33.4867V29.4209H52.9063V33.0947C52.9063 33.3682 52.9276 33.6143 52.9701 33.8331C53.0187 34.0519 53.0947 34.2403 53.198 34.3983C53.3074 34.5563 53.4442 34.6779 53.6083 34.7629C53.7784 34.848 53.9851 34.8906 54.2282 34.8906C54.4712 34.8906 54.6748 34.848 54.8389 34.7629C55.0091 34.6779 55.1458 34.5563 55.2492 34.3983C55.3585 34.2403 55.4345 34.0519 55.4771 33.8331C55.5257 33.6143 55.55 33.3682 55.55 33.0947V29.4209H56.8262V33.4867C56.8262 33.9121 56.7655 34.2768 56.6439 34.5806C56.5284 34.8845 56.3583 35.1337 56.1334 35.3281C55.9146 35.5226 55.6442 35.6654 55.3221 35.7566C55 35.8478 54.6353 35.8933 54.2282 35.8933C53.821 35.8933 53.4563 35.8478 53.1342 35.7566C52.8121 35.6654 52.5386 35.5226 52.3138 35.3281C52.095 35.1337 51.9248 34.8845 51.8033 34.5806C51.6878 34.2768 51.6301 33.9121 51.6301 33.4867Z" fill="#1B1B1B"/>
<path d="M59.1388 35.784V30.4237H57.3156V29.4209H62.2383V30.4237H60.4151V35.784H59.1388Z" fill="#1B1B1B"/>
<path d="M62.4631 32.5842C62.4631 32.098 62.53 31.6544 62.6637 31.2533C62.7974 30.8521 62.9949 30.5088 63.2562 30.2231C63.5236 29.9314 63.8518 29.7066 64.2408 29.5485C64.6297 29.3905 65.0764 29.3115 65.5808 29.3115C66.0792 29.3115 66.5228 29.3936 66.9118 29.5577C67.3007 29.7157 67.6259 29.9405 67.8872 30.2322C68.1546 30.5179 68.3552 30.8613 68.4889 31.2624C68.6286 31.6635 68.6985 32.1041 68.6985 32.5842C68.6985 33.0643 68.6286 33.508 68.4889 33.9152C68.3552 34.3163 68.1546 34.6657 67.8872 34.9635C67.6259 35.2552 67.3007 35.4831 66.9118 35.6472C66.5289 35.8113 66.0852 35.8933 65.5808 35.8933C65.0703 35.8933 64.6206 35.8143 64.2316 35.6563C63.8427 35.4922 63.5175 35.2643 63.2562 34.9726C62.9949 34.6809 62.7974 34.3315 62.6637 33.9243C62.53 33.5171 62.4631 33.0704 62.4631 32.5842ZM63.7941 32.5842C63.7941 32.8698 63.8245 33.1524 63.8852 33.432C63.9521 33.7055 64.0554 33.9516 64.1952 34.1704C64.341 34.3831 64.5264 34.5563 64.7513 34.69C64.9761 34.8237 65.2526 34.8906 65.5808 34.8906C65.909 34.8906 66.1855 34.8237 66.4104 34.69C66.6353 34.5563 66.8176 34.3831 66.9574 34.1704C67.1032 33.9516 67.2065 33.7055 67.2673 33.432C67.3342 33.1524 67.3676 32.8698 67.3676 32.5842C67.3676 32.3046 67.3342 32.0312 67.2673 31.7638C67.2005 31.4903 67.0941 31.2472 66.9482 31.0345C66.8024 30.8157 66.617 30.6425 66.3922 30.5148C66.1673 30.3811 65.8968 30.3143 65.5808 30.3143C65.2648 30.3143 64.9944 30.3811 64.7695 30.5148C64.5446 30.6425 64.3593 30.8157 64.2134 31.0345C64.0676 31.2472 63.9612 31.4903 63.8943 31.7638C63.8275 32.0312 63.7941 32.3046 63.7941 32.5842Z" fill="#1B1B1B"/>
<path d="M70.7617 30.4237V32.1375H71.181C71.339 32.1375 71.497 32.1284 71.6551 32.1102C71.8192 32.0919 71.965 32.0524 72.0926 31.9917C72.2203 31.9309 72.3236 31.8428 72.4026 31.7273C72.4877 31.6118 72.5302 31.4538 72.5302 31.2533C72.5302 31.0649 72.4877 30.916 72.4026 30.8066C72.3236 30.6911 72.2203 30.606 72.0926 30.5513C71.965 30.4966 71.8192 30.4632 71.6551 30.451C71.497 30.4328 71.339 30.4237 71.181 30.4237H70.7617ZM69.4854 35.784V29.4209H70.862C71.2023 29.4209 71.5487 29.43 71.9012 29.4483C72.2598 29.4604 72.5819 29.5182 72.8675 29.6215C73.1592 29.7248 73.3962 29.895 73.5786 30.132C73.767 30.3629 73.8612 30.7002 73.8612 31.1439C73.8612 31.3323 73.8308 31.5115 73.77 31.6817C73.7092 31.8458 73.6211 31.9947 73.5056 32.1284C73.3962 32.256 73.2595 32.3654 73.0954 32.4566C72.9313 32.5417 72.749 32.5964 72.5484 32.6207V32.6389C72.6335 32.645 72.7095 32.6693 72.7763 32.7118C72.8493 32.7544 72.9131 32.8091 72.9678 32.8759C73.0225 32.9367 73.0711 33.0035 73.1136 33.0765C73.1562 33.1494 73.1926 33.2223 73.223 33.2953L74.244 35.784H72.8219L72.0562 33.7966C72.0076 33.6812 71.9589 33.5809 71.9103 33.4958C71.8678 33.4107 71.8131 33.3439 71.7462 33.2953C71.6794 33.2406 71.6004 33.2011 71.5092 33.1767C71.418 33.1524 71.3056 33.1403 71.1719 33.1403H70.7617V35.784H69.4854Z" fill="#1B1B1B"/>
<path d="M74.5843 32.5842C74.5843 32.098 74.6512 31.6544 74.7849 31.2533C74.9186 30.8521 75.1161 30.5088 75.3774 30.2231C75.6448 29.9314 75.973 29.7066 76.362 29.5485C76.7509 29.3905 77.1976 29.3115 77.702 29.3115C78.2004 29.3115 78.644 29.3936 79.033 29.5577C79.4219 29.7157 79.7471 29.9405 80.0084 30.2322C80.2758 30.5179 80.4764 30.8613 80.6101 31.2624C80.7498 31.6635 80.8197 32.1041 80.8197 32.5842C80.8197 33.0643 80.7498 33.508 80.6101 33.9152C80.4764 34.3163 80.2758 34.6657 80.0084 34.9635C79.7471 35.2552 79.4219 35.4831 79.033 35.6472C78.6501 35.8113 78.2064 35.8933 77.702 35.8933C77.1915 35.8933 76.7418 35.8143 76.3528 35.6563C75.9639 35.4922 75.6388 35.2643 75.3774 34.9726C75.1161 34.6809 74.9186 34.3315 74.7849 33.9243C74.6512 33.5171 74.5843 33.0704 74.5843 32.5842ZM75.9153 32.5842C75.9153 32.8698 75.9457 33.1524 76.0064 33.432C76.0733 33.7055 76.1766 33.9516 76.3164 34.1704C76.4622 34.3831 76.6476 34.5563 76.8725 34.69C77.0973 34.8237 77.3738 34.8906 77.702 34.8906C78.0302 34.8906 78.3067 34.8237 78.5316 34.69C78.7565 34.5563 78.9388 34.3831 79.0786 34.1704C79.2244 33.9516 79.3277 33.7055 79.3885 33.432C79.4554 33.1524 79.4888 32.8698 79.4888 32.5842C79.4888 32.3046 79.4554 32.0312 79.3885 31.7638C79.3217 31.4903 79.2153 31.2472 79.0694 31.0345C78.9236 30.8157 78.7382 30.6425 78.5134 30.5148C78.2885 30.3811 78.0181 30.3143 77.702 30.3143C77.386 30.3143 77.1156 30.3811 76.8907 30.5148C76.6658 30.6425 76.4805 30.8157 76.3346 31.0345C76.1888 31.2472 76.0824 31.4903 76.0155 31.7638C75.9487 32.0312 75.9153 32.3046 75.9153 32.5842Z" fill="#1B1B1B"/>
<path d="M81.6704 33.4867V29.4209H82.9467V33.0947C82.9467 33.3682 82.968 33.6143 83.0105 33.8331C83.0591 34.0519 83.1351 34.2403 83.2384 34.3983C83.3478 34.5563 83.4846 34.6779 83.6486 34.7629C83.8188 34.848 84.0254 34.8906 84.2685 34.8906C84.5116 34.8906 84.7152 34.848 84.8793 34.7629C85.0495 34.6779 85.1862 34.5563 85.2895 34.3983C85.3989 34.2403 85.4749 34.0519 85.5174 33.8331C85.5661 33.6143 85.5904 33.3682 85.5904 33.0947V29.4209H86.8666V33.4867C86.8666 33.9121 86.8058 34.2768 86.6843 34.5806C86.5688 34.8845 86.3987 35.1337 86.1738 35.3281C85.955 35.5226 85.6846 35.6654 85.3625 35.7566C85.0404 35.8478 84.6757 35.8933 84.2685 35.8933C83.8614 35.8933 83.4967 35.8478 83.1746 35.7566C82.8525 35.6654 82.579 35.5226 82.3542 35.3281C82.1354 35.1337 81.9652 34.8845 81.8437 34.5806C81.7282 34.2768 81.6704 33.9121 81.6704 33.4867Z" fill="#1B1B1B"/>
<path d="M89.1792 35.784V30.4237H87.356V29.4209H92.2787V30.4237H90.4554V35.784H89.1792Z" fill="#1B1B1B"/>
<path d="M92.8134 35.784V29.4209H96.5693V30.4237H94.0897V31.9917H96.3596V32.9944H94.0897V34.7812H96.5875V35.784H92.8134Z" fill="#1B1B1B"/>
<path d="M101.142 29.5394L101.024 30.5878C100.823 30.5027 100.614 30.4358 100.395 30.3872C100.176 30.3386 99.9544 30.3143 99.7295 30.3143C99.6201 30.3143 99.5046 30.3295 99.3831 30.3599C99.2676 30.3842 99.1613 30.4298 99.064 30.4966C98.9668 30.5635 98.8847 30.6546 98.8179 30.7701C98.7571 30.8856 98.7267 31.0284 98.7267 31.1986C98.7267 31.3809 98.7936 31.5267 98.9273 31.6361C99.0671 31.7455 99.2403 31.8458 99.4469 31.937C99.6535 32.022 99.8784 32.1102 100.121 32.2013C100.365 32.2864 100.589 32.4019 100.796 32.5477C101.003 32.6936 101.173 32.879 101.307 33.1038C101.446 33.3287 101.516 33.6174 101.516 33.9698C101.516 34.3163 101.452 34.6141 101.325 34.8632C101.197 35.1063 101.024 35.3038 100.805 35.4558C100.586 35.6077 100.331 35.7171 100.039 35.784C99.7538 35.8569 99.4499 35.8933 99.1278 35.8933C98.9516 35.8933 98.7966 35.8873 98.6629 35.8751C98.5353 35.863 98.4107 35.8447 98.2892 35.8204C98.1676 35.8022 98.043 35.7779 97.9154 35.7475C97.7939 35.7171 97.6541 35.6837 97.4961 35.6472L97.6146 34.4986C97.8334 34.6201 98.0643 34.7174 98.3074 34.7903C98.5505 34.8571 98.7997 34.8906 99.0549 34.8906C99.1765 34.8906 99.3041 34.8754 99.4378 34.845C99.5715 34.8146 99.693 34.766 99.8024 34.6991C99.9118 34.6323 100.003 34.5472 100.076 34.4439C100.149 34.3406 100.185 34.216 100.185 34.0701C100.185 33.8696 100.115 33.7085 99.9756 33.587C99.8419 33.4654 99.6718 33.3591 99.4651 33.2679C99.2585 33.1767 99.0336 33.0856 98.7905 32.9944C98.5474 32.9033 98.3226 32.7878 98.116 32.648C97.9093 32.5082 97.7361 32.329 97.5963 32.1102C97.4626 31.8914 97.3958 31.6057 97.3958 31.2533C97.3958 30.9008 97.4596 30.5999 97.5872 30.3508C97.7148 30.1016 97.882 29.901 98.0886 29.7491C98.2952 29.5972 98.5323 29.4878 98.7997 29.4209C99.0671 29.348 99.3405 29.3115 99.6201 29.3115C100.179 29.3115 100.687 29.3875 101.142 29.5394Z" fill="#1B1B1B"/>
<path d="M30.0484 89.117V85.8171H29.136V85.2393H30.0484V84.8819C30.0484 84.6488 30.0661 84.4359 30.1016 84.2432C30.1371 84.0506 30.203 83.8859 30.2993 83.749C30.3956 83.6122 30.5274 83.5083 30.6947 83.4373C30.867 83.3613 31.085 83.3232 31.3486 83.3232C31.4398 83.3232 31.5234 83.3283 31.5995 83.3384C31.6806 83.3486 31.7566 83.3587 31.8276 83.3689L31.7972 83.9467C31.7566 83.9315 31.7034 83.9214 31.6375 83.9163C31.5767 83.9062 31.5158 83.9011 31.455 83.9011C31.3029 83.9011 31.1813 83.9239 31.0901 83.9695C30.9988 84.0151 30.9278 84.081 30.8772 84.1672C30.8315 84.2483 30.8011 84.3446 30.7859 84.4561C30.7707 84.5677 30.7631 84.6893 30.7631 84.8211V85.2393H31.7896V85.8171H30.7631V89.117H30.0484Z" fill="#1B1B1B"/>
<path d="M32.2813 87.1781C32.2813 86.8842 32.3269 86.613 32.4181 86.3646C32.5145 86.1162 32.6488 85.9033 32.8211 85.7259C32.9985 85.5434 33.2064 85.4015 33.4446 85.3001C33.6879 85.1987 33.9591 85.148 34.2582 85.148C34.5522 85.148 34.8208 85.1987 35.0641 85.3001C35.3074 85.4015 35.5152 85.5434 35.6876 85.7259C35.8599 85.9033 35.9917 86.1162 36.083 86.3646C36.1793 86.613 36.2274 86.8842 36.2274 87.1781C36.2274 87.4569 36.1793 87.7205 36.083 87.9689C35.9867 88.2122 35.8523 88.4276 35.68 88.6152C35.5076 88.7977 35.2998 88.9421 35.0565 89.0486C34.8132 89.155 34.5471 89.2082 34.2582 89.2082C33.9642 89.2082 33.6955 89.155 33.4522 89.0486C33.214 88.9421 33.0061 88.7977 32.8287 88.6152C32.6564 88.4276 32.5221 88.2122 32.4257 87.9689C32.3294 87.7205 32.2813 87.4569 32.2813 87.1781ZM33.0416 87.1781C33.0416 87.3505 33.0644 87.5228 33.1101 87.6952C33.1607 87.8675 33.2342 88.0247 33.3305 88.1666C33.4319 88.3034 33.5586 88.415 33.7107 88.5011C33.8628 88.5873 34.0453 88.6304 34.2582 88.6304C34.466 88.6304 34.6459 88.5873 34.798 88.5011C34.9501 88.415 35.0743 88.3034 35.1706 88.1666C35.2719 88.0247 35.3454 87.8675 35.3911 87.6952C35.4417 87.5228 35.4671 87.3505 35.4671 87.1781C35.4671 86.9957 35.4392 86.8183 35.3835 86.6459C35.3277 86.4685 35.2491 86.3114 35.1478 86.1745C35.0464 86.0376 34.9197 85.9287 34.7676 85.8476C34.6155 85.7665 34.4457 85.7259 34.2582 85.7259C34.0655 85.7259 33.8932 85.7665 33.7411 85.8476C33.5941 85.9287 33.4674 86.0376 33.361 86.1745C33.2596 86.3114 33.181 86.4685 33.1253 86.6459C33.0695 86.8183 33.0416 86.9957 33.0416 87.1781Z" fill="#1B1B1B"/>
<path d="M37.1879 89.117V85.2393H37.857V85.84H37.8722C37.9686 85.6372 38.108 85.4725 38.2904 85.3457C38.478 85.2139 38.6757 85.148 38.8835 85.148C38.9899 85.148 39.0761 85.1531 39.142 85.1633C39.2079 85.1734 39.2789 85.1861 39.3549 85.2013V85.84C39.289 85.8146 39.2206 85.7969 39.1496 85.7867C39.0837 85.7766 39.0204 85.7715 38.9595 85.7715C38.6402 85.7715 38.3842 85.9135 38.1916 86.1973C37.999 86.4812 37.9027 86.8664 37.9027 87.353V89.117H37.1879Z" fill="#1B1B1B"/>
<path d="M42.2821 89.117V83.8099H43.5823C43.8459 83.8099 44.0993 83.8251 44.3427 83.8555C44.591 83.8859 44.8115 83.9518 45.0041 84.0532C45.1968 84.1545 45.3514 84.299 45.4679 84.4866C45.5845 84.6741 45.6428 84.9276 45.6428 85.2469C45.6428 85.4091 45.6149 85.5586 45.5592 85.6955C45.5034 85.8324 45.4249 85.954 45.3235 86.0605C45.2272 86.1618 45.1106 86.248 44.9737 86.319C44.8419 86.3849 44.7 86.4305 44.5479 86.4558V86.471C44.6645 86.5167 44.7583 86.5775 44.8293 86.6535C44.9002 86.7245 44.9788 86.8411 45.065 87.0033L46.0686 89.117H45.2018L44.3883 87.277C44.3274 87.1503 44.2666 87.0514 44.2058 86.9805C44.145 86.9095 44.0791 86.8588 44.0081 86.8284C43.9371 86.7929 43.8586 86.7726 43.7724 86.7676C43.6913 86.7625 43.6001 86.76 43.4987 86.76H43.0425V89.117H42.2821ZM43.0425 84.479V86.0909H43.6888C44.0537 86.0909 44.335 86.0174 44.5327 85.8704C44.7355 85.7234 44.8369 85.5206 44.8369 85.2621C44.8369 85.0188 44.7456 84.8287 44.5631 84.6918C44.3857 84.5499 44.1222 84.479 43.7724 84.479H43.0425Z" fill="#1B1B1B"/>
<path d="M49.8804 88.2426V88.9573C49.8094 88.9827 49.7359 89.0106 49.6599 89.041C49.5839 89.0663 49.4977 89.0917 49.4014 89.117C49.3101 89.1423 49.2012 89.1626 49.0744 89.1778C48.9528 89.1981 48.8134 89.2082 48.6563 89.2082C48.3116 89.2082 48.0125 89.1576 47.7591 89.0562C47.5107 88.9548 47.3029 88.8129 47.1356 88.6304C46.9734 88.4479 46.8517 88.2274 46.7706 87.9689C46.6895 87.7104 46.649 87.424 46.649 87.1097C46.649 86.8208 46.6921 86.5572 46.7782 86.319C46.8644 86.0807 46.986 85.8754 47.1432 85.7031C47.3054 85.5257 47.498 85.3888 47.721 85.2925C47.9441 85.1962 48.1924 85.148 48.4662 85.148C48.7906 85.148 49.0618 85.2038 49.2797 85.3153C49.4977 85.4268 49.6726 85.5814 49.8044 85.7791C49.9362 85.9717 50.0299 86.2024 50.0857 86.471C50.1465 86.7397 50.1769 87.0286 50.1769 87.3378H47.4093C47.4093 87.5304 47.4422 87.7053 47.5081 87.8624C47.5791 88.0196 47.6729 88.1564 47.7895 88.273C47.9111 88.3845 48.048 88.4733 48.2001 88.5391C48.3572 88.6 48.5194 88.6304 48.6867 88.6304C48.8033 88.6304 48.9224 88.6177 49.044 88.5924C49.1707 88.562 49.2873 88.529 49.3938 88.4935C49.5053 88.453 49.6016 88.4099 49.6827 88.3643C49.7689 88.3187 49.8348 88.2781 49.8804 88.2426ZM47.4093 86.8056H49.4166C49.4166 86.6586 49.3938 86.5192 49.3482 86.3874C49.3076 86.2556 49.2468 86.1416 49.1657 86.0452C49.0846 85.9439 48.9832 85.8653 48.8615 85.8095C48.7399 85.7538 48.603 85.7259 48.451 85.7259C48.2736 85.7259 48.1215 85.7589 47.9948 85.8247C47.8731 85.8906 47.7692 85.9768 47.683 86.0833C47.6019 86.1846 47.5386 86.2987 47.4929 86.4254C47.4524 86.5521 47.4245 86.6789 47.4093 86.8056Z" fill="#1B1B1B"/>
<path d="M50.8055 88.9954L50.8435 88.3567C50.9144 88.4023 50.9905 88.4428 51.0716 88.4783C51.1527 88.5138 51.2338 88.5442 51.3149 88.5696C51.396 88.5898 51.472 88.605 51.543 88.6152C51.619 88.6253 51.6824 88.6304 51.7331 88.6304C51.8142 88.6304 51.8978 88.6228 51.984 88.6076C52.0701 88.5873 52.1487 88.5569 52.2197 88.5163C52.2906 88.4707 52.3489 88.4124 52.3946 88.3415C52.4402 88.2705 52.463 88.1818 52.463 88.0753C52.463 87.9588 52.4199 87.8599 52.3337 87.7788C52.2526 87.6977 52.1487 87.6242 52.022 87.5583C51.9003 87.4874 51.766 87.4189 51.619 87.353C51.4771 87.2871 51.3428 87.2086 51.216 87.1173C51.0944 87.0261 50.9905 86.9196 50.9043 86.798C50.8232 86.6763 50.7826 86.5243 50.7826 86.3418C50.7826 86.139 50.8181 85.9641 50.8891 85.8171C50.9601 85.6651 51.0564 85.5409 51.178 85.4446C51.2997 85.3432 51.4441 85.2697 51.6114 85.2241C51.7787 85.1734 51.9586 85.148 52.1512 85.148C52.3185 85.148 52.4731 85.1633 52.6151 85.1937C52.757 85.2241 52.8989 85.2596 53.0408 85.3001L52.98 85.9236C52.9395 85.8982 52.8837 85.8754 52.8127 85.8552C52.7468 85.8298 52.6759 85.807 52.5998 85.7867C52.5289 85.7665 52.4579 85.7512 52.387 85.7411C52.3211 85.731 52.2678 85.7259 52.2273 85.7259C52.0448 85.7259 51.8851 85.7639 51.7483 85.84C51.6114 85.916 51.543 86.0351 51.543 86.1973C51.543 86.3291 51.5835 86.4381 51.6646 86.5243C51.7508 86.6054 51.8547 86.6789 51.9764 86.7448C52.1031 86.8056 52.2374 86.8689 52.3793 86.9348C52.5263 86.9957 52.6607 87.0717 52.7823 87.1629C52.909 87.2491 53.013 87.3581 53.0941 87.4899C53.1802 87.6217 53.2233 87.7915 53.2233 87.9993C53.2233 88.2071 53.1853 88.3871 53.1093 88.5391C53.0332 88.6912 52.9319 88.8179 52.8051 88.9193C52.6784 89.0156 52.5339 89.0866 52.3717 89.1322C52.2095 89.1829 52.0423 89.2082 51.8699 89.2082C51.6874 89.2082 51.505 89.193 51.3225 89.1626C51.14 89.1373 50.9677 89.0815 50.8055 88.9954Z" fill="#1B1B1B"/>
<path d="M54.0876 90.7137V85.2393H54.7719V85.7867H54.7871C54.8327 85.7158 54.8936 85.6423 54.9696 85.5662C55.0507 85.4902 55.147 85.4218 55.2585 85.3609C55.37 85.3001 55.4942 85.2494 55.6311 85.2089C55.773 85.1683 55.9302 85.148 56.1025 85.148C56.3813 85.148 56.6246 85.2013 56.8324 85.3077C57.0453 85.4142 57.2202 85.5586 57.3571 85.7411C57.499 85.9185 57.6029 86.1263 57.6688 86.3646C57.7398 86.6028 57.7752 86.8512 57.7752 87.1097C57.7752 87.3784 57.7423 87.6394 57.6764 87.8929C57.6156 88.1412 57.5167 88.3643 57.3799 88.562C57.2481 88.7546 57.0757 88.9117 56.8628 89.0334C56.655 89.15 56.4041 89.2082 56.1101 89.2082C55.7654 89.2082 55.4917 89.15 55.2889 89.0334C55.0862 88.9117 54.929 88.7622 54.8175 88.5848H54.8023V90.7137H54.0876ZM57.0149 87.1629C57.02 86.9906 57.0022 86.8183 56.9617 86.6459C56.9262 86.4736 56.8654 86.319 56.7792 86.1821C56.693 86.0452 56.5815 85.9363 56.4447 85.8552C56.3078 85.769 56.1431 85.7259 55.9504 85.7259C55.7578 85.7259 55.588 85.769 55.441 85.8552C55.2991 85.9363 55.18 86.0452 55.0837 86.1821C54.9873 86.319 54.9164 86.4761 54.8708 86.6535C54.8251 86.8259 54.8023 87.0033 54.8023 87.1858C54.8023 87.348 54.8226 87.5152 54.8632 87.6876C54.9088 87.8548 54.9772 88.0094 55.0684 88.1514C55.1597 88.2933 55.2763 88.4099 55.4182 88.5011C55.5652 88.5873 55.7401 88.6304 55.9428 88.6304C56.1354 88.6304 56.3002 88.5822 56.437 88.4859C56.5739 88.3896 56.6854 88.2705 56.7716 88.1286C56.8578 87.9816 56.9211 87.8219 56.9617 87.6496C57.0022 87.4772 57.02 87.315 57.0149 87.1629Z" fill="#1B1B1B"/>
<path d="M58.4772 87.1781C58.4772 86.8842 58.5229 86.613 58.6141 86.3646C58.7104 86.1162 58.8447 85.9033 59.0171 85.7259C59.1945 85.5434 59.4023 85.4015 59.6406 85.3001C59.8839 85.1987 60.1551 85.148 60.4541 85.148C60.7481 85.148 61.0168 85.1987 61.2601 85.3001C61.5034 85.4015 61.7112 85.5434 61.8836 85.7259C62.0559 85.9033 62.1877 86.1162 62.2789 86.3646C62.3752 86.613 62.4234 86.8842 62.4234 87.1781C62.4234 87.4569 62.3752 87.7205 62.2789 87.9689C62.1826 88.2122 62.0483 88.4276 61.8759 88.6152C61.7036 88.7977 61.4958 88.9421 61.2525 89.0486C61.0092 89.155 60.743 89.2082 60.4541 89.2082C60.1601 89.2082 59.8915 89.155 59.6482 89.0486C59.4099 88.9421 59.2021 88.7977 59.0247 88.6152C58.8523 88.4276 58.718 88.2122 58.6217 87.9689C58.5254 87.7205 58.4772 87.4569 58.4772 87.1781ZM59.2376 87.1781C59.2376 87.3505 59.2604 87.5228 59.306 87.6952C59.3567 87.8675 59.4302 88.0247 59.5265 88.1666C59.6279 88.3034 59.7546 88.415 59.9067 88.5011C60.0587 88.5873 60.2412 88.6304 60.4541 88.6304C60.6619 88.6304 60.8419 88.5873 60.994 88.5011C61.146 88.415 61.2702 88.3034 61.3665 88.1666C61.4679 88.0247 61.5414 87.8675 61.587 87.6952C61.6377 87.5228 61.6631 87.3505 61.6631 87.1781C61.6631 86.9957 61.6352 86.8183 61.5794 86.6459C61.5237 86.4685 61.4451 86.3114 61.3437 86.1745C61.2423 86.0376 61.1156 85.9287 60.9635 85.8476C60.8115 85.7665 60.6417 85.7259 60.4541 85.7259C60.2615 85.7259 60.0892 85.7665 59.9371 85.8476C59.7901 85.9287 59.6634 86.0376 59.5569 86.1745C59.4555 86.3114 59.377 86.4685 59.3212 86.6459C59.2655 86.8183 59.2376 86.9957 59.2376 87.1781Z" fill="#1B1B1B"/>
<path d="M63.3839 89.117V85.2393H64.0758V85.8552H64.091C64.1975 85.6321 64.3673 85.4598 64.6004 85.3381C64.8336 85.2114 65.0871 85.148 65.3608 85.148C65.8626 85.148 66.2301 85.295 66.4633 85.589C66.6964 85.883 66.813 86.2911 66.813 86.8132V89.117H66.0983V87.1097C66.0983 86.6535 66.04 86.3139 65.9234 86.0909C65.8068 85.8678 65.5914 85.7462 65.2771 85.7259C65.0744 85.7259 64.897 85.7665 64.7449 85.8476C64.5979 85.9236 64.4763 86.0326 64.38 86.1745C64.2836 86.3114 64.2127 86.4786 64.1671 86.6763C64.1214 86.874 64.0986 87.0894 64.0986 87.3226V89.117H63.3839Z" fill="#1B1B1B"/>
<path d="M67.7051 88.9954L67.7431 88.3567C67.8141 88.4023 67.8901 88.4428 67.9712 88.4783C68.0523 88.5138 68.1334 88.5442 68.2145 88.5696C68.2956 88.5898 68.3717 88.605 68.4426 88.6152C68.5187 88.6253 68.582 88.6304 68.6327 88.6304C68.7138 88.6304 68.7975 88.6228 68.8836 88.6076C68.9698 88.5873 69.0484 88.5569 69.1193 88.5163C69.1903 88.4707 69.2486 88.4124 69.2942 88.3415C69.3398 88.2705 69.3626 88.1818 69.3626 88.0753C69.3626 87.9588 69.3196 87.8599 69.2334 87.7788C69.1523 87.6977 69.0484 87.6242 68.9216 87.5583C68.8 87.4874 68.6657 87.4189 68.5187 87.353C68.3767 87.2871 68.2424 87.2086 68.1157 87.1173C67.994 87.0261 67.8901 86.9196 67.804 86.798C67.7229 86.6763 67.6823 86.5243 67.6823 86.3418C67.6823 86.139 67.7178 85.9641 67.7887 85.8171C67.8597 85.6651 67.956 85.5409 68.0777 85.4446C68.1993 85.3432 68.3438 85.2697 68.5111 85.2241C68.6783 85.1734 68.8583 85.148 69.0509 85.148C69.2182 85.148 69.3728 85.1633 69.5147 85.1937C69.6566 85.2241 69.7986 85.2596 69.9405 85.3001L69.8797 85.9236C69.8391 85.8982 69.7834 85.8754 69.7124 85.8552C69.6465 85.8298 69.5755 85.807 69.4995 85.7867C69.4285 85.7665 69.3576 85.7512 69.2866 85.7411C69.2207 85.731 69.1675 85.7259 69.1269 85.7259C68.9445 85.7259 68.7848 85.7639 68.6479 85.84C68.5111 85.916 68.4426 86.0351 68.4426 86.1973C68.4426 86.3291 68.4832 86.4381 68.5643 86.5243C68.6505 86.6054 68.7544 86.6789 68.876 86.7448C69.0028 86.8056 69.1371 86.8689 69.279 86.9348C69.426 86.9957 69.5603 87.0717 69.682 87.1629C69.8087 87.2491 69.9126 87.3581 69.9937 87.4899C70.0799 87.6217 70.123 87.7915 70.123 87.9993C70.123 88.2071 70.085 88.3871 70.0089 88.5391C69.9329 88.6912 69.8315 88.8179 69.7048 88.9193C69.5781 89.0156 69.4336 89.0866 69.2714 89.1322C69.1092 89.1829 68.9419 89.2082 68.7696 89.2082C68.5871 89.2082 68.4046 89.193 68.2221 89.1626C68.0397 89.1373 67.8673 89.0815 67.7051 88.9954Z" fill="#1B1B1B"/>
<path d="M71.0785 89.117V85.2393H71.7932V89.117H71.0785ZM71.8388 83.6426V84.4485H71.0329V83.6426H71.8388Z" fill="#1B1B1B"/>
<path d="M73.1034 89.117V83.4145H73.8182V85.7715H73.8334C73.9449 85.5941 74.102 85.4471 74.3048 85.3305C74.5075 85.2089 74.7787 85.148 75.1183 85.148C75.3971 85.148 75.6404 85.2013 75.8483 85.3077C76.0611 85.4142 76.236 85.5586 76.3729 85.7411C76.5148 85.9185 76.6187 86.1263 76.6846 86.3646C76.7556 86.6028 76.7911 86.8512 76.7911 87.1097C76.7911 87.3784 76.7581 87.6394 76.6922 87.8929C76.6314 88.1412 76.5326 88.3643 76.3957 88.562C76.2639 88.7546 76.0916 88.9117 75.8787 89.0334C75.6708 89.15 75.4199 89.2082 75.1259 89.2082C74.9536 89.2082 74.7965 89.188 74.6545 89.1474C74.5126 89.1069 74.3859 89.0562 74.2744 88.9954C74.1628 88.9345 74.0665 88.8661 73.9854 88.7901C73.9094 88.714 73.8486 88.6405 73.8029 88.5696H73.7877V89.117H73.1034ZM76.0307 87.1629C76.0358 86.9906 76.0181 86.8183 75.9775 86.6459C75.942 86.4736 75.8812 86.319 75.795 86.1821C75.7089 86.0452 75.5973 85.9363 75.4605 85.8552C75.3236 85.769 75.1589 85.7259 74.9663 85.7259C74.7736 85.7259 74.6038 85.769 74.4568 85.8552C74.3149 85.9363 74.1958 86.0452 74.0995 86.1821C74.0032 86.319 73.9322 86.4761 73.8866 86.6535C73.841 86.8259 73.8182 87.0033 73.8182 87.1858C73.8182 87.348 73.8384 87.5152 73.879 87.6876C73.9246 87.8548 73.993 88.0094 74.0843 88.1514C74.1755 88.2933 74.2921 88.4099 74.434 88.5011C74.581 88.5873 74.7559 88.6304 74.9587 88.6304C75.1513 88.6304 75.316 88.5822 75.4529 88.4859C75.5897 88.3896 75.7013 88.2705 75.7874 88.1286C75.8736 87.9816 75.937 87.8219 75.9775 87.6496C76.0181 87.4772 76.0358 87.315 76.0307 87.1629Z" fill="#1B1B1B"/>
<path d="M77.8428 89.117V83.4145H78.5575V89.117H77.8428Z" fill="#1B1B1B"/>
<path d="M82.8407 88.2426V88.9573C82.7697 88.9827 82.6962 89.0106 82.6202 89.041C82.5441 89.0663 82.458 89.0917 82.3617 89.117C82.2704 89.1423 82.1614 89.1626 82.0347 89.1778C81.9131 89.1981 81.7737 89.2082 81.6165 89.2082C81.2718 89.2082 80.9728 89.1576 80.7193 89.0562C80.471 88.9548 80.2631 88.8129 80.0959 88.6304C79.9337 88.4479 79.812 88.2274 79.7309 87.9689C79.6498 87.7104 79.6092 87.424 79.6092 87.1097C79.6092 86.8208 79.6523 86.5572 79.7385 86.319C79.8247 86.0807 79.9463 85.8754 80.1035 85.7031C80.2657 85.5257 80.4583 85.3888 80.6813 85.2925C80.9044 85.1962 81.1527 85.148 81.4264 85.148C81.7509 85.148 82.022 85.2038 82.24 85.3153C82.458 85.4268 82.6328 85.5814 82.7646 85.7791C82.8964 85.9717 82.9902 86.2024 83.046 86.471C83.1068 86.7397 83.1372 87.0286 83.1372 87.3378H80.3696C80.3696 87.5304 80.4025 87.7053 80.4684 87.8624C80.5394 88.0196 80.6332 88.1564 80.7497 88.273C80.8714 88.3845 81.0083 88.4733 81.1603 88.5391C81.3175 88.6 81.4797 88.6304 81.6469 88.6304C81.7635 88.6304 81.8826 88.6177 82.0043 88.5924C82.131 88.562 82.2476 88.529 82.3541 88.4935C82.4656 88.453 82.5619 88.4099 82.643 88.3643C82.7292 88.3187 82.7951 88.2781 82.8407 88.2426ZM80.3696 86.8056H82.3769C82.3769 86.6586 82.3541 86.5192 82.3084 86.3874C82.2679 86.2556 82.2071 86.1416 82.126 86.0452C82.0449 85.9439 81.9435 85.8653 81.8218 85.8095C81.7002 85.7538 81.5633 85.7259 81.4112 85.7259C81.2338 85.7259 81.0818 85.7589 80.955 85.8247C80.8334 85.8906 80.7295 85.9768 80.6433 86.0833C80.5622 86.1846 80.4988 86.2987 80.4532 86.4254C80.4127 86.5521 80.3848 86.6789 80.3696 86.8056Z" fill="#1B1B1B"/>
<path d="M86.2317 89.117V83.8099H87.798C88.1933 83.8099 88.5608 83.8707 88.9004 83.9923C89.2451 84.1089 89.5442 84.2787 89.7976 84.5018C90.0561 84.7248 90.2589 84.9985 90.4059 85.3229C90.5529 85.6423 90.6264 86.0072 90.6264 86.4178C90.6264 86.8639 90.5605 87.2567 90.4287 87.5963C90.2969 87.9309 90.1094 88.2122 89.8661 88.4403C89.6228 88.6633 89.3262 88.8331 88.9765 88.9497C88.6267 89.0612 88.2339 89.117 87.798 89.117H86.2317ZM86.992 84.479V88.4479H87.7903C88.4442 88.4479 88.9461 88.2857 89.2958 87.9613C89.6456 87.6369 89.8204 87.1325 89.8204 86.4482C89.8204 86.139 89.7698 85.8628 89.6684 85.6195C89.5721 85.3762 89.4352 85.1709 89.2578 85.0036C89.0855 84.8312 88.8802 84.702 88.6419 84.6158C88.4088 84.5246 88.1553 84.479 87.8816 84.479H86.992Z" fill="#1B1B1B"/>
<path d="M91.696 89.117V85.2393H92.3651V85.84H92.3803C92.4766 85.6372 92.616 85.4725 92.7985 85.3457C92.9861 85.2139 93.1838 85.148 93.3916 85.148C93.498 85.148 93.5842 85.1531 93.6501 85.1633C93.716 85.1734 93.787 85.1861 93.863 85.2013V85.84C93.7971 85.8146 93.7287 85.7969 93.6577 85.7867C93.5918 85.7766 93.5284 85.7715 93.4676 85.7715C93.1483 85.7715 92.8923 85.9135 92.6997 86.1973C92.5071 86.4812 92.4108 86.8664 92.4108 87.353V89.117H91.696Z" fill="#1B1B1B"/>
<path d="M94.7425 89.117V85.2393H95.4572V89.117H94.7425ZM95.5028 83.6426V84.4485H94.6969V83.6426H95.5028Z" fill="#1B1B1B"/>
<path d="M99.8772 85.2393L98.4858 89.117H97.6342L96.2428 85.2393H97.0259L98.0752 88.4023H98.0904L99.1625 85.2393H99.8772Z" fill="#1B1B1B"/>
<path d="M100.66 89.117V85.2393H101.375V89.117H100.66ZM101.421 83.6426V84.4485H100.615V83.6426H101.421Z" fill="#1B1B1B"/>
<path d="M102.685 89.117V85.2393H103.377V85.8552H103.392C103.499 85.6321 103.669 85.4598 103.902 85.3381C104.135 85.2114 104.388 85.148 104.662 85.148C105.164 85.148 105.531 85.295 105.765 85.589C105.998 85.883 106.114 86.2911 106.114 86.8132V89.117H105.4V87.1097C105.4 86.6535 105.341 86.3139 105.225 86.0909C105.108 85.8678 104.893 85.7462 104.579 85.7259C104.376 85.7259 104.198 85.7665 104.046 85.8476C103.899 85.9236 103.778 86.0326 103.681 86.1745C103.585 86.3114 103.514 86.4786 103.468 86.6763C103.423 86.874 103.4 87.0894 103.4 87.3226V89.117H102.685Z" fill="#1B1B1B"/>
<path d="M110.763 85.2393V88.9497C110.763 89.5377 110.603 89.9939 110.284 90.3183C109.964 90.6427 109.457 90.805 108.763 90.805C108.661 90.805 108.56 90.7999 108.459 90.7897C108.362 90.7847 108.258 90.772 108.147 90.7517C108.035 90.7315 107.916 90.7036 107.79 90.6681C107.668 90.6377 107.529 90.5946 107.371 90.5388L107.447 89.8773C107.584 89.9382 107.709 89.9914 107.82 90.037C107.937 90.0826 108.048 90.1181 108.155 90.1435C108.261 90.1739 108.37 90.1941 108.482 90.2043C108.593 90.2195 108.715 90.2271 108.846 90.2271C109.227 90.2271 109.521 90.108 109.728 89.8697C109.941 89.6315 110.048 89.3071 110.048 88.8965V88.5163H110.033C109.881 88.7191 109.688 88.8712 109.455 88.9725C109.222 89.0689 108.981 89.117 108.732 89.117C108.454 89.117 108.21 89.0663 108.003 88.9649C107.795 88.8585 107.622 88.7166 107.485 88.5391C107.349 88.3617 107.245 88.159 107.174 87.9309C107.108 87.7028 107.075 87.462 107.075 87.2086C107.075 86.9602 107.11 86.7143 107.181 86.471C107.252 86.2227 107.359 86.0022 107.501 85.8095C107.648 85.6119 107.828 85.4522 108.041 85.3305C108.258 85.2089 108.514 85.148 108.808 85.148C109.153 85.148 109.424 85.2063 109.622 85.3229C109.825 85.4395 109.979 85.6043 110.086 85.8171H110.101V85.2393H110.763ZM108.915 88.5391C109.082 88.5391 109.234 88.5062 109.371 88.4403C109.513 88.3693 109.632 88.2756 109.728 88.159C109.83 88.0373 109.908 87.8979 109.964 87.7408C110.02 87.5786 110.048 87.4062 110.048 87.2238C110.048 87.021 110.025 86.8309 109.979 86.6535C109.934 86.471 109.863 86.3114 109.767 86.1745C109.67 86.0376 109.551 85.9287 109.409 85.8476C109.267 85.7665 109.102 85.7259 108.915 85.7259C108.732 85.7259 108.573 85.7715 108.436 85.8628C108.304 85.9489 108.193 86.063 108.101 86.2049C108.015 86.3418 107.949 86.4964 107.904 86.6687C107.858 86.836 107.835 87.0033 107.835 87.1705C107.835 87.353 107.861 87.5279 107.911 87.6952C107.962 87.8574 108.033 88.0018 108.124 88.1286C108.215 88.2553 108.327 88.3567 108.459 88.4327C108.596 88.5037 108.748 88.5391 108.915 88.5391Z" fill="#1B1B1B"/>
<path fill-rule="evenodd" clip-rule="evenodd" d="M129.612 56.6585C115.698 59.13 94.3223 60.7124 70.3516 60.7124C46.3797 60.7124 25.0029 59.1299 11.0894 56.6582C25.0029 59.5334 46.3797 61.3743 70.3515 61.3743C94.3223 61.3743 115.698 59.5335 129.612 56.6585Z" fill="#1B1B1B"/>
</svg>
